G04 #@! TF.GenerationSoftware,KiCad,Pcbnew,(5.1.10)-1*
G04 #@! TF.CreationDate,2022-03-07T12:44:44+01:00*
G04 #@! TF.ProjectId,karta_pomiarowa_v2,6b617274-615f-4706-9f6d-6961726f7761,rev?*
G04 #@! TF.SameCoordinates,Original*
G04 #@! TF.FileFunction,Legend,Bot*
G04 #@! TF.FilePolarity,Positive*
%FSLAX46Y46*%
G04 Gerber Fmt 4.6, Leading zero omitted, Abs format (unit mm)*
G04 Created by KiCad (PCBNEW (5.1.10)-1) date 2022-03-07 12:44:44*
%MOMM*%
%LPD*%
G01*
G04 APERTURE LIST*
%ADD10O,1.700000X1.700000*%
%ADD11R,1.700000X1.700000*%
%ADD12C,6.400000*%
%ADD13C,3.000000*%
%ADD14C,0.900000*%
G04 APERTURE END LIST*
%LPC*%
D10*
X74980000Y-105190000D03*
X72440000Y-105190000D03*
X69900000Y-105190000D03*
X67360000Y-105190000D03*
X64820000Y-105190000D03*
D11*
X62280000Y-105190000D03*
D12*
X45000000Y-40000000D03*
X45000000Y-105000000D03*
X135000000Y-105000000D03*
X135000000Y-40000000D03*
D13*
X134000000Y-75000000D03*
X134000000Y-81000000D03*
X134000000Y-87500000D03*
D10*
X100010000Y-42340000D03*
X100010000Y-39800000D03*
X97470000Y-42340000D03*
X97470000Y-39800000D03*
X94930000Y-42340000D03*
X94930000Y-39800000D03*
X92390000Y-42340000D03*
X92390000Y-39800000D03*
X89850000Y-42340000D03*
X89850000Y-39800000D03*
X87310000Y-42340000D03*
X87310000Y-39800000D03*
X84770000Y-42340000D03*
X84770000Y-39800000D03*
X82230000Y-42340000D03*
X82230000Y-39800000D03*
X79690000Y-42340000D03*
X79690000Y-39800000D03*
X77150000Y-42340000D03*
X77150000Y-39800000D03*
X74610000Y-42340000D03*
X74610000Y-39800000D03*
X72070000Y-42340000D03*
X72070000Y-39800000D03*
X69530000Y-42340000D03*
X69530000Y-39800000D03*
X66990000Y-42340000D03*
X66990000Y-39800000D03*
X64450000Y-42340000D03*
X64450000Y-39800000D03*
X61910000Y-42340000D03*
X61910000Y-39800000D03*
X59370000Y-42340000D03*
X59370000Y-39800000D03*
X56830000Y-42340000D03*
X56830000Y-39800000D03*
X54290000Y-42340000D03*
X54290000Y-39800000D03*
X51750000Y-42340000D03*
D11*
X51750000Y-39800000D03*
D10*
X128370000Y-42340000D03*
X128370000Y-39800000D03*
X125830000Y-42340000D03*
X125830000Y-39800000D03*
X123290000Y-42340000D03*
X123290000Y-39800000D03*
X120750000Y-42340000D03*
X120750000Y-39800000D03*
X118210000Y-42340000D03*
X118210000Y-39800000D03*
X115670000Y-42340000D03*
X115670000Y-39800000D03*
X113130000Y-42340000D03*
X113130000Y-39800000D03*
X110590000Y-42340000D03*
X110590000Y-39800000D03*
X108050000Y-42340000D03*
X108050000Y-39800000D03*
X105510000Y-42340000D03*
D11*
X105510000Y-39800000D03*
D10*
X113640000Y-46500000D03*
D11*
X111100000Y-46500000D03*
D10*
X101480000Y-105190000D03*
X101480000Y-102650000D03*
X98940000Y-105190000D03*
X98940000Y-102650000D03*
X96400000Y-105190000D03*
X96400000Y-102650000D03*
X93860000Y-105190000D03*
X93860000Y-102650000D03*
X91320000Y-105190000D03*
X91320000Y-102650000D03*
X88780000Y-105190000D03*
X88780000Y-102650000D03*
X86240000Y-105190000D03*
X86240000Y-102650000D03*
X83700000Y-105190000D03*
X83700000Y-102650000D03*
X81160000Y-105190000D03*
X81160000Y-102650000D03*
X78620000Y-105190000D03*
D11*
X78620000Y-102650000D03*
D14*
X118656000Y-103669000D03*
X114256000Y-103669000D03*
M02*
