M48
; DRILL file {KiCad (5.1.10)-1} date 03/07/22 12:44:50
; FORMAT={-:-/ absolute / metric / decimal}
; #@! TF.CreationDate,2022-03-07T12:44:50+01:00
; #@! TF.GenerationSoftware,Kicad,Pcbnew,(5.1.10)-1
; #@! TF.FileFunction,Plated,1,4,PTH
FMAT,2
METRIC
T1C0.300
T2C1.000
T3C1.500
T4C3.200
%
G90
G05
T1
X41.25Y-45.0
X41.25Y-47.25
X42.0Y-48.0
X42.0Y-51.0
X42.0Y-54.0
X42.0Y-57.0
X42.0Y-60.0
X42.0Y-63.0
X42.0Y-66.0
X42.0Y-70.0
X42.0Y-73.0
X42.0Y-76.0
X42.0Y-79.0
X42.0Y-82.0
X42.0Y-86.0
X42.0Y-89.0
X42.0Y-92.0
X42.0Y-96.0
X42.0Y-99.0
X42.75Y-46.0
X43.0Y-49.5
X44.0Y-50.5
X44.25Y-45.0
X45.0Y-57.0
X45.0Y-60.0
X45.0Y-63.0
X45.0Y-66.0
X45.0Y-70.0
X45.0Y-73.0
X45.0Y-76.0
X45.0Y-79.0
X45.0Y-82.0
X45.0Y-86.0
X45.0Y-89.0
X45.0Y-92.0
X45.0Y-96.0
X45.0Y-99.0
X46.0Y-52.5
X47.141Y-52.391
X48.0Y-57.0
X48.0Y-60.0
X48.0Y-63.0
X48.0Y-66.0
X48.0Y-70.0
X48.0Y-73.0
X48.0Y-76.0
X48.0Y-79.0
X48.0Y-82.0
X48.0Y-86.0
X48.0Y-89.0
X48.0Y-92.0
X48.0Y-96.0
X48.0Y-99.0
X48.33Y-55.57
X48.5Y-51.25
X48.75Y-52.25
X49.091Y-44.908
X49.5Y-46.0
X49.56Y-52.68
X49.75Y-62.75
X49.75Y-63.5
X49.75Y-64.5
X50.25Y-53.5
X50.3Y-37.3
X50.3Y-56.4
X50.75Y-46.0
X51.0Y-44.25
X51.0Y-54.25
X51.0Y-70.0
X51.0Y-73.0
X51.0Y-76.0
X51.0Y-79.0
X51.0Y-82.0
X51.0Y-86.0
X51.0Y-89.0
X51.0Y-92.0
X51.0Y-96.0
X51.0Y-99.0
X51.0Y-102.0
X51.0Y-108.0
X51.25Y-45.0
X52.11Y-56.79
X52.5Y-54.25
X53.0Y-45.0
X53.0Y-62.75
X53.0Y-63.8
X53.25Y-50.5
X53.3Y-37.3
X53.713Y-58.687
X54.0Y-70.0
X54.0Y-73.0
X54.0Y-76.0
X54.0Y-79.0
X54.0Y-82.0
X54.0Y-86.0
X54.0Y-89.0
X54.0Y-92.0
X54.0Y-96.0
X54.0Y-99.0
X54.0Y-102.0
X54.0Y-108.0
X54.25Y-44.0
X54.75Y-46.5
X54.75Y-47.5
X56.3Y-37.3
X57.0Y-60.0
X57.0Y-63.0
X57.0Y-66.0
X57.0Y-73.0
X57.0Y-76.0
X57.0Y-79.0
X57.0Y-82.0
X57.0Y-86.0
X57.0Y-89.0
X57.0Y-92.0
X57.0Y-96.0
X57.0Y-99.0
X57.25Y-64.0
X57.25Y-64.75
X58.5Y-54.75
X58.9Y-59.7
X59.3Y-37.3
X60.0Y-68.0
X60.0Y-69.0
X60.0Y-75.0
X60.0Y-77.0
X60.0Y-86.0
X60.0Y-89.0
X60.0Y-92.0
X60.0Y-96.0
X60.0Y-99.0
X60.0Y-102.0
X60.0Y-105.0
X60.2Y-73.7
X60.3Y-63.2
X60.3Y-64.5
X60.75Y-45.75
X61.0Y-49.5
X61.25Y-53.5
X61.5Y-51.0
X61.75Y-49.5
X62.16Y-57.31
X62.3Y-37.3
X62.4Y-78.7
X62.5Y-45.75
X62.5Y-49.5
X62.8Y-98.8
X62.8Y-99.8
X63.0Y-74.75
X63.0Y-89.0
X63.0Y-92.0
X63.25Y-72.75
X63.25Y-73.75
X63.75Y-80.5
X63.9Y-78.7
X64.0Y-63.0
X64.0Y-63.0
X64.0Y-65.0
X64.0Y-67.0
X64.1Y-58.9
X64.2Y-68.6
X65.3Y-37.3
X66.0Y-57.0
X66.0Y-86.0
X66.0Y-92.0
X66.75Y-63.75
X67.0Y-58.0
X67.25Y-45.0
X67.4Y-63.2
X67.4Y-64.4
X67.5Y-62.25
X67.5Y-103.0
X68.0Y-73.0
X68.0Y-74.4
X68.0Y-80.5
X68.3Y-37.3
X68.7Y-44.5
X68.75Y-78.5
X69.0Y-58.0
X69.0Y-86.0
X69.0Y-89.0
X69.3Y-59.7
X69.5Y-44.5
X69.5Y-69.5
X69.852Y-50.072
X69.9Y-45.1
X70.25Y-54.7
X70.3Y-44.5
X70.5Y-78.5
X70.75Y-74.75
X70.837Y-57.837
X70.95Y-54.65
X71.0Y-55.35
X71.3Y-37.3
X72.0Y-46.0
X72.03Y-50.6
X72.1Y-84.8
X72.102Y-81.325
X73.0Y-94.0
X73.25Y-72.75
X73.4Y-43.8
X73.5Y-64.0
X73.787Y-80.813
X73.8Y-84.3
X73.8Y-87.3
X74.0Y-63.0
X74.0Y-65.0
X74.0Y-67.0
X74.0Y-94.0
X74.2Y-44.5
X74.2Y-48.2
X74.2Y-94.7
X74.3Y-37.3
X74.3Y-96.3
X74.34Y-91.1
X74.4Y-99.3
X74.5Y-70.25
X74.5Y-78.25
X74.7Y-68.7
X74.747Y-49.095
X74.9Y-48.2
X75.3Y-79.0
X75.5Y-54.6
X75.5Y-72.5
X75.6Y-91.2
X75.73Y-92.34
X75.9Y-48.1
X76.0Y-65.0
X76.0Y-67.0
X76.0Y-83.0
X76.187Y-56.712
X76.81Y-87.98
X77.0Y-55.3
X77.0Y-84.0
X77.1Y-50.4
X77.1Y-88.9
X77.183Y-49.102
X77.2Y-89.8
X77.244Y-90.799
X77.3Y-37.3
X77.4Y-76.6
X77.75Y-63.75
X77.8Y-54.7
X77.9Y-48.1
X78.0Y-46.75
X78.0Y-56.0
X78.25Y-63.25
X78.35Y-72.7
X78.4Y-54.45
X78.4Y-73.75
X78.5Y-64.25
X79.116Y-59.484
X79.46Y-80.74
X79.49Y-82.01
X79.968Y-91.379
X80.068Y-87.207
X80.092Y-88.207
X80.159Y-89.205
X80.2Y-84.9
X80.265Y-86.227
X80.3Y-37.3
X80.35Y-82.65
X80.35Y-83.68
X80.5Y-59.8
X80.5Y-69.0
X81.1Y-63.2
X81.1Y-64.4
X81.5Y-45.75
X81.5Y-96.3
X81.6Y-52.7
X81.8Y-47.9
X82.0Y-44.75
X82.0Y-100.24
X82.2Y-43.9
X82.4Y-84.1
X82.5Y-97.0
X83.0Y-56.0
X83.11Y-80.792
X83.3Y-37.3
X83.4Y-43.8
X83.556Y-99.961
X84.0Y-49.9
X84.0Y-63.25
X84.0Y-64.25
X84.0Y-73.0
X84.23Y-100.7
X84.25Y-44.75
X84.285Y-69.068
X84.4Y-45.6
X84.475Y-74.005
X84.7Y-77.2
X85.0Y-93.6
X85.035Y-47.465
X85.1Y-44.7
X85.1Y-45.6
X85.166Y-86.849
X85.2Y-92.6
X85.25Y-91.75
X85.26Y-89.27
X85.4Y-78.1
X85.403Y-85.383
X85.75Y-45.25
X85.825Y-51.216
X86.0Y-55.0
X86.0Y-61.0
X86.0Y-63.0
X86.0Y-65.0
X86.175Y-79.535
X86.25Y-91.75
X86.3Y-37.3
X86.7Y-44.1
X86.8Y-87.3
X86.975Y-88.268
X87.0Y-80.4
X87.0Y-99.315
X87.437Y-85.219
X87.485Y-93.424
X87.5Y-73.75
X87.532Y-78.084
X87.725Y-97.776
X87.8Y-96.7
X88.0Y-59.0
X88.0Y-61.0
X88.0Y-63.0
X88.0Y-63.0
X88.0Y-67.0
X88.021Y-79.26
X88.3Y-73.1
X88.3Y-74.3
X88.452Y-87.35
X88.479Y-99.75
X88.5Y-49.9
X88.5Y-93.3
X88.56Y-78.418
X88.75Y-62.75
X89.0Y-51.0
X89.0Y-53.0
X89.198Y-80.181
X89.3Y-37.3
X89.3Y-49.9
X89.32Y-107.82
X89.385Y-98.597
X89.8Y-43.8
X89.8Y-54.8
X89.96Y-79.401
X90.0Y-69.6
X90.1Y-49.9
X90.1Y-59.9
X90.367Y-98.788
X90.678Y-85.45
X90.71Y-81.758
X90.9Y-49.9
X91.0Y-51.0
X91.32Y-99.09
X91.455Y-88.21
X91.5Y-45.3
X91.5Y-63.3
X91.5Y-64.3
X91.5Y-79.254
X91.7Y-81.9
X91.779Y-87.177
X92.2Y-45.3
X92.2Y-93.4
X92.287Y-97.301
X92.3Y-37.3
X92.655Y-79.125
X92.9Y-45.3
X93.0Y-53.0
X93.0Y-55.0
X93.0Y-85.0
X93.25Y-89.75
X93.25Y-92.25
X93.27Y-98.28
X93.3Y-85.7
X93.3Y-86.9
X93.75Y-44.25
X94.0Y-63.0
X94.25Y-64.75
X94.25Y-72.75
X94.25Y-73.75
X94.25Y-74.5
X95.3Y-37.3
X95.3Y-81.125
X95.4Y-50.0
X95.738Y-94.675
X95.83Y-76.2
X96.0Y-51.0
X96.0Y-53.0
X96.0Y-55.0
X96.0Y-62.0
X96.0Y-64.0
X96.0Y-66.0
X96.0Y-68.0
X96.0Y-70.0
X96.0Y-72.0
X96.0Y-74.0
X96.1Y-50.0
X96.3Y-59.1
X96.8Y-50.0
X96.8Y-94.4
X97.05Y-96.8
X97.1Y-82.1
X97.1Y-82.8
X97.16Y-88.17
X97.5Y-50.0
X97.8Y-84.3
X97.8Y-92.0
X97.8Y-96.0
X97.85Y-98.07
X97.9Y-82.1
X97.9Y-82.8
X98.0Y-62.0
X98.0Y-64.0
X98.0Y-66.0
X98.0Y-90.7
X98.14Y-93.23
X98.25Y-45.1
X98.3Y-37.3
X98.332Y-94.516
X98.5Y-91.3
X98.5Y-92.0
X98.605Y-89.296
X98.692Y-40.404
X98.95Y-45.15
X99.0Y-62.75
X99.0Y-63.75
X99.0Y-64.75
X99.047Y-85.963
X99.1Y-82.1
X99.1Y-83.1
X99.25Y-72.75
X99.25Y-74.5
X99.6Y-59.1
X99.6Y-82.6
X99.6Y-83.6
X99.6Y-89.2
X100.0Y-55.0
X100.1Y-82.1
X100.1Y-83.1
X100.14Y-100.8
X100.46Y-85.35
X100.5Y-60.0
X100.5Y-69.8
X100.7Y-87.01
X101.0Y-46.5
X101.0Y-51.0
X101.0Y-53.0
X101.0Y-57.0
X101.0Y-80.4
X101.0Y-88.0
X101.3Y-37.3
X101.55Y-86.85
X101.75Y-62.75
X101.75Y-64.75
X101.8Y-63.8
X101.9Y-40.3
X101.9Y-55.0
X102.0Y-73.7
X102.0Y-80.4
X102.317Y-84.082
X102.75Y-49.0
X102.9Y-79.3
X103.0Y-51.0
X103.0Y-53.0
X103.0Y-55.0
X103.0Y-57.0
X103.0Y-90.0
X104.3Y-37.3
X105.0Y-45.0
X105.0Y-47.0
X105.0Y-49.0
X105.0Y-51.0
X105.0Y-53.0
X105.0Y-55.0
X105.0Y-57.0
X105.0Y-64.0
X105.0Y-67.0
X105.0Y-70.0
X105.0Y-73.0
X105.0Y-76.0
X105.0Y-79.0
X105.0Y-79.0
X105.75Y-102.38
X106.0Y-64.0
X106.0Y-67.0
X106.0Y-70.0
X106.0Y-73.0
X106.0Y-76.0
X106.4Y-50.7
X106.79Y-84.52
X107.0Y-45.0
X107.0Y-47.0
X107.0Y-49.0
X107.0Y-57.0
X107.0Y-64.0
X107.0Y-67.0
X107.0Y-70.0
X107.0Y-73.0
X107.0Y-76.0
X107.3Y-37.3
X107.75Y-101.95
X107.99Y-85.32
X108.0Y-64.0
X108.0Y-67.0
X108.0Y-70.0
X108.0Y-73.0
X108.0Y-76.0
X108.0Y-79.0
X108.0Y-80.6
X108.0Y-94.0
X108.1Y-81.4
X108.25Y-52.25
X108.25Y-53.25
X108.75Y-51.75
X108.86Y-85.88
X109.0Y-45.0
X109.0Y-47.0
X109.0Y-49.0
X110.3Y-37.3
X110.5Y-60.0
X110.7Y-100.0
X110.7Y-101.0
X110.7Y-102.0
X110.7Y-103.0
X110.7Y-104.0
X110.7Y-105.0
X110.7Y-106.0
X110.7Y-107.0
X110.7Y-108.0
X110.7Y-109.0
X111.0Y-64.0
X111.0Y-67.0
X111.0Y-70.0
X111.0Y-73.0
X111.0Y-76.0
X112.0Y-44.0
X112.0Y-45.0
X112.25Y-49.0
X113.3Y-37.3
X114.0Y-55.0
X114.0Y-58.0
X114.0Y-61.0
X114.0Y-64.0
X114.0Y-67.0
X114.0Y-70.0
X114.0Y-73.0
X114.0Y-94.0
X115.0Y-55.5
X116.0Y-44.0
X116.0Y-46.0
X116.0Y-49.0
X116.3Y-37.3
X117.0Y-91.0
X117.0Y-94.0
X117.25Y-59.0
X118.75Y-81.25
X118.75Y-85.87
X119.0Y-44.0
X119.0Y-46.0
X119.0Y-49.0
X119.3Y-37.3
X119.9Y-56.7
X120.0Y-55.75
X120.0Y-57.5
X120.0Y-60.75
X120.0Y-61.75
X120.0Y-85.0
X120.0Y-88.0
X120.0Y-91.0
X120.0Y-94.0
X120.5Y-58.75
X121.0Y-59.75
X121.0Y-60.75
X121.0Y-61.75
X121.5Y-48.0
X121.5Y-49.0
X121.5Y-50.0
X121.5Y-58.75
X122.0Y-44.0
X122.0Y-46.0
X122.0Y-59.75
X122.0Y-60.75
X122.0Y-61.75
X122.3Y-37.3
X122.5Y-48.0
X122.5Y-49.0
X122.5Y-50.0
X123.0Y-82.0
X123.0Y-85.0
X123.0Y-88.0
X123.0Y-91.0
X123.0Y-94.0
X123.0Y-97.0
X123.2Y-100.0
X123.2Y-101.0
X123.2Y-102.0
X123.2Y-103.0
X123.2Y-104.0
X123.2Y-105.0
X123.2Y-106.0
X123.2Y-107.0
X123.2Y-108.0
X123.2Y-109.0
X123.5Y-50.0
X123.75Y-65.5
X123.75Y-66.25
X123.75Y-67.0
X124.5Y-65.5
X124.5Y-66.25
X124.5Y-67.0
X124.6Y-56.5
X125.25Y-65.5
X125.25Y-66.25
X125.25Y-67.0
X125.3Y-37.3
X125.5Y-56.5
X125.9Y-53.2
X125.9Y-54.1
X125.9Y-55.0
X126.0Y-65.5
X126.0Y-66.25
X126.0Y-67.0
X126.0Y-79.0
X126.0Y-82.0
X126.0Y-85.0
X126.0Y-88.0
X126.0Y-91.0
X126.0Y-94.0
X126.0Y-97.0
X126.0Y-100.0
X126.0Y-103.0
X126.0Y-106.0
X126.0Y-109.0
X126.8Y-53.3
X127.5Y-41.0
X127.75Y-43.75
X128.3Y-37.3
X128.75Y-43.75
X129.0Y-58.5
X129.0Y-76.0
X129.0Y-79.0
X129.0Y-82.0
X129.0Y-85.0
X129.0Y-88.0
X129.0Y-91.0
X129.0Y-94.0
X129.0Y-97.0
X129.0Y-100.0
X129.0Y-103.0
X129.0Y-106.0
X129.0Y-109.0
X129.4Y-57.8
X129.75Y-39.0
X129.75Y-40.75
X129.75Y-42.25
X129.75Y-43.75
X130.25Y-39.75
X130.25Y-41.5
X130.25Y-43.0
X130.75Y-39.0
X130.75Y-40.75
X130.75Y-42.25
X130.75Y-43.75
X132.0Y-49.0
X132.0Y-52.0
X132.0Y-55.0
X132.0Y-58.0
X132.0Y-61.0
X132.0Y-64.0
X132.0Y-67.0
X132.0Y-70.0
X132.0Y-73.0
X132.0Y-85.0
X132.0Y-91.0
X132.0Y-94.0
X132.0Y-97.0
X132.0Y-100.0
X135.0Y-46.0
X135.0Y-49.0
X135.0Y-52.0
X135.0Y-55.0
X135.0Y-58.0
X135.0Y-61.0
X135.0Y-64.0
X135.0Y-67.0
X135.0Y-70.0
X135.0Y-85.0
X135.0Y-91.0
X135.0Y-94.0
X135.0Y-97.0
X135.0Y-100.0
X138.0Y-46.0
X138.0Y-49.0
X138.0Y-52.0
X138.0Y-55.0
X138.0Y-58.0
X138.0Y-61.0
X138.0Y-64.0
X138.0Y-67.0
X138.0Y-70.0
X138.0Y-73.0
X138.0Y-76.0
X138.0Y-79.0
X138.0Y-82.0
X138.0Y-85.0
X138.0Y-88.0
X138.0Y-91.0
X138.0Y-94.0
X138.0Y-97.0
X138.0Y-100.0
T2
X51.75Y-39.8
X51.75Y-42.34
X54.29Y-39.8
X54.29Y-42.34
X56.83Y-39.8
X56.83Y-42.34
X59.37Y-39.8
X59.37Y-42.34
X61.91Y-39.8
X61.91Y-42.34
X62.28Y-105.19
X64.45Y-39.8
X64.45Y-42.34
X64.82Y-105.19
X66.99Y-39.8
X66.99Y-42.34
X67.36Y-105.19
X69.53Y-39.8
X69.53Y-42.34
X69.9Y-105.19
X72.07Y-39.8
X72.07Y-42.34
X72.44Y-105.19
X74.61Y-39.8
X74.61Y-42.34
X74.98Y-105.19
X77.15Y-39.8
X77.15Y-42.34
X78.62Y-102.65
X78.62Y-105.19
X79.69Y-39.8
X79.69Y-42.34
X81.16Y-102.65
X81.16Y-105.19
X82.23Y-39.8
X82.23Y-42.34
X83.7Y-102.65
X83.7Y-105.19
X84.77Y-39.8
X84.77Y-42.34
X86.24Y-102.65
X86.24Y-105.19
X87.31Y-39.8
X87.31Y-42.34
X88.78Y-102.65
X88.78Y-105.19
X89.85Y-39.8
X89.85Y-42.34
X91.32Y-102.65
X91.32Y-105.19
X92.39Y-39.8
X92.39Y-42.34
X93.86Y-102.65
X93.86Y-105.19
X94.93Y-39.8
X94.93Y-42.34
X96.4Y-102.65
X96.4Y-105.19
X97.47Y-39.8
X97.47Y-42.34
X98.94Y-102.65
X98.94Y-105.19
X100.01Y-39.8
X100.01Y-42.34
X101.48Y-102.65
X101.48Y-105.19
X105.51Y-39.8
X105.51Y-42.34
X108.05Y-39.8
X108.05Y-42.34
X110.59Y-39.8
X110.59Y-42.34
X111.1Y-46.5
X113.13Y-39.8
X113.13Y-42.34
X113.64Y-46.5
X115.67Y-39.8
X115.67Y-42.34
X118.21Y-39.8
X118.21Y-42.34
X120.75Y-39.8
X120.75Y-42.34
X123.29Y-39.8
X123.29Y-42.34
X125.83Y-39.8
X125.83Y-42.34
X128.37Y-39.8
X128.37Y-42.34
T3
X134.0Y-75.0
X134.0Y-81.0
X134.0Y-87.5
T4
X45.0Y-40.0
X45.0Y-105.0
X135.0Y-40.0
X135.0Y-105.0
T0
M30
