G04 #@! TF.GenerationSoftware,KiCad,Pcbnew,(5.1.10)-1*
G04 #@! TF.CreationDate,2022-03-07T12:44:44+01:00*
G04 #@! TF.ProjectId,karta_pomiarowa_v2,6b617274-615f-4706-9f6d-6961726f7761,rev?*
G04 #@! TF.SameCoordinates,Original*
G04 #@! TF.FileFunction,Soldermask,Top*
G04 #@! TF.FilePolarity,Negative*
%FSLAX46Y46*%
G04 Gerber Fmt 4.6, Leading zero omitted, Abs format (unit mm)*
G04 Created by KiCad (PCBNEW (5.1.10)-1) date 2022-03-07 12:44:44*
%MOMM*%
%LPD*%
G01*
G04 APERTURE LIST*
%ADD10C,0.100000*%
%ADD11O,1.700000X1.700000*%
%ADD12R,1.700000X1.700000*%
%ADD13R,0.400000X0.650000*%
%ADD14R,1.060000X0.650000*%
%ADD15R,2.000000X1.500000*%
%ADD16R,2.000000X3.800000*%
%ADD17C,6.400000*%
%ADD18C,3.000000*%
%ADD19R,1.550000X1.300000*%
%ADD20R,0.900000X1.200000*%
%ADD21R,1.200000X0.900000*%
%ADD22R,1.400000X1.200000*%
%ADD23R,2.000000X1.780000*%
%ADD24R,1.900000X1.500000*%
%ADD25C,0.900000*%
%ADD26R,0.500000X2.500000*%
%ADD27R,2.000000X2.500000*%
%ADD28R,0.800000X0.900000*%
G04 APERTURE END LIST*
D10*
G36*
X102530000Y-46435000D02*
G01*
X103730000Y-46435000D01*
X103730000Y-47785000D01*
X102530000Y-47785000D01*
X102530000Y-46435000D01*
G37*
G36*
X102750000Y-47945000D02*
G01*
X103510000Y-47945000D01*
X103510000Y-48395000D01*
X102750000Y-48395000D01*
X102750000Y-47945000D01*
G37*
G36*
X103800000Y-47820000D02*
G01*
X104330000Y-47820000D01*
X104330000Y-48270000D01*
X103800000Y-48270000D01*
X103800000Y-47820000D01*
G37*
G36*
X103800000Y-46520000D02*
G01*
X104330000Y-46520000D01*
X104330000Y-46970000D01*
X103800000Y-46970000D01*
X103800000Y-46520000D01*
G37*
G36*
X103800000Y-47170000D02*
G01*
X104330000Y-47170000D01*
X104330000Y-47620000D01*
X103800000Y-47620000D01*
X103800000Y-47170000D01*
G37*
G36*
X101930000Y-47820000D02*
G01*
X102460000Y-47820000D01*
X102460000Y-48270000D01*
X101930000Y-48270000D01*
X101930000Y-47820000D01*
G37*
G36*
X101930000Y-46520000D02*
G01*
X102460000Y-46520000D01*
X102460000Y-46970000D01*
X101930000Y-46970000D01*
X101930000Y-46520000D01*
G37*
G36*
X101930000Y-47170000D02*
G01*
X102460000Y-47170000D01*
X102460000Y-47620000D01*
X101930000Y-47620000D01*
X101930000Y-47170000D01*
G37*
G36*
X95900000Y-46385000D02*
G01*
X97100000Y-46385000D01*
X97100000Y-47735000D01*
X95900000Y-47735000D01*
X95900000Y-46385000D01*
G37*
G36*
X96120000Y-47895000D02*
G01*
X96880000Y-47895000D01*
X96880000Y-48345000D01*
X96120000Y-48345000D01*
X96120000Y-47895000D01*
G37*
G36*
X97170000Y-47770000D02*
G01*
X97700000Y-47770000D01*
X97700000Y-48220000D01*
X97170000Y-48220000D01*
X97170000Y-47770000D01*
G37*
G36*
X97170000Y-46470000D02*
G01*
X97700000Y-46470000D01*
X97700000Y-46920000D01*
X97170000Y-46920000D01*
X97170000Y-46470000D01*
G37*
G36*
X97170000Y-47120000D02*
G01*
X97700000Y-47120000D01*
X97700000Y-47570000D01*
X97170000Y-47570000D01*
X97170000Y-47120000D01*
G37*
G36*
X95300000Y-47770000D02*
G01*
X95830000Y-47770000D01*
X95830000Y-48220000D01*
X95300000Y-48220000D01*
X95300000Y-47770000D01*
G37*
G36*
X95300000Y-46470000D02*
G01*
X95830000Y-46470000D01*
X95830000Y-46920000D01*
X95300000Y-46920000D01*
X95300000Y-46470000D01*
G37*
G36*
X95300000Y-47120000D02*
G01*
X95830000Y-47120000D01*
X95830000Y-47570000D01*
X95300000Y-47570000D01*
X95300000Y-47120000D01*
G37*
G36*
X88960000Y-46435000D02*
G01*
X90160000Y-46435000D01*
X90160000Y-47785000D01*
X88960000Y-47785000D01*
X88960000Y-46435000D01*
G37*
G36*
X89180000Y-47945000D02*
G01*
X89940000Y-47945000D01*
X89940000Y-48395000D01*
X89180000Y-48395000D01*
X89180000Y-47945000D01*
G37*
G36*
X90230000Y-47820000D02*
G01*
X90760000Y-47820000D01*
X90760000Y-48270000D01*
X90230000Y-48270000D01*
X90230000Y-47820000D01*
G37*
G36*
X90230000Y-46520000D02*
G01*
X90760000Y-46520000D01*
X90760000Y-46970000D01*
X90230000Y-46970000D01*
X90230000Y-46520000D01*
G37*
G36*
X90230000Y-47170000D02*
G01*
X90760000Y-47170000D01*
X90760000Y-47620000D01*
X90230000Y-47620000D01*
X90230000Y-47170000D01*
G37*
G36*
X88360000Y-47820000D02*
G01*
X88890000Y-47820000D01*
X88890000Y-48270000D01*
X88360000Y-48270000D01*
X88360000Y-47820000D01*
G37*
G36*
X88360000Y-46520000D02*
G01*
X88890000Y-46520000D01*
X88890000Y-46970000D01*
X88360000Y-46970000D01*
X88360000Y-46520000D01*
G37*
G36*
X88360000Y-47170000D02*
G01*
X88890000Y-47170000D01*
X88890000Y-47620000D01*
X88360000Y-47620000D01*
X88360000Y-47170000D01*
G37*
D11*
X74980000Y-105190000D03*
X72440000Y-105190000D03*
X69900000Y-105190000D03*
X67360000Y-105190000D03*
X64820000Y-105190000D03*
D12*
X62280000Y-105190000D03*
D13*
X58600000Y-49800000D03*
X59900000Y-49800000D03*
X59250000Y-51700000D03*
X59900000Y-51700000D03*
X58600000Y-51700000D03*
X58400000Y-48450000D03*
X57100000Y-48450000D03*
X57750000Y-46550000D03*
X57100000Y-46550000D03*
X58400000Y-46550000D03*
X67230000Y-50790000D03*
X68530000Y-50790000D03*
X67880000Y-52690000D03*
X68530000Y-52690000D03*
X67230000Y-52690000D03*
X67030000Y-49440000D03*
X65730000Y-49440000D03*
X66380000Y-47540000D03*
X65730000Y-47540000D03*
X67030000Y-47540000D03*
D14*
X73100000Y-48800000D03*
X73100000Y-50700000D03*
X70900000Y-50700000D03*
X70900000Y-49750000D03*
X70900000Y-48800000D03*
X80510000Y-48720000D03*
X80510000Y-50620000D03*
X78310000Y-50620000D03*
X78310000Y-49670000D03*
X78310000Y-48720000D03*
G36*
G01*
X58825000Y-52975000D02*
X58825000Y-53525000D01*
G75*
G02*
X58625000Y-53725000I-200000J0D01*
G01*
X58225000Y-53725000D01*
G75*
G02*
X58025000Y-53525000I0J200000D01*
G01*
X58025000Y-52975000D01*
G75*
G02*
X58225000Y-52775000I200000J0D01*
G01*
X58625000Y-52775000D01*
G75*
G02*
X58825000Y-52975000I0J-200000D01*
G01*
G37*
G36*
G01*
X60475000Y-52975000D02*
X60475000Y-53525000D01*
G75*
G02*
X60275000Y-53725000I-200000J0D01*
G01*
X59875000Y-53725000D01*
G75*
G02*
X59675000Y-53525000I0J200000D01*
G01*
X59675000Y-52975000D01*
G75*
G02*
X59875000Y-52775000I200000J0D01*
G01*
X60275000Y-52775000D01*
G75*
G02*
X60475000Y-52975000I0J-200000D01*
G01*
G37*
G36*
G01*
X61425000Y-55025000D02*
X61425000Y-54475000D01*
G75*
G02*
X61625000Y-54275000I200000J0D01*
G01*
X62025000Y-54275000D01*
G75*
G02*
X62225000Y-54475000I0J-200000D01*
G01*
X62225000Y-55025000D01*
G75*
G02*
X62025000Y-55225000I-200000J0D01*
G01*
X61625000Y-55225000D01*
G75*
G02*
X61425000Y-55025000I0J200000D01*
G01*
G37*
G36*
G01*
X59775000Y-55025000D02*
X59775000Y-54475000D01*
G75*
G02*
X59975000Y-54275000I200000J0D01*
G01*
X60375000Y-54275000D01*
G75*
G02*
X60575000Y-54475000I0J-200000D01*
G01*
X60575000Y-55025000D01*
G75*
G02*
X60375000Y-55225000I-200000J0D01*
G01*
X59975000Y-55225000D01*
G75*
G02*
X59775000Y-55025000I0J200000D01*
G01*
G37*
G36*
G01*
X57275000Y-50325000D02*
X56725000Y-50325000D01*
G75*
G02*
X56525000Y-50125000I0J200000D01*
G01*
X56525000Y-49725000D01*
G75*
G02*
X56725000Y-49525000I200000J0D01*
G01*
X57275000Y-49525000D01*
G75*
G02*
X57475000Y-49725000I0J-200000D01*
G01*
X57475000Y-50125000D01*
G75*
G02*
X57275000Y-50325000I-200000J0D01*
G01*
G37*
G36*
G01*
X57275000Y-51975000D02*
X56725000Y-51975000D01*
G75*
G02*
X56525000Y-51775000I0J200000D01*
G01*
X56525000Y-51375000D01*
G75*
G02*
X56725000Y-51175000I200000J0D01*
G01*
X57275000Y-51175000D01*
G75*
G02*
X57475000Y-51375000I0J-200000D01*
G01*
X57475000Y-51775000D01*
G75*
G02*
X57275000Y-51975000I-200000J0D01*
G01*
G37*
G36*
G01*
X54925000Y-45275000D02*
X54925000Y-44725000D01*
G75*
G02*
X55125000Y-44525000I200000J0D01*
G01*
X55525000Y-44525000D01*
G75*
G02*
X55725000Y-44725000I0J-200000D01*
G01*
X55725000Y-45275000D01*
G75*
G02*
X55525000Y-45475000I-200000J0D01*
G01*
X55125000Y-45475000D01*
G75*
G02*
X54925000Y-45275000I0J200000D01*
G01*
G37*
G36*
G01*
X53275000Y-45275000D02*
X53275000Y-44725000D01*
G75*
G02*
X53475000Y-44525000I200000J0D01*
G01*
X53875000Y-44525000D01*
G75*
G02*
X54075000Y-44725000I0J-200000D01*
G01*
X54075000Y-45275000D01*
G75*
G02*
X53875000Y-45475000I-200000J0D01*
G01*
X53475000Y-45475000D01*
G75*
G02*
X53275000Y-45275000I0J200000D01*
G01*
G37*
G36*
G01*
X55225000Y-49925000D02*
X55775000Y-49925000D01*
G75*
G02*
X55975000Y-50125000I0J-200000D01*
G01*
X55975000Y-50525000D01*
G75*
G02*
X55775000Y-50725000I-200000J0D01*
G01*
X55225000Y-50725000D01*
G75*
G02*
X55025000Y-50525000I0J200000D01*
G01*
X55025000Y-50125000D01*
G75*
G02*
X55225000Y-49925000I200000J0D01*
G01*
G37*
G36*
G01*
X55225000Y-48275000D02*
X55775000Y-48275000D01*
G75*
G02*
X55975000Y-48475000I0J-200000D01*
G01*
X55975000Y-48875000D01*
G75*
G02*
X55775000Y-49075000I-200000J0D01*
G01*
X55225000Y-49075000D01*
G75*
G02*
X55025000Y-48875000I0J200000D01*
G01*
X55025000Y-48475000D01*
G75*
G02*
X55225000Y-48275000I200000J0D01*
G01*
G37*
G36*
G01*
X57925000Y-45275000D02*
X57925000Y-44725000D01*
G75*
G02*
X58125000Y-44525000I200000J0D01*
G01*
X58525000Y-44525000D01*
G75*
G02*
X58725000Y-44725000I0J-200000D01*
G01*
X58725000Y-45275000D01*
G75*
G02*
X58525000Y-45475000I-200000J0D01*
G01*
X58125000Y-45475000D01*
G75*
G02*
X57925000Y-45275000I0J200000D01*
G01*
G37*
G36*
G01*
X56275000Y-45275000D02*
X56275000Y-44725000D01*
G75*
G02*
X56475000Y-44525000I200000J0D01*
G01*
X56875000Y-44525000D01*
G75*
G02*
X57075000Y-44725000I0J-200000D01*
G01*
X57075000Y-45275000D01*
G75*
G02*
X56875000Y-45475000I-200000J0D01*
G01*
X56475000Y-45475000D01*
G75*
G02*
X56275000Y-45275000I0J200000D01*
G01*
G37*
G36*
G01*
X54275000Y-50075000D02*
X53725000Y-50075000D01*
G75*
G02*
X53525000Y-49875000I0J200000D01*
G01*
X53525000Y-49475000D01*
G75*
G02*
X53725000Y-49275000I200000J0D01*
G01*
X54275000Y-49275000D01*
G75*
G02*
X54475000Y-49475000I0J-200000D01*
G01*
X54475000Y-49875000D01*
G75*
G02*
X54275000Y-50075000I-200000J0D01*
G01*
G37*
G36*
G01*
X54275000Y-51725000D02*
X53725000Y-51725000D01*
G75*
G02*
X53525000Y-51525000I0J200000D01*
G01*
X53525000Y-51125000D01*
G75*
G02*
X53725000Y-50925000I200000J0D01*
G01*
X54275000Y-50925000D01*
G75*
G02*
X54475000Y-51125000I0J-200000D01*
G01*
X54475000Y-51525000D01*
G75*
G02*
X54275000Y-51725000I-200000J0D01*
G01*
G37*
G36*
G01*
X55775000Y-52075000D02*
X55225000Y-52075000D01*
G75*
G02*
X55025000Y-51875000I0J200000D01*
G01*
X55025000Y-51475000D01*
G75*
G02*
X55225000Y-51275000I200000J0D01*
G01*
X55775000Y-51275000D01*
G75*
G02*
X55975000Y-51475000I0J-200000D01*
G01*
X55975000Y-51875000D01*
G75*
G02*
X55775000Y-52075000I-200000J0D01*
G01*
G37*
G36*
G01*
X55775000Y-53725000D02*
X55225000Y-53725000D01*
G75*
G02*
X55025000Y-53525000I0J200000D01*
G01*
X55025000Y-53125000D01*
G75*
G02*
X55225000Y-52925000I200000J0D01*
G01*
X55775000Y-52925000D01*
G75*
G02*
X55975000Y-53125000I0J-200000D01*
G01*
X55975000Y-53525000D01*
G75*
G02*
X55775000Y-53725000I-200000J0D01*
G01*
G37*
G36*
G01*
X67325000Y-53975000D02*
X67325000Y-54525000D01*
G75*
G02*
X67125000Y-54725000I-200000J0D01*
G01*
X66725000Y-54725000D01*
G75*
G02*
X66525000Y-54525000I0J200000D01*
G01*
X66525000Y-53975000D01*
G75*
G02*
X66725000Y-53775000I200000J0D01*
G01*
X67125000Y-53775000D01*
G75*
G02*
X67325000Y-53975000I0J-200000D01*
G01*
G37*
G36*
G01*
X68975000Y-53975000D02*
X68975000Y-54525000D01*
G75*
G02*
X68775000Y-54725000I-200000J0D01*
G01*
X68375000Y-54725000D01*
G75*
G02*
X68175000Y-54525000I0J200000D01*
G01*
X68175000Y-53975000D01*
G75*
G02*
X68375000Y-53775000I200000J0D01*
G01*
X68775000Y-53775000D01*
G75*
G02*
X68975000Y-53975000I0J-200000D01*
G01*
G37*
G36*
G01*
X67275000Y-55525000D02*
X67275000Y-56075000D01*
G75*
G02*
X67075000Y-56275000I-200000J0D01*
G01*
X66675000Y-56275000D01*
G75*
G02*
X66475000Y-56075000I0J200000D01*
G01*
X66475000Y-55525000D01*
G75*
G02*
X66675000Y-55325000I200000J0D01*
G01*
X67075000Y-55325000D01*
G75*
G02*
X67275000Y-55525000I0J-200000D01*
G01*
G37*
G36*
G01*
X68925000Y-55525000D02*
X68925000Y-56075000D01*
G75*
G02*
X68725000Y-56275000I-200000J0D01*
G01*
X68325000Y-56275000D01*
G75*
G02*
X68125000Y-56075000I0J200000D01*
G01*
X68125000Y-55525000D01*
G75*
G02*
X68325000Y-55325000I200000J0D01*
G01*
X68725000Y-55325000D01*
G75*
G02*
X68925000Y-55525000I0J-200000D01*
G01*
G37*
G36*
G01*
X65905000Y-51315000D02*
X65355000Y-51315000D01*
G75*
G02*
X65155000Y-51115000I0J200000D01*
G01*
X65155000Y-50715000D01*
G75*
G02*
X65355000Y-50515000I200000J0D01*
G01*
X65905000Y-50515000D01*
G75*
G02*
X66105000Y-50715000I0J-200000D01*
G01*
X66105000Y-51115000D01*
G75*
G02*
X65905000Y-51315000I-200000J0D01*
G01*
G37*
G36*
G01*
X65905000Y-52965000D02*
X65355000Y-52965000D01*
G75*
G02*
X65155000Y-52765000I0J200000D01*
G01*
X65155000Y-52365000D01*
G75*
G02*
X65355000Y-52165000I200000J0D01*
G01*
X65905000Y-52165000D01*
G75*
G02*
X66105000Y-52365000I0J-200000D01*
G01*
X66105000Y-52765000D01*
G75*
G02*
X65905000Y-52965000I-200000J0D01*
G01*
G37*
G36*
G01*
X62725000Y-47850000D02*
X63275000Y-47850000D01*
G75*
G02*
X63475000Y-48050000I0J-200000D01*
G01*
X63475000Y-48450000D01*
G75*
G02*
X63275000Y-48650000I-200000J0D01*
G01*
X62725000Y-48650000D01*
G75*
G02*
X62525000Y-48450000I0J200000D01*
G01*
X62525000Y-48050000D01*
G75*
G02*
X62725000Y-47850000I200000J0D01*
G01*
G37*
G36*
G01*
X62725000Y-46200000D02*
X63275000Y-46200000D01*
G75*
G02*
X63475000Y-46400000I0J-200000D01*
G01*
X63475000Y-46800000D01*
G75*
G02*
X63275000Y-47000000I-200000J0D01*
G01*
X62725000Y-47000000D01*
G75*
G02*
X62525000Y-46800000I0J200000D01*
G01*
X62525000Y-46400000D01*
G75*
G02*
X62725000Y-46200000I200000J0D01*
G01*
G37*
G36*
G01*
X63855000Y-50915000D02*
X64405000Y-50915000D01*
G75*
G02*
X64605000Y-51115000I0J-200000D01*
G01*
X64605000Y-51515000D01*
G75*
G02*
X64405000Y-51715000I-200000J0D01*
G01*
X63855000Y-51715000D01*
G75*
G02*
X63655000Y-51515000I0J200000D01*
G01*
X63655000Y-51115000D01*
G75*
G02*
X63855000Y-50915000I200000J0D01*
G01*
G37*
G36*
G01*
X63855000Y-49265000D02*
X64405000Y-49265000D01*
G75*
G02*
X64605000Y-49465000I0J-200000D01*
G01*
X64605000Y-49865000D01*
G75*
G02*
X64405000Y-50065000I-200000J0D01*
G01*
X63855000Y-50065000D01*
G75*
G02*
X63655000Y-49865000I0J200000D01*
G01*
X63655000Y-49465000D01*
G75*
G02*
X63855000Y-49265000I200000J0D01*
G01*
G37*
G36*
G01*
X64825000Y-45725000D02*
X64825000Y-46275000D01*
G75*
G02*
X64625000Y-46475000I-200000J0D01*
G01*
X64225000Y-46475000D01*
G75*
G02*
X64025000Y-46275000I0J200000D01*
G01*
X64025000Y-45725000D01*
G75*
G02*
X64225000Y-45525000I200000J0D01*
G01*
X64625000Y-45525000D01*
G75*
G02*
X64825000Y-45725000I0J-200000D01*
G01*
G37*
G36*
G01*
X66475000Y-45725000D02*
X66475000Y-46275000D01*
G75*
G02*
X66275000Y-46475000I-200000J0D01*
G01*
X65875000Y-46475000D01*
G75*
G02*
X65675000Y-46275000I0J200000D01*
G01*
X65675000Y-45725000D01*
G75*
G02*
X65875000Y-45525000I200000J0D01*
G01*
X66275000Y-45525000D01*
G75*
G02*
X66475000Y-45725000I0J-200000D01*
G01*
G37*
G36*
G01*
X62905000Y-51065000D02*
X62355000Y-51065000D01*
G75*
G02*
X62155000Y-50865000I0J200000D01*
G01*
X62155000Y-50465000D01*
G75*
G02*
X62355000Y-50265000I200000J0D01*
G01*
X62905000Y-50265000D01*
G75*
G02*
X63105000Y-50465000I0J-200000D01*
G01*
X63105000Y-50865000D01*
G75*
G02*
X62905000Y-51065000I-200000J0D01*
G01*
G37*
G36*
G01*
X62905000Y-52715000D02*
X62355000Y-52715000D01*
G75*
G02*
X62155000Y-52515000I0J200000D01*
G01*
X62155000Y-52115000D01*
G75*
G02*
X62355000Y-51915000I200000J0D01*
G01*
X62905000Y-51915000D01*
G75*
G02*
X63105000Y-52115000I0J-200000D01*
G01*
X63105000Y-52515000D01*
G75*
G02*
X62905000Y-52715000I-200000J0D01*
G01*
G37*
G36*
G01*
X64405000Y-53065000D02*
X63855000Y-53065000D01*
G75*
G02*
X63655000Y-52865000I0J200000D01*
G01*
X63655000Y-52465000D01*
G75*
G02*
X63855000Y-52265000I200000J0D01*
G01*
X64405000Y-52265000D01*
G75*
G02*
X64605000Y-52465000I0J-200000D01*
G01*
X64605000Y-52865000D01*
G75*
G02*
X64405000Y-53065000I-200000J0D01*
G01*
G37*
G36*
G01*
X64405000Y-54715000D02*
X63855000Y-54715000D01*
G75*
G02*
X63655000Y-54515000I0J200000D01*
G01*
X63655000Y-54115000D01*
G75*
G02*
X63855000Y-53915000I200000J0D01*
G01*
X64405000Y-53915000D01*
G75*
G02*
X64605000Y-54115000I0J-200000D01*
G01*
X64605000Y-54515000D01*
G75*
G02*
X64405000Y-54715000I-200000J0D01*
G01*
G37*
G36*
G01*
X75075000Y-49925000D02*
X75075000Y-50475000D01*
G75*
G02*
X74875000Y-50675000I-200000J0D01*
G01*
X74475000Y-50675000D01*
G75*
G02*
X74275000Y-50475000I0J200000D01*
G01*
X74275000Y-49925000D01*
G75*
G02*
X74475000Y-49725000I200000J0D01*
G01*
X74875000Y-49725000D01*
G75*
G02*
X75075000Y-49925000I0J-200000D01*
G01*
G37*
G36*
G01*
X76725000Y-49925000D02*
X76725000Y-50475000D01*
G75*
G02*
X76525000Y-50675000I-200000J0D01*
G01*
X76125000Y-50675000D01*
G75*
G02*
X75925000Y-50475000I0J200000D01*
G01*
X75925000Y-49925000D01*
G75*
G02*
X76125000Y-49725000I200000J0D01*
G01*
X76525000Y-49725000D01*
G75*
G02*
X76725000Y-49925000I0J-200000D01*
G01*
G37*
G36*
G01*
X75025000Y-51475000D02*
X75025000Y-52025000D01*
G75*
G02*
X74825000Y-52225000I-200000J0D01*
G01*
X74425000Y-52225000D01*
G75*
G02*
X74225000Y-52025000I0J200000D01*
G01*
X74225000Y-51475000D01*
G75*
G02*
X74425000Y-51275000I200000J0D01*
G01*
X74825000Y-51275000D01*
G75*
G02*
X75025000Y-51475000I0J-200000D01*
G01*
G37*
G36*
G01*
X76675000Y-51475000D02*
X76675000Y-52025000D01*
G75*
G02*
X76475000Y-52225000I-200000J0D01*
G01*
X76075000Y-52225000D01*
G75*
G02*
X75875000Y-52025000I0J200000D01*
G01*
X75875000Y-51475000D01*
G75*
G02*
X76075000Y-51275000I200000J0D01*
G01*
X76475000Y-51275000D01*
G75*
G02*
X76675000Y-51475000I0J-200000D01*
G01*
G37*
G36*
G01*
X71425000Y-53525000D02*
X71975000Y-53525000D01*
G75*
G02*
X72175000Y-53725000I0J-200000D01*
G01*
X72175000Y-54125000D01*
G75*
G02*
X71975000Y-54325000I-200000J0D01*
G01*
X71425000Y-54325000D01*
G75*
G02*
X71225000Y-54125000I0J200000D01*
G01*
X71225000Y-53725000D01*
G75*
G02*
X71425000Y-53525000I200000J0D01*
G01*
G37*
G36*
G01*
X71425000Y-51875000D02*
X71975000Y-51875000D01*
G75*
G02*
X72175000Y-52075000I0J-200000D01*
G01*
X72175000Y-52475000D01*
G75*
G02*
X71975000Y-52675000I-200000J0D01*
G01*
X71425000Y-52675000D01*
G75*
G02*
X71225000Y-52475000I0J200000D01*
G01*
X71225000Y-52075000D01*
G75*
G02*
X71425000Y-51875000I200000J0D01*
G01*
G37*
G36*
G01*
X75375000Y-45325000D02*
X75375000Y-45875000D01*
G75*
G02*
X75175000Y-46075000I-200000J0D01*
G01*
X74775000Y-46075000D01*
G75*
G02*
X74575000Y-45875000I0J200000D01*
G01*
X74575000Y-45325000D01*
G75*
G02*
X74775000Y-45125000I200000J0D01*
G01*
X75175000Y-45125000D01*
G75*
G02*
X75375000Y-45325000I0J-200000D01*
G01*
G37*
G36*
G01*
X77025000Y-45325000D02*
X77025000Y-45875000D01*
G75*
G02*
X76825000Y-46075000I-200000J0D01*
G01*
X76425000Y-46075000D01*
G75*
G02*
X76225000Y-45875000I0J200000D01*
G01*
X76225000Y-45325000D01*
G75*
G02*
X76425000Y-45125000I200000J0D01*
G01*
X76825000Y-45125000D01*
G75*
G02*
X77025000Y-45325000I0J-200000D01*
G01*
G37*
G36*
G01*
X72925000Y-53525000D02*
X73475000Y-53525000D01*
G75*
G02*
X73675000Y-53725000I0J-200000D01*
G01*
X73675000Y-54125000D01*
G75*
G02*
X73475000Y-54325000I-200000J0D01*
G01*
X72925000Y-54325000D01*
G75*
G02*
X72725000Y-54125000I0J200000D01*
G01*
X72725000Y-53725000D01*
G75*
G02*
X72925000Y-53525000I200000J0D01*
G01*
G37*
G36*
G01*
X72925000Y-51875000D02*
X73475000Y-51875000D01*
G75*
G02*
X73675000Y-52075000I0J-200000D01*
G01*
X73675000Y-52475000D01*
G75*
G02*
X73475000Y-52675000I-200000J0D01*
G01*
X72925000Y-52675000D01*
G75*
G02*
X72725000Y-52475000I0J200000D01*
G01*
X72725000Y-52075000D01*
G75*
G02*
X72925000Y-51875000I200000J0D01*
G01*
G37*
G36*
G01*
X72325000Y-55125000D02*
X72325000Y-55675000D01*
G75*
G02*
X72125000Y-55875000I-200000J0D01*
G01*
X71725000Y-55875000D01*
G75*
G02*
X71525000Y-55675000I0J200000D01*
G01*
X71525000Y-55125000D01*
G75*
G02*
X71725000Y-54925000I200000J0D01*
G01*
X72125000Y-54925000D01*
G75*
G02*
X72325000Y-55125000I0J-200000D01*
G01*
G37*
G36*
G01*
X73975000Y-55125000D02*
X73975000Y-55675000D01*
G75*
G02*
X73775000Y-55875000I-200000J0D01*
G01*
X73375000Y-55875000D01*
G75*
G02*
X73175000Y-55675000I0J200000D01*
G01*
X73175000Y-55125000D01*
G75*
G02*
X73375000Y-54925000I200000J0D01*
G01*
X73775000Y-54925000D01*
G75*
G02*
X73975000Y-55125000I0J-200000D01*
G01*
G37*
G36*
G01*
X73175000Y-57175000D02*
X73175000Y-56625000D01*
G75*
G02*
X73375000Y-56425000I200000J0D01*
G01*
X73775000Y-56425000D01*
G75*
G02*
X73975000Y-56625000I0J-200000D01*
G01*
X73975000Y-57175000D01*
G75*
G02*
X73775000Y-57375000I-200000J0D01*
G01*
X73375000Y-57375000D01*
G75*
G02*
X73175000Y-57175000I0J200000D01*
G01*
G37*
G36*
G01*
X71525000Y-57175000D02*
X71525000Y-56625000D01*
G75*
G02*
X71725000Y-56425000I200000J0D01*
G01*
X72125000Y-56425000D01*
G75*
G02*
X72325000Y-56625000I0J-200000D01*
G01*
X72325000Y-57175000D01*
G75*
G02*
X72125000Y-57375000I-200000J0D01*
G01*
X71725000Y-57375000D01*
G75*
G02*
X71525000Y-57175000I0J200000D01*
G01*
G37*
G36*
G01*
X72675000Y-47275000D02*
X72675000Y-46725000D01*
G75*
G02*
X72875000Y-46525000I200000J0D01*
G01*
X73275000Y-46525000D01*
G75*
G02*
X73475000Y-46725000I0J-200000D01*
G01*
X73475000Y-47275000D01*
G75*
G02*
X73275000Y-47475000I-200000J0D01*
G01*
X72875000Y-47475000D01*
G75*
G02*
X72675000Y-47275000I0J200000D01*
G01*
G37*
G36*
G01*
X71025000Y-47275000D02*
X71025000Y-46725000D01*
G75*
G02*
X71225000Y-46525000I200000J0D01*
G01*
X71625000Y-46525000D01*
G75*
G02*
X71825000Y-46725000I0J-200000D01*
G01*
X71825000Y-47275000D01*
G75*
G02*
X71625000Y-47475000I-200000J0D01*
G01*
X71225000Y-47475000D01*
G75*
G02*
X71025000Y-47275000I0J200000D01*
G01*
G37*
G36*
G01*
X82435000Y-48995000D02*
X81885000Y-48995000D01*
G75*
G02*
X81685000Y-48795000I0J200000D01*
G01*
X81685000Y-48395000D01*
G75*
G02*
X81885000Y-48195000I200000J0D01*
G01*
X82435000Y-48195000D01*
G75*
G02*
X82635000Y-48395000I0J-200000D01*
G01*
X82635000Y-48795000D01*
G75*
G02*
X82435000Y-48995000I-200000J0D01*
G01*
G37*
G36*
G01*
X82435000Y-50645000D02*
X81885000Y-50645000D01*
G75*
G02*
X81685000Y-50445000I0J200000D01*
G01*
X81685000Y-50045000D01*
G75*
G02*
X81885000Y-49845000I200000J0D01*
G01*
X82435000Y-49845000D01*
G75*
G02*
X82635000Y-50045000I0J-200000D01*
G01*
X82635000Y-50445000D01*
G75*
G02*
X82435000Y-50645000I-200000J0D01*
G01*
G37*
G36*
G01*
X82475000Y-52075000D02*
X81925000Y-52075000D01*
G75*
G02*
X81725000Y-51875000I0J200000D01*
G01*
X81725000Y-51475000D01*
G75*
G02*
X81925000Y-51275000I200000J0D01*
G01*
X82475000Y-51275000D01*
G75*
G02*
X82675000Y-51475000I0J-200000D01*
G01*
X82675000Y-51875000D01*
G75*
G02*
X82475000Y-52075000I-200000J0D01*
G01*
G37*
G36*
G01*
X82475000Y-53725000D02*
X81925000Y-53725000D01*
G75*
G02*
X81725000Y-53525000I0J200000D01*
G01*
X81725000Y-53125000D01*
G75*
G02*
X81925000Y-52925000I200000J0D01*
G01*
X82475000Y-52925000D01*
G75*
G02*
X82675000Y-53125000I0J-200000D01*
G01*
X82675000Y-53525000D01*
G75*
G02*
X82475000Y-53725000I-200000J0D01*
G01*
G37*
G36*
G01*
X78885000Y-53445000D02*
X79435000Y-53445000D01*
G75*
G02*
X79635000Y-53645000I0J-200000D01*
G01*
X79635000Y-54045000D01*
G75*
G02*
X79435000Y-54245000I-200000J0D01*
G01*
X78885000Y-54245000D01*
G75*
G02*
X78685000Y-54045000I0J200000D01*
G01*
X78685000Y-53645000D01*
G75*
G02*
X78885000Y-53445000I200000J0D01*
G01*
G37*
G36*
G01*
X78885000Y-51795000D02*
X79435000Y-51795000D01*
G75*
G02*
X79635000Y-51995000I0J-200000D01*
G01*
X79635000Y-52395000D01*
G75*
G02*
X79435000Y-52595000I-200000J0D01*
G01*
X78885000Y-52595000D01*
G75*
G02*
X78685000Y-52395000I0J200000D01*
G01*
X78685000Y-51995000D01*
G75*
G02*
X78885000Y-51795000I200000J0D01*
G01*
G37*
G36*
G01*
X80085000Y-45695000D02*
X80085000Y-45145000D01*
G75*
G02*
X80285000Y-44945000I200000J0D01*
G01*
X80685000Y-44945000D01*
G75*
G02*
X80885000Y-45145000I0J-200000D01*
G01*
X80885000Y-45695000D01*
G75*
G02*
X80685000Y-45895000I-200000J0D01*
G01*
X80285000Y-45895000D01*
G75*
G02*
X80085000Y-45695000I0J200000D01*
G01*
G37*
G36*
G01*
X78435000Y-45695000D02*
X78435000Y-45145000D01*
G75*
G02*
X78635000Y-44945000I200000J0D01*
G01*
X79035000Y-44945000D01*
G75*
G02*
X79235000Y-45145000I0J-200000D01*
G01*
X79235000Y-45695000D01*
G75*
G02*
X79035000Y-45895000I-200000J0D01*
G01*
X78635000Y-45895000D01*
G75*
G02*
X78435000Y-45695000I0J200000D01*
G01*
G37*
G36*
G01*
X80385000Y-53445000D02*
X80935000Y-53445000D01*
G75*
G02*
X81135000Y-53645000I0J-200000D01*
G01*
X81135000Y-54045000D01*
G75*
G02*
X80935000Y-54245000I-200000J0D01*
G01*
X80385000Y-54245000D01*
G75*
G02*
X80185000Y-54045000I0J200000D01*
G01*
X80185000Y-53645000D01*
G75*
G02*
X80385000Y-53445000I200000J0D01*
G01*
G37*
G36*
G01*
X80385000Y-51795000D02*
X80935000Y-51795000D01*
G75*
G02*
X81135000Y-51995000I0J-200000D01*
G01*
X81135000Y-52395000D01*
G75*
G02*
X80935000Y-52595000I-200000J0D01*
G01*
X80385000Y-52595000D01*
G75*
G02*
X80185000Y-52395000I0J200000D01*
G01*
X80185000Y-51995000D01*
G75*
G02*
X80385000Y-51795000I200000J0D01*
G01*
G37*
G36*
G01*
X79735000Y-54995000D02*
X79735000Y-55545000D01*
G75*
G02*
X79535000Y-55745000I-200000J0D01*
G01*
X79135000Y-55745000D01*
G75*
G02*
X78935000Y-55545000I0J200000D01*
G01*
X78935000Y-54995000D01*
G75*
G02*
X79135000Y-54795000I200000J0D01*
G01*
X79535000Y-54795000D01*
G75*
G02*
X79735000Y-54995000I0J-200000D01*
G01*
G37*
G36*
G01*
X81385000Y-54995000D02*
X81385000Y-55545000D01*
G75*
G02*
X81185000Y-55745000I-200000J0D01*
G01*
X80785000Y-55745000D01*
G75*
G02*
X80585000Y-55545000I0J200000D01*
G01*
X80585000Y-54995000D01*
G75*
G02*
X80785000Y-54795000I200000J0D01*
G01*
X81185000Y-54795000D01*
G75*
G02*
X81385000Y-54995000I0J-200000D01*
G01*
G37*
G36*
G01*
X80585000Y-57045000D02*
X80585000Y-56495000D01*
G75*
G02*
X80785000Y-56295000I200000J0D01*
G01*
X81185000Y-56295000D01*
G75*
G02*
X81385000Y-56495000I0J-200000D01*
G01*
X81385000Y-57045000D01*
G75*
G02*
X81185000Y-57245000I-200000J0D01*
G01*
X80785000Y-57245000D01*
G75*
G02*
X80585000Y-57045000I0J200000D01*
G01*
G37*
G36*
G01*
X78935000Y-57045000D02*
X78935000Y-56495000D01*
G75*
G02*
X79135000Y-56295000I200000J0D01*
G01*
X79535000Y-56295000D01*
G75*
G02*
X79735000Y-56495000I0J-200000D01*
G01*
X79735000Y-57045000D01*
G75*
G02*
X79535000Y-57245000I-200000J0D01*
G01*
X79135000Y-57245000D01*
G75*
G02*
X78935000Y-57045000I0J200000D01*
G01*
G37*
G36*
G01*
X80085000Y-47195000D02*
X80085000Y-46645000D01*
G75*
G02*
X80285000Y-46445000I200000J0D01*
G01*
X80685000Y-46445000D01*
G75*
G02*
X80885000Y-46645000I0J-200000D01*
G01*
X80885000Y-47195000D01*
G75*
G02*
X80685000Y-47395000I-200000J0D01*
G01*
X80285000Y-47395000D01*
G75*
G02*
X80085000Y-47195000I0J200000D01*
G01*
G37*
G36*
G01*
X78435000Y-47195000D02*
X78435000Y-46645000D01*
G75*
G02*
X78635000Y-46445000I200000J0D01*
G01*
X79035000Y-46445000D01*
G75*
G02*
X79235000Y-46645000I0J-200000D01*
G01*
X79235000Y-47195000D01*
G75*
G02*
X79035000Y-47395000I-200000J0D01*
G01*
X78635000Y-47395000D01*
G75*
G02*
X78435000Y-47195000I0J200000D01*
G01*
G37*
G36*
G01*
X61250000Y-47825000D02*
X61750000Y-47825000D01*
G75*
G02*
X61975000Y-48050000I0J-225000D01*
G01*
X61975000Y-48500000D01*
G75*
G02*
X61750000Y-48725000I-225000J0D01*
G01*
X61250000Y-48725000D01*
G75*
G02*
X61025000Y-48500000I0J225000D01*
G01*
X61025000Y-48050000D01*
G75*
G02*
X61250000Y-47825000I225000J0D01*
G01*
G37*
G36*
G01*
X61250000Y-46275000D02*
X61750000Y-46275000D01*
G75*
G02*
X61975000Y-46500000I0J-225000D01*
G01*
X61975000Y-46950000D01*
G75*
G02*
X61750000Y-47175000I-225000J0D01*
G01*
X61250000Y-47175000D01*
G75*
G02*
X61025000Y-46950000I0J225000D01*
G01*
X61025000Y-46500000D01*
G75*
G02*
X61250000Y-46275000I225000J0D01*
G01*
G37*
G36*
G01*
X59750000Y-47825000D02*
X60250000Y-47825000D01*
G75*
G02*
X60475000Y-48050000I0J-225000D01*
G01*
X60475000Y-48500000D01*
G75*
G02*
X60250000Y-48725000I-225000J0D01*
G01*
X59750000Y-48725000D01*
G75*
G02*
X59525000Y-48500000I0J225000D01*
G01*
X59525000Y-48050000D01*
G75*
G02*
X59750000Y-47825000I225000J0D01*
G01*
G37*
G36*
G01*
X59750000Y-46275000D02*
X60250000Y-46275000D01*
G75*
G02*
X60475000Y-46500000I0J-225000D01*
G01*
X60475000Y-46950000D01*
G75*
G02*
X60250000Y-47175000I-225000J0D01*
G01*
X59750000Y-47175000D01*
G75*
G02*
X59525000Y-46950000I0J225000D01*
G01*
X59525000Y-46500000D01*
G75*
G02*
X59750000Y-46275000I225000J0D01*
G01*
G37*
G36*
G01*
X68575000Y-46250000D02*
X68575000Y-45750000D01*
G75*
G02*
X68800000Y-45525000I225000J0D01*
G01*
X69250000Y-45525000D01*
G75*
G02*
X69475000Y-45750000I0J-225000D01*
G01*
X69475000Y-46250000D01*
G75*
G02*
X69250000Y-46475000I-225000J0D01*
G01*
X68800000Y-46475000D01*
G75*
G02*
X68575000Y-46250000I0J225000D01*
G01*
G37*
G36*
G01*
X67025000Y-46250000D02*
X67025000Y-45750000D01*
G75*
G02*
X67250000Y-45525000I225000J0D01*
G01*
X67700000Y-45525000D01*
G75*
G02*
X67925000Y-45750000I0J-225000D01*
G01*
X67925000Y-46250000D01*
G75*
G02*
X67700000Y-46475000I-225000J0D01*
G01*
X67250000Y-46475000D01*
G75*
G02*
X67025000Y-46250000I0J225000D01*
G01*
G37*
G36*
G01*
X68380000Y-48815000D02*
X68880000Y-48815000D01*
G75*
G02*
X69105000Y-49040000I0J-225000D01*
G01*
X69105000Y-49490000D01*
G75*
G02*
X68880000Y-49715000I-225000J0D01*
G01*
X68380000Y-49715000D01*
G75*
G02*
X68155000Y-49490000I0J225000D01*
G01*
X68155000Y-49040000D01*
G75*
G02*
X68380000Y-48815000I225000J0D01*
G01*
G37*
G36*
G01*
X68380000Y-47265000D02*
X68880000Y-47265000D01*
G75*
G02*
X69105000Y-47490000I0J-225000D01*
G01*
X69105000Y-47940000D01*
G75*
G02*
X68880000Y-48165000I-225000J0D01*
G01*
X68380000Y-48165000D01*
G75*
G02*
X68155000Y-47940000I0J225000D01*
G01*
X68155000Y-47490000D01*
G75*
G02*
X68380000Y-47265000I225000J0D01*
G01*
G37*
G36*
G01*
X74975000Y-46850000D02*
X74975000Y-47350000D01*
G75*
G02*
X74750000Y-47575000I-225000J0D01*
G01*
X74300000Y-47575000D01*
G75*
G02*
X74075000Y-47350000I0J225000D01*
G01*
X74075000Y-46850000D01*
G75*
G02*
X74300000Y-46625000I225000J0D01*
G01*
X74750000Y-46625000D01*
G75*
G02*
X74975000Y-46850000I0J-225000D01*
G01*
G37*
G36*
G01*
X76525000Y-46850000D02*
X76525000Y-47350000D01*
G75*
G02*
X76300000Y-47575000I-225000J0D01*
G01*
X75850000Y-47575000D01*
G75*
G02*
X75625000Y-47350000I0J225000D01*
G01*
X75625000Y-46850000D01*
G75*
G02*
X75850000Y-46625000I225000J0D01*
G01*
X76300000Y-46625000D01*
G75*
G02*
X76525000Y-46850000I0J-225000D01*
G01*
G37*
G36*
G01*
X75125000Y-53050000D02*
X75125000Y-53550000D01*
G75*
G02*
X74900000Y-53775000I-225000J0D01*
G01*
X74450000Y-53775000D01*
G75*
G02*
X74225000Y-53550000I0J225000D01*
G01*
X74225000Y-53050000D01*
G75*
G02*
X74450000Y-52825000I225000J0D01*
G01*
X74900000Y-52825000D01*
G75*
G02*
X75125000Y-53050000I0J-225000D01*
G01*
G37*
G36*
G01*
X76675000Y-53050000D02*
X76675000Y-53550000D01*
G75*
G02*
X76450000Y-53775000I-225000J0D01*
G01*
X76000000Y-53775000D01*
G75*
G02*
X75775000Y-53550000I0J225000D01*
G01*
X75775000Y-53050000D01*
G75*
G02*
X76000000Y-52825000I225000J0D01*
G01*
X76450000Y-52825000D01*
G75*
G02*
X76675000Y-53050000I0J-225000D01*
G01*
G37*
G36*
G01*
X69950000Y-53425000D02*
X70450000Y-53425000D01*
G75*
G02*
X70675000Y-53650000I0J-225000D01*
G01*
X70675000Y-54100000D01*
G75*
G02*
X70450000Y-54325000I-225000J0D01*
G01*
X69950000Y-54325000D01*
G75*
G02*
X69725000Y-54100000I0J225000D01*
G01*
X69725000Y-53650000D01*
G75*
G02*
X69950000Y-53425000I225000J0D01*
G01*
G37*
G36*
G01*
X69950000Y-51875000D02*
X70450000Y-51875000D01*
G75*
G02*
X70675000Y-52100000I0J-225000D01*
G01*
X70675000Y-52550000D01*
G75*
G02*
X70450000Y-52775000I-225000J0D01*
G01*
X69950000Y-52775000D01*
G75*
G02*
X69725000Y-52550000I0J225000D01*
G01*
X69725000Y-52100000D01*
G75*
G02*
X69950000Y-51875000I225000J0D01*
G01*
G37*
G36*
G01*
X82375000Y-46450000D02*
X82375000Y-46950000D01*
G75*
G02*
X82150000Y-47175000I-225000J0D01*
G01*
X81700000Y-47175000D01*
G75*
G02*
X81475000Y-46950000I0J225000D01*
G01*
X81475000Y-46450000D01*
G75*
G02*
X81700000Y-46225000I225000J0D01*
G01*
X82150000Y-46225000D01*
G75*
G02*
X82375000Y-46450000I0J-225000D01*
G01*
G37*
G36*
G01*
X83925000Y-46450000D02*
X83925000Y-46950000D01*
G75*
G02*
X83700000Y-47175000I-225000J0D01*
G01*
X83250000Y-47175000D01*
G75*
G02*
X83025000Y-46950000I0J225000D01*
G01*
X83025000Y-46450000D01*
G75*
G02*
X83250000Y-46225000I225000J0D01*
G01*
X83700000Y-46225000D01*
G75*
G02*
X83925000Y-46450000I0J-225000D01*
G01*
G37*
G36*
G01*
X83950000Y-52175000D02*
X83450000Y-52175000D01*
G75*
G02*
X83225000Y-51950000I0J225000D01*
G01*
X83225000Y-51500000D01*
G75*
G02*
X83450000Y-51275000I225000J0D01*
G01*
X83950000Y-51275000D01*
G75*
G02*
X84175000Y-51500000I0J-225000D01*
G01*
X84175000Y-51950000D01*
G75*
G02*
X83950000Y-52175000I-225000J0D01*
G01*
G37*
G36*
G01*
X83950000Y-53725000D02*
X83450000Y-53725000D01*
G75*
G02*
X83225000Y-53500000I0J225000D01*
G01*
X83225000Y-53050000D01*
G75*
G02*
X83450000Y-52825000I225000J0D01*
G01*
X83950000Y-52825000D01*
G75*
G02*
X84175000Y-53050000I0J-225000D01*
G01*
X84175000Y-53500000D01*
G75*
G02*
X83950000Y-53725000I-225000J0D01*
G01*
G37*
G36*
G01*
X77410000Y-53345000D02*
X77910000Y-53345000D01*
G75*
G02*
X78135000Y-53570000I0J-225000D01*
G01*
X78135000Y-54020000D01*
G75*
G02*
X77910000Y-54245000I-225000J0D01*
G01*
X77410000Y-54245000D01*
G75*
G02*
X77185000Y-54020000I0J225000D01*
G01*
X77185000Y-53570000D01*
G75*
G02*
X77410000Y-53345000I225000J0D01*
G01*
G37*
G36*
G01*
X77410000Y-51795000D02*
X77910000Y-51795000D01*
G75*
G02*
X78135000Y-52020000I0J-225000D01*
G01*
X78135000Y-52470000D01*
G75*
G02*
X77910000Y-52695000I-225000J0D01*
G01*
X77410000Y-52695000D01*
G75*
G02*
X77185000Y-52470000I0J225000D01*
G01*
X77185000Y-52020000D01*
G75*
G02*
X77410000Y-51795000I225000J0D01*
G01*
G37*
G36*
G01*
X124425000Y-57450000D02*
X124425000Y-56950000D01*
G75*
G02*
X124650000Y-56725000I225000J0D01*
G01*
X125100000Y-56725000D01*
G75*
G02*
X125325000Y-56950000I0J-225000D01*
G01*
X125325000Y-57450000D01*
G75*
G02*
X125100000Y-57675000I-225000J0D01*
G01*
X124650000Y-57675000D01*
G75*
G02*
X124425000Y-57450000I0J225000D01*
G01*
G37*
G36*
G01*
X122875000Y-57450000D02*
X122875000Y-56950000D01*
G75*
G02*
X123100000Y-56725000I225000J0D01*
G01*
X123550000Y-56725000D01*
G75*
G02*
X123775000Y-56950000I0J-225000D01*
G01*
X123775000Y-57450000D01*
G75*
G02*
X123550000Y-57675000I-225000J0D01*
G01*
X123100000Y-57675000D01*
G75*
G02*
X122875000Y-57450000I0J225000D01*
G01*
G37*
D15*
X124290000Y-64080000D03*
X124290000Y-59480000D03*
X124290000Y-61780000D03*
D16*
X117990000Y-61780000D03*
D17*
X45000000Y-40000000D03*
X45000000Y-105000000D03*
X135000000Y-105000000D03*
X135000000Y-40000000D03*
G36*
G01*
X111347500Y-97819998D02*
X111347500Y-98720002D01*
G75*
G02*
X111097502Y-98970000I-249998J0D01*
G01*
X110572498Y-98970000D01*
G75*
G02*
X110322500Y-98720002I0J249998D01*
G01*
X110322500Y-97819998D01*
G75*
G02*
X110572498Y-97570000I249998J0D01*
G01*
X111097502Y-97570000D01*
G75*
G02*
X111347500Y-97819998I0J-249998D01*
G01*
G37*
G36*
G01*
X113172500Y-97819998D02*
X113172500Y-98720002D01*
G75*
G02*
X112922502Y-98970000I-249998J0D01*
G01*
X112397498Y-98970000D01*
G75*
G02*
X112147500Y-98720002I0J249998D01*
G01*
X112147500Y-97819998D01*
G75*
G02*
X112397498Y-97570000I249998J0D01*
G01*
X112922502Y-97570000D01*
G75*
G02*
X113172500Y-97819998I0J-249998D01*
G01*
G37*
G36*
G01*
X116757000Y-96269000D02*
X116757000Y-96019000D01*
G75*
G02*
X116882000Y-95894000I125000J0D01*
G01*
X118057000Y-95894000D01*
G75*
G02*
X118182000Y-96019000I0J-125000D01*
G01*
X118182000Y-96269000D01*
G75*
G02*
X118057000Y-96394000I-125000J0D01*
G01*
X116882000Y-96394000D01*
G75*
G02*
X116757000Y-96269000I0J125000D01*
G01*
G37*
G36*
G01*
X116757000Y-97219000D02*
X116757000Y-96969000D01*
G75*
G02*
X116882000Y-96844000I125000J0D01*
G01*
X118057000Y-96844000D01*
G75*
G02*
X118182000Y-96969000I0J-125000D01*
G01*
X118182000Y-97219000D01*
G75*
G02*
X118057000Y-97344000I-125000J0D01*
G01*
X116882000Y-97344000D01*
G75*
G02*
X116757000Y-97219000I0J125000D01*
G01*
G37*
G36*
G01*
X116757000Y-98169000D02*
X116757000Y-97919000D01*
G75*
G02*
X116882000Y-97794000I125000J0D01*
G01*
X118057000Y-97794000D01*
G75*
G02*
X118182000Y-97919000I0J-125000D01*
G01*
X118182000Y-98169000D01*
G75*
G02*
X118057000Y-98294000I-125000J0D01*
G01*
X116882000Y-98294000D01*
G75*
G02*
X116757000Y-98169000I0J125000D01*
G01*
G37*
G36*
G01*
X114482000Y-98169000D02*
X114482000Y-97919000D01*
G75*
G02*
X114607000Y-97794000I125000J0D01*
G01*
X115782000Y-97794000D01*
G75*
G02*
X115907000Y-97919000I0J-125000D01*
G01*
X115907000Y-98169000D01*
G75*
G02*
X115782000Y-98294000I-125000J0D01*
G01*
X114607000Y-98294000D01*
G75*
G02*
X114482000Y-98169000I0J125000D01*
G01*
G37*
G36*
G01*
X114482000Y-97219000D02*
X114482000Y-96969000D01*
G75*
G02*
X114607000Y-96844000I125000J0D01*
G01*
X115782000Y-96844000D01*
G75*
G02*
X115907000Y-96969000I0J-125000D01*
G01*
X115907000Y-97219000D01*
G75*
G02*
X115782000Y-97344000I-125000J0D01*
G01*
X114607000Y-97344000D01*
G75*
G02*
X114482000Y-97219000I0J125000D01*
G01*
G37*
G36*
G01*
X114482000Y-96269000D02*
X114482000Y-96019000D01*
G75*
G02*
X114607000Y-95894000I125000J0D01*
G01*
X115782000Y-95894000D01*
G75*
G02*
X115907000Y-96019000I0J-125000D01*
G01*
X115907000Y-96269000D01*
G75*
G02*
X115782000Y-96394000I-125000J0D01*
G01*
X114607000Y-96394000D01*
G75*
G02*
X114482000Y-96269000I0J125000D01*
G01*
G37*
G36*
G01*
X106155000Y-100740000D02*
X106155000Y-101240000D01*
G75*
G02*
X105930000Y-101465000I-225000J0D01*
G01*
X105480000Y-101465000D01*
G75*
G02*
X105255000Y-101240000I0J225000D01*
G01*
X105255000Y-100740000D01*
G75*
G02*
X105480000Y-100515000I225000J0D01*
G01*
X105930000Y-100515000D01*
G75*
G02*
X106155000Y-100740000I0J-225000D01*
G01*
G37*
G36*
G01*
X107705000Y-100740000D02*
X107705000Y-101240000D01*
G75*
G02*
X107480000Y-101465000I-225000J0D01*
G01*
X107030000Y-101465000D01*
G75*
G02*
X106805000Y-101240000I0J225000D01*
G01*
X106805000Y-100740000D01*
G75*
G02*
X107030000Y-100515000I225000J0D01*
G01*
X107480000Y-100515000D01*
G75*
G02*
X107705000Y-100740000I0J-225000D01*
G01*
G37*
D18*
X134000000Y-75000000D03*
X134000000Y-81000000D03*
D19*
X57975000Y-105250000D03*
X57975000Y-100750000D03*
X50025000Y-100750000D03*
X50025000Y-105250000D03*
D18*
X134000000Y-87500000D03*
G36*
G01*
X94270000Y-100015000D02*
X94270000Y-100385000D01*
G75*
G02*
X94135000Y-100520000I-135000J0D01*
G01*
X93865000Y-100520000D01*
G75*
G02*
X93730000Y-100385000I0J135000D01*
G01*
X93730000Y-100015000D01*
G75*
G02*
X93865000Y-99880000I135000J0D01*
G01*
X94135000Y-99880000D01*
G75*
G02*
X94270000Y-100015000I0J-135000D01*
G01*
G37*
G36*
G01*
X95290000Y-100015000D02*
X95290000Y-100385000D01*
G75*
G02*
X95155000Y-100520000I-135000J0D01*
G01*
X94885000Y-100520000D01*
G75*
G02*
X94750000Y-100385000I0J135000D01*
G01*
X94750000Y-100015000D01*
G75*
G02*
X94885000Y-99880000I135000J0D01*
G01*
X95155000Y-99880000D01*
G75*
G02*
X95290000Y-100015000I0J-135000D01*
G01*
G37*
G36*
G01*
X94260000Y-99015000D02*
X94260000Y-99385000D01*
G75*
G02*
X94125000Y-99520000I-135000J0D01*
G01*
X93855000Y-99520000D01*
G75*
G02*
X93720000Y-99385000I0J135000D01*
G01*
X93720000Y-99015000D01*
G75*
G02*
X93855000Y-98880000I135000J0D01*
G01*
X94125000Y-98880000D01*
G75*
G02*
X94260000Y-99015000I0J-135000D01*
G01*
G37*
G36*
G01*
X95280000Y-99015000D02*
X95280000Y-99385000D01*
G75*
G02*
X95145000Y-99520000I-135000J0D01*
G01*
X94875000Y-99520000D01*
G75*
G02*
X94740000Y-99385000I0J135000D01*
G01*
X94740000Y-99015000D01*
G75*
G02*
X94875000Y-98880000I135000J0D01*
G01*
X95145000Y-98880000D01*
G75*
G02*
X95280000Y-99015000I0J-135000D01*
G01*
G37*
D10*
G36*
X75260368Y-90073559D02*
G01*
X75246299Y-90069291D01*
X75233332Y-90062360D01*
X75221967Y-90053033D01*
X75212640Y-90041668D01*
X75205709Y-90028701D01*
X75201441Y-90014632D01*
X75200000Y-90000000D01*
X75200000Y-89525000D01*
X75201441Y-89510368D01*
X75205709Y-89496299D01*
X75212640Y-89483332D01*
X75221967Y-89471967D01*
X75233332Y-89462640D01*
X75246299Y-89455709D01*
X75260368Y-89451441D01*
X75275000Y-89450000D01*
X75318934Y-89450000D01*
X75333566Y-89451441D01*
X75347635Y-89455709D01*
X75360602Y-89462640D01*
X75371967Y-89471967D01*
X75578033Y-89678033D01*
X75587360Y-89689398D01*
X75594291Y-89702365D01*
X75598559Y-89716434D01*
X75600000Y-89731066D01*
X75600000Y-90000000D01*
X75598559Y-90014632D01*
X75594291Y-90028701D01*
X75587360Y-90041668D01*
X75578033Y-90053033D01*
X75566668Y-90062360D01*
X75553701Y-90069291D01*
X75539632Y-90073559D01*
X75525000Y-90075000D01*
X75275000Y-90075000D01*
X75260368Y-90073559D01*
G37*
G36*
G01*
X75100000Y-89550000D02*
X75100000Y-89975000D01*
G75*
G02*
X75000000Y-90075000I-100000J0D01*
G01*
X74800000Y-90075000D01*
G75*
G02*
X74700000Y-89975000I0J100000D01*
G01*
X74700000Y-89550000D01*
G75*
G02*
X74800000Y-89450000I100000J0D01*
G01*
X75000000Y-89450000D01*
G75*
G02*
X75100000Y-89550000I0J-100000D01*
G01*
G37*
G36*
X74260368Y-90073559D02*
G01*
X74246299Y-90069291D01*
X74233332Y-90062360D01*
X74221967Y-90053033D01*
X74212640Y-90041668D01*
X74205709Y-90028701D01*
X74201441Y-90014632D01*
X74200000Y-90000000D01*
X74200000Y-89731066D01*
X74201441Y-89716434D01*
X74205709Y-89702365D01*
X74212640Y-89689398D01*
X74221967Y-89678033D01*
X74428033Y-89471967D01*
X74439398Y-89462640D01*
X74452365Y-89455709D01*
X74466434Y-89451441D01*
X74481066Y-89450000D01*
X74525000Y-89450000D01*
X74539632Y-89451441D01*
X74553701Y-89455709D01*
X74566668Y-89462640D01*
X74578033Y-89471967D01*
X74587360Y-89483332D01*
X74594291Y-89496299D01*
X74598559Y-89510368D01*
X74600000Y-89525000D01*
X74600000Y-90000000D01*
X74598559Y-90014632D01*
X74594291Y-90028701D01*
X74587360Y-90041668D01*
X74578033Y-90053033D01*
X74566668Y-90062360D01*
X74553701Y-90069291D01*
X74539632Y-90073559D01*
X74525000Y-90075000D01*
X74275000Y-90075000D01*
X74260368Y-90073559D01*
G37*
G36*
X73485368Y-89798559D02*
G01*
X73471299Y-89794291D01*
X73458332Y-89787360D01*
X73446967Y-89778033D01*
X73437640Y-89766668D01*
X73430709Y-89753701D01*
X73426441Y-89739632D01*
X73425000Y-89725000D01*
X73425000Y-89475000D01*
X73426441Y-89460368D01*
X73430709Y-89446299D01*
X73437640Y-89433332D01*
X73446967Y-89421967D01*
X73458332Y-89412640D01*
X73471299Y-89405709D01*
X73485368Y-89401441D01*
X73500000Y-89400000D01*
X73975000Y-89400000D01*
X73989632Y-89401441D01*
X74003701Y-89405709D01*
X74016668Y-89412640D01*
X74028033Y-89421967D01*
X74037360Y-89433332D01*
X74044291Y-89446299D01*
X74048559Y-89460368D01*
X74050000Y-89475000D01*
X74050000Y-89518934D01*
X74048559Y-89533566D01*
X74044291Y-89547635D01*
X74037360Y-89560602D01*
X74028033Y-89571967D01*
X73821967Y-89778033D01*
X73810602Y-89787360D01*
X73797635Y-89794291D01*
X73783566Y-89798559D01*
X73768934Y-89800000D01*
X73500000Y-89800000D01*
X73485368Y-89798559D01*
G37*
G36*
G01*
X74050000Y-89000000D02*
X74050000Y-89200000D01*
G75*
G02*
X73950000Y-89300000I-100000J0D01*
G01*
X73525000Y-89300000D01*
G75*
G02*
X73425000Y-89200000I0J100000D01*
G01*
X73425000Y-89000000D01*
G75*
G02*
X73525000Y-88900000I100000J0D01*
G01*
X73950000Y-88900000D01*
G75*
G02*
X74050000Y-89000000I0J-100000D01*
G01*
G37*
G36*
G01*
X74050000Y-88500000D02*
X74050000Y-88700000D01*
G75*
G02*
X73950000Y-88800000I-100000J0D01*
G01*
X73525000Y-88800000D01*
G75*
G02*
X73425000Y-88700000I0J100000D01*
G01*
X73425000Y-88500000D01*
G75*
G02*
X73525000Y-88400000I100000J0D01*
G01*
X73950000Y-88400000D01*
G75*
G02*
X74050000Y-88500000I0J-100000D01*
G01*
G37*
G36*
X73485368Y-88298559D02*
G01*
X73471299Y-88294291D01*
X73458332Y-88287360D01*
X73446967Y-88278033D01*
X73437640Y-88266668D01*
X73430709Y-88253701D01*
X73426441Y-88239632D01*
X73425000Y-88225000D01*
X73425000Y-87975000D01*
X73426441Y-87960368D01*
X73430709Y-87946299D01*
X73437640Y-87933332D01*
X73446967Y-87921967D01*
X73458332Y-87912640D01*
X73471299Y-87905709D01*
X73485368Y-87901441D01*
X73500000Y-87900000D01*
X73768934Y-87900000D01*
X73783566Y-87901441D01*
X73797635Y-87905709D01*
X73810602Y-87912640D01*
X73821967Y-87921967D01*
X74028033Y-88128033D01*
X74037360Y-88139398D01*
X74044291Y-88152365D01*
X74048559Y-88166434D01*
X74050000Y-88181066D01*
X74050000Y-88225000D01*
X74048559Y-88239632D01*
X74044291Y-88253701D01*
X74037360Y-88266668D01*
X74028033Y-88278033D01*
X74016668Y-88287360D01*
X74003701Y-88294291D01*
X73989632Y-88298559D01*
X73975000Y-88300000D01*
X73500000Y-88300000D01*
X73485368Y-88298559D01*
G37*
G36*
X74466434Y-88248559D02*
G01*
X74452365Y-88244291D01*
X74439398Y-88237360D01*
X74428033Y-88228033D01*
X74221967Y-88021967D01*
X74212640Y-88010602D01*
X74205709Y-87997635D01*
X74201441Y-87983566D01*
X74200000Y-87968934D01*
X74200000Y-87700000D01*
X74201441Y-87685368D01*
X74205709Y-87671299D01*
X74212640Y-87658332D01*
X74221967Y-87646967D01*
X74233332Y-87637640D01*
X74246299Y-87630709D01*
X74260368Y-87626441D01*
X74275000Y-87625000D01*
X74525000Y-87625000D01*
X74539632Y-87626441D01*
X74553701Y-87630709D01*
X74566668Y-87637640D01*
X74578033Y-87646967D01*
X74587360Y-87658332D01*
X74594291Y-87671299D01*
X74598559Y-87685368D01*
X74600000Y-87700000D01*
X74600000Y-88175000D01*
X74598559Y-88189632D01*
X74594291Y-88203701D01*
X74587360Y-88216668D01*
X74578033Y-88228033D01*
X74566668Y-88237360D01*
X74553701Y-88244291D01*
X74539632Y-88248559D01*
X74525000Y-88250000D01*
X74481066Y-88250000D01*
X74466434Y-88248559D01*
G37*
G36*
G01*
X75100000Y-87725000D02*
X75100000Y-88150000D01*
G75*
G02*
X75000000Y-88250000I-100000J0D01*
G01*
X74800000Y-88250000D01*
G75*
G02*
X74700000Y-88150000I0J100000D01*
G01*
X74700000Y-87725000D01*
G75*
G02*
X74800000Y-87625000I100000J0D01*
G01*
X75000000Y-87625000D01*
G75*
G02*
X75100000Y-87725000I0J-100000D01*
G01*
G37*
G36*
X75260368Y-88248559D02*
G01*
X75246299Y-88244291D01*
X75233332Y-88237360D01*
X75221967Y-88228033D01*
X75212640Y-88216668D01*
X75205709Y-88203701D01*
X75201441Y-88189632D01*
X75200000Y-88175000D01*
X75200000Y-87700000D01*
X75201441Y-87685368D01*
X75205709Y-87671299D01*
X75212640Y-87658332D01*
X75221967Y-87646967D01*
X75233332Y-87637640D01*
X75246299Y-87630709D01*
X75260368Y-87626441D01*
X75275000Y-87625000D01*
X75525000Y-87625000D01*
X75539632Y-87626441D01*
X75553701Y-87630709D01*
X75566668Y-87637640D01*
X75578033Y-87646967D01*
X75587360Y-87658332D01*
X75594291Y-87671299D01*
X75598559Y-87685368D01*
X75600000Y-87700000D01*
X75600000Y-87968934D01*
X75598559Y-87983566D01*
X75594291Y-87997635D01*
X75587360Y-88010602D01*
X75578033Y-88021967D01*
X75371967Y-88228033D01*
X75360602Y-88237360D01*
X75347635Y-88244291D01*
X75333566Y-88248559D01*
X75318934Y-88250000D01*
X75275000Y-88250000D01*
X75260368Y-88248559D01*
G37*
G36*
X75810368Y-88298559D02*
G01*
X75796299Y-88294291D01*
X75783332Y-88287360D01*
X75771967Y-88278033D01*
X75762640Y-88266668D01*
X75755709Y-88253701D01*
X75751441Y-88239632D01*
X75750000Y-88225000D01*
X75750000Y-88181066D01*
X75751441Y-88166434D01*
X75755709Y-88152365D01*
X75762640Y-88139398D01*
X75771967Y-88128033D01*
X75978033Y-87921967D01*
X75989398Y-87912640D01*
X76002365Y-87905709D01*
X76016434Y-87901441D01*
X76031066Y-87900000D01*
X76300000Y-87900000D01*
X76314632Y-87901441D01*
X76328701Y-87905709D01*
X76341668Y-87912640D01*
X76353033Y-87921967D01*
X76362360Y-87933332D01*
X76369291Y-87946299D01*
X76373559Y-87960368D01*
X76375000Y-87975000D01*
X76375000Y-88225000D01*
X76373559Y-88239632D01*
X76369291Y-88253701D01*
X76362360Y-88266668D01*
X76353033Y-88278033D01*
X76341668Y-88287360D01*
X76328701Y-88294291D01*
X76314632Y-88298559D01*
X76300000Y-88300000D01*
X75825000Y-88300000D01*
X75810368Y-88298559D01*
G37*
G36*
G01*
X76375000Y-88500000D02*
X76375000Y-88700000D01*
G75*
G02*
X76275000Y-88800000I-100000J0D01*
G01*
X75850000Y-88800000D01*
G75*
G02*
X75750000Y-88700000I0J100000D01*
G01*
X75750000Y-88500000D01*
G75*
G02*
X75850000Y-88400000I100000J0D01*
G01*
X76275000Y-88400000D01*
G75*
G02*
X76375000Y-88500000I0J-100000D01*
G01*
G37*
G36*
G01*
X76375000Y-89000000D02*
X76375000Y-89200000D01*
G75*
G02*
X76275000Y-89300000I-100000J0D01*
G01*
X75850000Y-89300000D01*
G75*
G02*
X75750000Y-89200000I0J100000D01*
G01*
X75750000Y-89000000D01*
G75*
G02*
X75850000Y-88900000I100000J0D01*
G01*
X76275000Y-88900000D01*
G75*
G02*
X76375000Y-89000000I0J-100000D01*
G01*
G37*
G36*
X76016434Y-89798559D02*
G01*
X76002365Y-89794291D01*
X75989398Y-89787360D01*
X75978033Y-89778033D01*
X75771967Y-89571967D01*
X75762640Y-89560602D01*
X75755709Y-89547635D01*
X75751441Y-89533566D01*
X75750000Y-89518934D01*
X75750000Y-89475000D01*
X75751441Y-89460368D01*
X75755709Y-89446299D01*
X75762640Y-89433332D01*
X75771967Y-89421967D01*
X75783332Y-89412640D01*
X75796299Y-89405709D01*
X75810368Y-89401441D01*
X75825000Y-89400000D01*
X76300000Y-89400000D01*
X76314632Y-89401441D01*
X76328701Y-89405709D01*
X76341668Y-89412640D01*
X76353033Y-89421967D01*
X76362360Y-89433332D01*
X76369291Y-89446299D01*
X76373559Y-89460368D01*
X76375000Y-89475000D01*
X76375000Y-89725000D01*
X76373559Y-89739632D01*
X76369291Y-89753701D01*
X76362360Y-89766668D01*
X76353033Y-89778033D01*
X76341668Y-89787360D01*
X76328701Y-89794291D01*
X76314632Y-89798559D01*
X76300000Y-89800000D01*
X76031066Y-89800000D01*
X76016434Y-89798559D01*
G37*
G36*
G01*
X94125000Y-81850000D02*
X94125000Y-81350000D01*
G75*
G02*
X94350000Y-81125000I225000J0D01*
G01*
X94800000Y-81125000D01*
G75*
G02*
X95025000Y-81350000I0J-225000D01*
G01*
X95025000Y-81850000D01*
G75*
G02*
X94800000Y-82075000I-225000J0D01*
G01*
X94350000Y-82075000D01*
G75*
G02*
X94125000Y-81850000I0J225000D01*
G01*
G37*
G36*
G01*
X92575000Y-81850000D02*
X92575000Y-81350000D01*
G75*
G02*
X92800000Y-81125000I225000J0D01*
G01*
X93250000Y-81125000D01*
G75*
G02*
X93475000Y-81350000I0J-225000D01*
G01*
X93475000Y-81850000D01*
G75*
G02*
X93250000Y-82075000I-225000J0D01*
G01*
X92800000Y-82075000D01*
G75*
G02*
X92575000Y-81850000I0J225000D01*
G01*
G37*
G36*
G01*
X103495000Y-45575000D02*
X103495000Y-45025000D01*
G75*
G02*
X103695000Y-44825000I200000J0D01*
G01*
X104095000Y-44825000D01*
G75*
G02*
X104295000Y-45025000I0J-200000D01*
G01*
X104295000Y-45575000D01*
G75*
G02*
X104095000Y-45775000I-200000J0D01*
G01*
X103695000Y-45775000D01*
G75*
G02*
X103495000Y-45575000I0J200000D01*
G01*
G37*
G36*
G01*
X101845000Y-45575000D02*
X101845000Y-45025000D01*
G75*
G02*
X102045000Y-44825000I200000J0D01*
G01*
X102445000Y-44825000D01*
G75*
G02*
X102645000Y-45025000I0J-200000D01*
G01*
X102645000Y-45575000D01*
G75*
G02*
X102445000Y-45775000I-200000J0D01*
G01*
X102045000Y-45775000D01*
G75*
G02*
X101845000Y-45575000I0J200000D01*
G01*
G37*
G36*
G01*
X96795000Y-45495000D02*
X96795000Y-44945000D01*
G75*
G02*
X96995000Y-44745000I200000J0D01*
G01*
X97395000Y-44745000D01*
G75*
G02*
X97595000Y-44945000I0J-200000D01*
G01*
X97595000Y-45495000D01*
G75*
G02*
X97395000Y-45695000I-200000J0D01*
G01*
X96995000Y-45695000D01*
G75*
G02*
X96795000Y-45495000I0J200000D01*
G01*
G37*
G36*
G01*
X95145000Y-45495000D02*
X95145000Y-44945000D01*
G75*
G02*
X95345000Y-44745000I200000J0D01*
G01*
X95745000Y-44745000D01*
G75*
G02*
X95945000Y-44945000I0J-200000D01*
G01*
X95945000Y-45495000D01*
G75*
G02*
X95745000Y-45695000I-200000J0D01*
G01*
X95345000Y-45695000D01*
G75*
G02*
X95145000Y-45495000I0J200000D01*
G01*
G37*
G36*
G01*
X89925000Y-45575000D02*
X89925000Y-45025000D01*
G75*
G02*
X90125000Y-44825000I200000J0D01*
G01*
X90525000Y-44825000D01*
G75*
G02*
X90725000Y-45025000I0J-200000D01*
G01*
X90725000Y-45575000D01*
G75*
G02*
X90525000Y-45775000I-200000J0D01*
G01*
X90125000Y-45775000D01*
G75*
G02*
X89925000Y-45575000I0J200000D01*
G01*
G37*
G36*
G01*
X88275000Y-45575000D02*
X88275000Y-45025000D01*
G75*
G02*
X88475000Y-44825000I200000J0D01*
G01*
X88875000Y-44825000D01*
G75*
G02*
X89075000Y-45025000I0J-200000D01*
G01*
X89075000Y-45575000D01*
G75*
G02*
X88875000Y-45775000I-200000J0D01*
G01*
X88475000Y-45775000D01*
G75*
G02*
X88275000Y-45575000I0J200000D01*
G01*
G37*
D14*
X100880000Y-49130000D03*
X100880000Y-48180000D03*
X100880000Y-50080000D03*
X98680000Y-50080000D03*
X98680000Y-49130000D03*
X98680000Y-48180000D03*
X94250000Y-49080000D03*
X94250000Y-48130000D03*
X94250000Y-50030000D03*
X92050000Y-50030000D03*
X92050000Y-49080000D03*
X92050000Y-48130000D03*
X87310000Y-49130000D03*
X87310000Y-48180000D03*
X87310000Y-50080000D03*
X85110000Y-50080000D03*
X85110000Y-49130000D03*
X85110000Y-48180000D03*
D11*
X100010000Y-42340000D03*
X100010000Y-39800000D03*
X97470000Y-42340000D03*
X97470000Y-39800000D03*
X94930000Y-42340000D03*
X94930000Y-39800000D03*
X92390000Y-42340000D03*
X92390000Y-39800000D03*
X89850000Y-42340000D03*
X89850000Y-39800000D03*
X87310000Y-42340000D03*
X87310000Y-39800000D03*
X84770000Y-42340000D03*
X84770000Y-39800000D03*
X82230000Y-42340000D03*
X82230000Y-39800000D03*
X79690000Y-42340000D03*
X79690000Y-39800000D03*
X77150000Y-42340000D03*
X77150000Y-39800000D03*
X74610000Y-42340000D03*
X74610000Y-39800000D03*
X72070000Y-42340000D03*
X72070000Y-39800000D03*
X69530000Y-42340000D03*
X69530000Y-39800000D03*
X66990000Y-42340000D03*
X66990000Y-39800000D03*
X64450000Y-42340000D03*
X64450000Y-39800000D03*
X61910000Y-42340000D03*
X61910000Y-39800000D03*
X59370000Y-42340000D03*
X59370000Y-39800000D03*
X56830000Y-42340000D03*
X56830000Y-39800000D03*
X54290000Y-42340000D03*
X54290000Y-39800000D03*
X51750000Y-42340000D03*
D12*
X51750000Y-39800000D03*
G36*
G01*
X99055000Y-46260000D02*
X99055000Y-46760000D01*
G75*
G02*
X98830000Y-46985000I-225000J0D01*
G01*
X98380000Y-46985000D01*
G75*
G02*
X98155000Y-46760000I0J225000D01*
G01*
X98155000Y-46260000D01*
G75*
G02*
X98380000Y-46035000I225000J0D01*
G01*
X98830000Y-46035000D01*
G75*
G02*
X99055000Y-46260000I0J-225000D01*
G01*
G37*
G36*
G01*
X100605000Y-46260000D02*
X100605000Y-46760000D01*
G75*
G02*
X100380000Y-46985000I-225000J0D01*
G01*
X99930000Y-46985000D01*
G75*
G02*
X99705000Y-46760000I0J225000D01*
G01*
X99705000Y-46260000D01*
G75*
G02*
X99930000Y-46035000I225000J0D01*
G01*
X100380000Y-46035000D01*
G75*
G02*
X100605000Y-46260000I0J-225000D01*
G01*
G37*
G36*
G01*
X92425000Y-46210000D02*
X92425000Y-46710000D01*
G75*
G02*
X92200000Y-46935000I-225000J0D01*
G01*
X91750000Y-46935000D01*
G75*
G02*
X91525000Y-46710000I0J225000D01*
G01*
X91525000Y-46210000D01*
G75*
G02*
X91750000Y-45985000I225000J0D01*
G01*
X92200000Y-45985000D01*
G75*
G02*
X92425000Y-46210000I0J-225000D01*
G01*
G37*
G36*
G01*
X93975000Y-46210000D02*
X93975000Y-46710000D01*
G75*
G02*
X93750000Y-46935000I-225000J0D01*
G01*
X93300000Y-46935000D01*
G75*
G02*
X93075000Y-46710000I0J225000D01*
G01*
X93075000Y-46210000D01*
G75*
G02*
X93300000Y-45985000I225000J0D01*
G01*
X93750000Y-45985000D01*
G75*
G02*
X93975000Y-46210000I0J-225000D01*
G01*
G37*
G36*
G01*
X85485000Y-46260000D02*
X85485000Y-46760000D01*
G75*
G02*
X85260000Y-46985000I-225000J0D01*
G01*
X84810000Y-46985000D01*
G75*
G02*
X84585000Y-46760000I0J225000D01*
G01*
X84585000Y-46260000D01*
G75*
G02*
X84810000Y-46035000I225000J0D01*
G01*
X85260000Y-46035000D01*
G75*
G02*
X85485000Y-46260000I0J-225000D01*
G01*
G37*
G36*
G01*
X87035000Y-46260000D02*
X87035000Y-46760000D01*
G75*
G02*
X86810000Y-46985000I-225000J0D01*
G01*
X86360000Y-46985000D01*
G75*
G02*
X86135000Y-46760000I0J225000D01*
G01*
X86135000Y-46260000D01*
G75*
G02*
X86360000Y-46035000I225000J0D01*
G01*
X86810000Y-46035000D01*
G75*
G02*
X87035000Y-46260000I0J-225000D01*
G01*
G37*
G36*
G01*
X94225000Y-85350000D02*
X95625000Y-85350000D01*
G75*
G02*
X95700000Y-85425000I0J-75000D01*
G01*
X95700000Y-85575000D01*
G75*
G02*
X95625000Y-85650000I-75000J0D01*
G01*
X94225000Y-85650000D01*
G75*
G02*
X94150000Y-85575000I0J75000D01*
G01*
X94150000Y-85425000D01*
G75*
G02*
X94225000Y-85350000I75000J0D01*
G01*
G37*
G36*
G01*
X94225000Y-85850000D02*
X95625000Y-85850000D01*
G75*
G02*
X95700000Y-85925000I0J-75000D01*
G01*
X95700000Y-86075000D01*
G75*
G02*
X95625000Y-86150000I-75000J0D01*
G01*
X94225000Y-86150000D01*
G75*
G02*
X94150000Y-86075000I0J75000D01*
G01*
X94150000Y-85925000D01*
G75*
G02*
X94225000Y-85850000I75000J0D01*
G01*
G37*
G36*
G01*
X94225000Y-86350000D02*
X95625000Y-86350000D01*
G75*
G02*
X95700000Y-86425000I0J-75000D01*
G01*
X95700000Y-86575000D01*
G75*
G02*
X95625000Y-86650000I-75000J0D01*
G01*
X94225000Y-86650000D01*
G75*
G02*
X94150000Y-86575000I0J75000D01*
G01*
X94150000Y-86425000D01*
G75*
G02*
X94225000Y-86350000I75000J0D01*
G01*
G37*
G36*
G01*
X94225000Y-86850000D02*
X95625000Y-86850000D01*
G75*
G02*
X95700000Y-86925000I0J-75000D01*
G01*
X95700000Y-87075000D01*
G75*
G02*
X95625000Y-87150000I-75000J0D01*
G01*
X94225000Y-87150000D01*
G75*
G02*
X94150000Y-87075000I0J75000D01*
G01*
X94150000Y-86925000D01*
G75*
G02*
X94225000Y-86850000I75000J0D01*
G01*
G37*
G36*
G01*
X94225000Y-87350000D02*
X95625000Y-87350000D01*
G75*
G02*
X95700000Y-87425000I0J-75000D01*
G01*
X95700000Y-87575000D01*
G75*
G02*
X95625000Y-87650000I-75000J0D01*
G01*
X94225000Y-87650000D01*
G75*
G02*
X94150000Y-87575000I0J75000D01*
G01*
X94150000Y-87425000D01*
G75*
G02*
X94225000Y-87350000I75000J0D01*
G01*
G37*
G36*
G01*
X94225000Y-87850000D02*
X95625000Y-87850000D01*
G75*
G02*
X95700000Y-87925000I0J-75000D01*
G01*
X95700000Y-88075000D01*
G75*
G02*
X95625000Y-88150000I-75000J0D01*
G01*
X94225000Y-88150000D01*
G75*
G02*
X94150000Y-88075000I0J75000D01*
G01*
X94150000Y-87925000D01*
G75*
G02*
X94225000Y-87850000I75000J0D01*
G01*
G37*
G36*
G01*
X94225000Y-88350000D02*
X95625000Y-88350000D01*
G75*
G02*
X95700000Y-88425000I0J-75000D01*
G01*
X95700000Y-88575000D01*
G75*
G02*
X95625000Y-88650000I-75000J0D01*
G01*
X94225000Y-88650000D01*
G75*
G02*
X94150000Y-88575000I0J75000D01*
G01*
X94150000Y-88425000D01*
G75*
G02*
X94225000Y-88350000I75000J0D01*
G01*
G37*
G36*
G01*
X94225000Y-88850000D02*
X95625000Y-88850000D01*
G75*
G02*
X95700000Y-88925000I0J-75000D01*
G01*
X95700000Y-89075000D01*
G75*
G02*
X95625000Y-89150000I-75000J0D01*
G01*
X94225000Y-89150000D01*
G75*
G02*
X94150000Y-89075000I0J75000D01*
G01*
X94150000Y-88925000D01*
G75*
G02*
X94225000Y-88850000I75000J0D01*
G01*
G37*
G36*
G01*
X94225000Y-89350000D02*
X95625000Y-89350000D01*
G75*
G02*
X95700000Y-89425000I0J-75000D01*
G01*
X95700000Y-89575000D01*
G75*
G02*
X95625000Y-89650000I-75000J0D01*
G01*
X94225000Y-89650000D01*
G75*
G02*
X94150000Y-89575000I0J75000D01*
G01*
X94150000Y-89425000D01*
G75*
G02*
X94225000Y-89350000I75000J0D01*
G01*
G37*
G36*
G01*
X94225000Y-89850000D02*
X95625000Y-89850000D01*
G75*
G02*
X95700000Y-89925000I0J-75000D01*
G01*
X95700000Y-90075000D01*
G75*
G02*
X95625000Y-90150000I-75000J0D01*
G01*
X94225000Y-90150000D01*
G75*
G02*
X94150000Y-90075000I0J75000D01*
G01*
X94150000Y-89925000D01*
G75*
G02*
X94225000Y-89850000I75000J0D01*
G01*
G37*
G36*
G01*
X94225000Y-90350000D02*
X95625000Y-90350000D01*
G75*
G02*
X95700000Y-90425000I0J-75000D01*
G01*
X95700000Y-90575000D01*
G75*
G02*
X95625000Y-90650000I-75000J0D01*
G01*
X94225000Y-90650000D01*
G75*
G02*
X94150000Y-90575000I0J75000D01*
G01*
X94150000Y-90425000D01*
G75*
G02*
X94225000Y-90350000I75000J0D01*
G01*
G37*
G36*
G01*
X94225000Y-90850000D02*
X95625000Y-90850000D01*
G75*
G02*
X95700000Y-90925000I0J-75000D01*
G01*
X95700000Y-91075000D01*
G75*
G02*
X95625000Y-91150000I-75000J0D01*
G01*
X94225000Y-91150000D01*
G75*
G02*
X94150000Y-91075000I0J75000D01*
G01*
X94150000Y-90925000D01*
G75*
G02*
X94225000Y-90850000I75000J0D01*
G01*
G37*
G36*
G01*
X94225000Y-91350000D02*
X95625000Y-91350000D01*
G75*
G02*
X95700000Y-91425000I0J-75000D01*
G01*
X95700000Y-91575000D01*
G75*
G02*
X95625000Y-91650000I-75000J0D01*
G01*
X94225000Y-91650000D01*
G75*
G02*
X94150000Y-91575000I0J75000D01*
G01*
X94150000Y-91425000D01*
G75*
G02*
X94225000Y-91350000I75000J0D01*
G01*
G37*
G36*
G01*
X94225000Y-91850000D02*
X95625000Y-91850000D01*
G75*
G02*
X95700000Y-91925000I0J-75000D01*
G01*
X95700000Y-92075000D01*
G75*
G02*
X95625000Y-92150000I-75000J0D01*
G01*
X94225000Y-92150000D01*
G75*
G02*
X94150000Y-92075000I0J75000D01*
G01*
X94150000Y-91925000D01*
G75*
G02*
X94225000Y-91850000I75000J0D01*
G01*
G37*
G36*
G01*
X94225000Y-92350000D02*
X95625000Y-92350000D01*
G75*
G02*
X95700000Y-92425000I0J-75000D01*
G01*
X95700000Y-92575000D01*
G75*
G02*
X95625000Y-92650000I-75000J0D01*
G01*
X94225000Y-92650000D01*
G75*
G02*
X94150000Y-92575000I0J75000D01*
G01*
X94150000Y-92425000D01*
G75*
G02*
X94225000Y-92350000I75000J0D01*
G01*
G37*
G36*
G01*
X94225000Y-92850000D02*
X95625000Y-92850000D01*
G75*
G02*
X95700000Y-92925000I0J-75000D01*
G01*
X95700000Y-93075000D01*
G75*
G02*
X95625000Y-93150000I-75000J0D01*
G01*
X94225000Y-93150000D01*
G75*
G02*
X94150000Y-93075000I0J75000D01*
G01*
X94150000Y-92925000D01*
G75*
G02*
X94225000Y-92850000I75000J0D01*
G01*
G37*
G36*
G01*
X92925000Y-94150000D02*
X93075000Y-94150000D01*
G75*
G02*
X93150000Y-94225000I0J-75000D01*
G01*
X93150000Y-95625000D01*
G75*
G02*
X93075000Y-95700000I-75000J0D01*
G01*
X92925000Y-95700000D01*
G75*
G02*
X92850000Y-95625000I0J75000D01*
G01*
X92850000Y-94225000D01*
G75*
G02*
X92925000Y-94150000I75000J0D01*
G01*
G37*
G36*
G01*
X92425000Y-94150000D02*
X92575000Y-94150000D01*
G75*
G02*
X92650000Y-94225000I0J-75000D01*
G01*
X92650000Y-95625000D01*
G75*
G02*
X92575000Y-95700000I-75000J0D01*
G01*
X92425000Y-95700000D01*
G75*
G02*
X92350000Y-95625000I0J75000D01*
G01*
X92350000Y-94225000D01*
G75*
G02*
X92425000Y-94150000I75000J0D01*
G01*
G37*
G36*
G01*
X91925000Y-94150000D02*
X92075000Y-94150000D01*
G75*
G02*
X92150000Y-94225000I0J-75000D01*
G01*
X92150000Y-95625000D01*
G75*
G02*
X92075000Y-95700000I-75000J0D01*
G01*
X91925000Y-95700000D01*
G75*
G02*
X91850000Y-95625000I0J75000D01*
G01*
X91850000Y-94225000D01*
G75*
G02*
X91925000Y-94150000I75000J0D01*
G01*
G37*
G36*
G01*
X91425000Y-94150000D02*
X91575000Y-94150000D01*
G75*
G02*
X91650000Y-94225000I0J-75000D01*
G01*
X91650000Y-95625000D01*
G75*
G02*
X91575000Y-95700000I-75000J0D01*
G01*
X91425000Y-95700000D01*
G75*
G02*
X91350000Y-95625000I0J75000D01*
G01*
X91350000Y-94225000D01*
G75*
G02*
X91425000Y-94150000I75000J0D01*
G01*
G37*
G36*
G01*
X90925000Y-94150000D02*
X91075000Y-94150000D01*
G75*
G02*
X91150000Y-94225000I0J-75000D01*
G01*
X91150000Y-95625000D01*
G75*
G02*
X91075000Y-95700000I-75000J0D01*
G01*
X90925000Y-95700000D01*
G75*
G02*
X90850000Y-95625000I0J75000D01*
G01*
X90850000Y-94225000D01*
G75*
G02*
X90925000Y-94150000I75000J0D01*
G01*
G37*
G36*
G01*
X90425000Y-94150000D02*
X90575000Y-94150000D01*
G75*
G02*
X90650000Y-94225000I0J-75000D01*
G01*
X90650000Y-95625000D01*
G75*
G02*
X90575000Y-95700000I-75000J0D01*
G01*
X90425000Y-95700000D01*
G75*
G02*
X90350000Y-95625000I0J75000D01*
G01*
X90350000Y-94225000D01*
G75*
G02*
X90425000Y-94150000I75000J0D01*
G01*
G37*
G36*
G01*
X89925000Y-94150000D02*
X90075000Y-94150000D01*
G75*
G02*
X90150000Y-94225000I0J-75000D01*
G01*
X90150000Y-95625000D01*
G75*
G02*
X90075000Y-95700000I-75000J0D01*
G01*
X89925000Y-95700000D01*
G75*
G02*
X89850000Y-95625000I0J75000D01*
G01*
X89850000Y-94225000D01*
G75*
G02*
X89925000Y-94150000I75000J0D01*
G01*
G37*
G36*
G01*
X89425000Y-94150000D02*
X89575000Y-94150000D01*
G75*
G02*
X89650000Y-94225000I0J-75000D01*
G01*
X89650000Y-95625000D01*
G75*
G02*
X89575000Y-95700000I-75000J0D01*
G01*
X89425000Y-95700000D01*
G75*
G02*
X89350000Y-95625000I0J75000D01*
G01*
X89350000Y-94225000D01*
G75*
G02*
X89425000Y-94150000I75000J0D01*
G01*
G37*
G36*
G01*
X88925000Y-94150000D02*
X89075000Y-94150000D01*
G75*
G02*
X89150000Y-94225000I0J-75000D01*
G01*
X89150000Y-95625000D01*
G75*
G02*
X89075000Y-95700000I-75000J0D01*
G01*
X88925000Y-95700000D01*
G75*
G02*
X88850000Y-95625000I0J75000D01*
G01*
X88850000Y-94225000D01*
G75*
G02*
X88925000Y-94150000I75000J0D01*
G01*
G37*
G36*
G01*
X88425000Y-94150000D02*
X88575000Y-94150000D01*
G75*
G02*
X88650000Y-94225000I0J-75000D01*
G01*
X88650000Y-95625000D01*
G75*
G02*
X88575000Y-95700000I-75000J0D01*
G01*
X88425000Y-95700000D01*
G75*
G02*
X88350000Y-95625000I0J75000D01*
G01*
X88350000Y-94225000D01*
G75*
G02*
X88425000Y-94150000I75000J0D01*
G01*
G37*
G36*
G01*
X87925000Y-94150000D02*
X88075000Y-94150000D01*
G75*
G02*
X88150000Y-94225000I0J-75000D01*
G01*
X88150000Y-95625000D01*
G75*
G02*
X88075000Y-95700000I-75000J0D01*
G01*
X87925000Y-95700000D01*
G75*
G02*
X87850000Y-95625000I0J75000D01*
G01*
X87850000Y-94225000D01*
G75*
G02*
X87925000Y-94150000I75000J0D01*
G01*
G37*
G36*
G01*
X87425000Y-94150000D02*
X87575000Y-94150000D01*
G75*
G02*
X87650000Y-94225000I0J-75000D01*
G01*
X87650000Y-95625000D01*
G75*
G02*
X87575000Y-95700000I-75000J0D01*
G01*
X87425000Y-95700000D01*
G75*
G02*
X87350000Y-95625000I0J75000D01*
G01*
X87350000Y-94225000D01*
G75*
G02*
X87425000Y-94150000I75000J0D01*
G01*
G37*
G36*
G01*
X86925000Y-94150000D02*
X87075000Y-94150000D01*
G75*
G02*
X87150000Y-94225000I0J-75000D01*
G01*
X87150000Y-95625000D01*
G75*
G02*
X87075000Y-95700000I-75000J0D01*
G01*
X86925000Y-95700000D01*
G75*
G02*
X86850000Y-95625000I0J75000D01*
G01*
X86850000Y-94225000D01*
G75*
G02*
X86925000Y-94150000I75000J0D01*
G01*
G37*
G36*
G01*
X86425000Y-94150000D02*
X86575000Y-94150000D01*
G75*
G02*
X86650000Y-94225000I0J-75000D01*
G01*
X86650000Y-95625000D01*
G75*
G02*
X86575000Y-95700000I-75000J0D01*
G01*
X86425000Y-95700000D01*
G75*
G02*
X86350000Y-95625000I0J75000D01*
G01*
X86350000Y-94225000D01*
G75*
G02*
X86425000Y-94150000I75000J0D01*
G01*
G37*
G36*
G01*
X85925000Y-94150000D02*
X86075000Y-94150000D01*
G75*
G02*
X86150000Y-94225000I0J-75000D01*
G01*
X86150000Y-95625000D01*
G75*
G02*
X86075000Y-95700000I-75000J0D01*
G01*
X85925000Y-95700000D01*
G75*
G02*
X85850000Y-95625000I0J75000D01*
G01*
X85850000Y-94225000D01*
G75*
G02*
X85925000Y-94150000I75000J0D01*
G01*
G37*
G36*
G01*
X85425000Y-94150000D02*
X85575000Y-94150000D01*
G75*
G02*
X85650000Y-94225000I0J-75000D01*
G01*
X85650000Y-95625000D01*
G75*
G02*
X85575000Y-95700000I-75000J0D01*
G01*
X85425000Y-95700000D01*
G75*
G02*
X85350000Y-95625000I0J75000D01*
G01*
X85350000Y-94225000D01*
G75*
G02*
X85425000Y-94150000I75000J0D01*
G01*
G37*
G36*
G01*
X82875000Y-92850000D02*
X84275000Y-92850000D01*
G75*
G02*
X84350000Y-92925000I0J-75000D01*
G01*
X84350000Y-93075000D01*
G75*
G02*
X84275000Y-93150000I-75000J0D01*
G01*
X82875000Y-93150000D01*
G75*
G02*
X82800000Y-93075000I0J75000D01*
G01*
X82800000Y-92925000D01*
G75*
G02*
X82875000Y-92850000I75000J0D01*
G01*
G37*
G36*
G01*
X82875000Y-92350000D02*
X84275000Y-92350000D01*
G75*
G02*
X84350000Y-92425000I0J-75000D01*
G01*
X84350000Y-92575000D01*
G75*
G02*
X84275000Y-92650000I-75000J0D01*
G01*
X82875000Y-92650000D01*
G75*
G02*
X82800000Y-92575000I0J75000D01*
G01*
X82800000Y-92425000D01*
G75*
G02*
X82875000Y-92350000I75000J0D01*
G01*
G37*
G36*
G01*
X82875000Y-91850000D02*
X84275000Y-91850000D01*
G75*
G02*
X84350000Y-91925000I0J-75000D01*
G01*
X84350000Y-92075000D01*
G75*
G02*
X84275000Y-92150000I-75000J0D01*
G01*
X82875000Y-92150000D01*
G75*
G02*
X82800000Y-92075000I0J75000D01*
G01*
X82800000Y-91925000D01*
G75*
G02*
X82875000Y-91850000I75000J0D01*
G01*
G37*
G36*
G01*
X82875000Y-91350000D02*
X84275000Y-91350000D01*
G75*
G02*
X84350000Y-91425000I0J-75000D01*
G01*
X84350000Y-91575000D01*
G75*
G02*
X84275000Y-91650000I-75000J0D01*
G01*
X82875000Y-91650000D01*
G75*
G02*
X82800000Y-91575000I0J75000D01*
G01*
X82800000Y-91425000D01*
G75*
G02*
X82875000Y-91350000I75000J0D01*
G01*
G37*
G36*
G01*
X82875000Y-90850000D02*
X84275000Y-90850000D01*
G75*
G02*
X84350000Y-90925000I0J-75000D01*
G01*
X84350000Y-91075000D01*
G75*
G02*
X84275000Y-91150000I-75000J0D01*
G01*
X82875000Y-91150000D01*
G75*
G02*
X82800000Y-91075000I0J75000D01*
G01*
X82800000Y-90925000D01*
G75*
G02*
X82875000Y-90850000I75000J0D01*
G01*
G37*
G36*
G01*
X82875000Y-90350000D02*
X84275000Y-90350000D01*
G75*
G02*
X84350000Y-90425000I0J-75000D01*
G01*
X84350000Y-90575000D01*
G75*
G02*
X84275000Y-90650000I-75000J0D01*
G01*
X82875000Y-90650000D01*
G75*
G02*
X82800000Y-90575000I0J75000D01*
G01*
X82800000Y-90425000D01*
G75*
G02*
X82875000Y-90350000I75000J0D01*
G01*
G37*
G36*
G01*
X82875000Y-89850000D02*
X84275000Y-89850000D01*
G75*
G02*
X84350000Y-89925000I0J-75000D01*
G01*
X84350000Y-90075000D01*
G75*
G02*
X84275000Y-90150000I-75000J0D01*
G01*
X82875000Y-90150000D01*
G75*
G02*
X82800000Y-90075000I0J75000D01*
G01*
X82800000Y-89925000D01*
G75*
G02*
X82875000Y-89850000I75000J0D01*
G01*
G37*
G36*
G01*
X82875000Y-89350000D02*
X84275000Y-89350000D01*
G75*
G02*
X84350000Y-89425000I0J-75000D01*
G01*
X84350000Y-89575000D01*
G75*
G02*
X84275000Y-89650000I-75000J0D01*
G01*
X82875000Y-89650000D01*
G75*
G02*
X82800000Y-89575000I0J75000D01*
G01*
X82800000Y-89425000D01*
G75*
G02*
X82875000Y-89350000I75000J0D01*
G01*
G37*
G36*
G01*
X82875000Y-88850000D02*
X84275000Y-88850000D01*
G75*
G02*
X84350000Y-88925000I0J-75000D01*
G01*
X84350000Y-89075000D01*
G75*
G02*
X84275000Y-89150000I-75000J0D01*
G01*
X82875000Y-89150000D01*
G75*
G02*
X82800000Y-89075000I0J75000D01*
G01*
X82800000Y-88925000D01*
G75*
G02*
X82875000Y-88850000I75000J0D01*
G01*
G37*
G36*
G01*
X82875000Y-88350000D02*
X84275000Y-88350000D01*
G75*
G02*
X84350000Y-88425000I0J-75000D01*
G01*
X84350000Y-88575000D01*
G75*
G02*
X84275000Y-88650000I-75000J0D01*
G01*
X82875000Y-88650000D01*
G75*
G02*
X82800000Y-88575000I0J75000D01*
G01*
X82800000Y-88425000D01*
G75*
G02*
X82875000Y-88350000I75000J0D01*
G01*
G37*
G36*
G01*
X82875000Y-87850000D02*
X84275000Y-87850000D01*
G75*
G02*
X84350000Y-87925000I0J-75000D01*
G01*
X84350000Y-88075000D01*
G75*
G02*
X84275000Y-88150000I-75000J0D01*
G01*
X82875000Y-88150000D01*
G75*
G02*
X82800000Y-88075000I0J75000D01*
G01*
X82800000Y-87925000D01*
G75*
G02*
X82875000Y-87850000I75000J0D01*
G01*
G37*
G36*
G01*
X82875000Y-87350000D02*
X84275000Y-87350000D01*
G75*
G02*
X84350000Y-87425000I0J-75000D01*
G01*
X84350000Y-87575000D01*
G75*
G02*
X84275000Y-87650000I-75000J0D01*
G01*
X82875000Y-87650000D01*
G75*
G02*
X82800000Y-87575000I0J75000D01*
G01*
X82800000Y-87425000D01*
G75*
G02*
X82875000Y-87350000I75000J0D01*
G01*
G37*
G36*
G01*
X82875000Y-86850000D02*
X84275000Y-86850000D01*
G75*
G02*
X84350000Y-86925000I0J-75000D01*
G01*
X84350000Y-87075000D01*
G75*
G02*
X84275000Y-87150000I-75000J0D01*
G01*
X82875000Y-87150000D01*
G75*
G02*
X82800000Y-87075000I0J75000D01*
G01*
X82800000Y-86925000D01*
G75*
G02*
X82875000Y-86850000I75000J0D01*
G01*
G37*
G36*
G01*
X82875000Y-86350000D02*
X84275000Y-86350000D01*
G75*
G02*
X84350000Y-86425000I0J-75000D01*
G01*
X84350000Y-86575000D01*
G75*
G02*
X84275000Y-86650000I-75000J0D01*
G01*
X82875000Y-86650000D01*
G75*
G02*
X82800000Y-86575000I0J75000D01*
G01*
X82800000Y-86425000D01*
G75*
G02*
X82875000Y-86350000I75000J0D01*
G01*
G37*
G36*
G01*
X82875000Y-85850000D02*
X84275000Y-85850000D01*
G75*
G02*
X84350000Y-85925000I0J-75000D01*
G01*
X84350000Y-86075000D01*
G75*
G02*
X84275000Y-86150000I-75000J0D01*
G01*
X82875000Y-86150000D01*
G75*
G02*
X82800000Y-86075000I0J75000D01*
G01*
X82800000Y-85925000D01*
G75*
G02*
X82875000Y-85850000I75000J0D01*
G01*
G37*
G36*
G01*
X82875000Y-85350000D02*
X84275000Y-85350000D01*
G75*
G02*
X84350000Y-85425000I0J-75000D01*
G01*
X84350000Y-85575000D01*
G75*
G02*
X84275000Y-85650000I-75000J0D01*
G01*
X82875000Y-85650000D01*
G75*
G02*
X82800000Y-85575000I0J75000D01*
G01*
X82800000Y-85425000D01*
G75*
G02*
X82875000Y-85350000I75000J0D01*
G01*
G37*
G36*
G01*
X85425000Y-82800000D02*
X85575000Y-82800000D01*
G75*
G02*
X85650000Y-82875000I0J-75000D01*
G01*
X85650000Y-84275000D01*
G75*
G02*
X85575000Y-84350000I-75000J0D01*
G01*
X85425000Y-84350000D01*
G75*
G02*
X85350000Y-84275000I0J75000D01*
G01*
X85350000Y-82875000D01*
G75*
G02*
X85425000Y-82800000I75000J0D01*
G01*
G37*
G36*
G01*
X85925000Y-82800000D02*
X86075000Y-82800000D01*
G75*
G02*
X86150000Y-82875000I0J-75000D01*
G01*
X86150000Y-84275000D01*
G75*
G02*
X86075000Y-84350000I-75000J0D01*
G01*
X85925000Y-84350000D01*
G75*
G02*
X85850000Y-84275000I0J75000D01*
G01*
X85850000Y-82875000D01*
G75*
G02*
X85925000Y-82800000I75000J0D01*
G01*
G37*
G36*
G01*
X86425000Y-82800000D02*
X86575000Y-82800000D01*
G75*
G02*
X86650000Y-82875000I0J-75000D01*
G01*
X86650000Y-84275000D01*
G75*
G02*
X86575000Y-84350000I-75000J0D01*
G01*
X86425000Y-84350000D01*
G75*
G02*
X86350000Y-84275000I0J75000D01*
G01*
X86350000Y-82875000D01*
G75*
G02*
X86425000Y-82800000I75000J0D01*
G01*
G37*
G36*
G01*
X86925000Y-82800000D02*
X87075000Y-82800000D01*
G75*
G02*
X87150000Y-82875000I0J-75000D01*
G01*
X87150000Y-84275000D01*
G75*
G02*
X87075000Y-84350000I-75000J0D01*
G01*
X86925000Y-84350000D01*
G75*
G02*
X86850000Y-84275000I0J75000D01*
G01*
X86850000Y-82875000D01*
G75*
G02*
X86925000Y-82800000I75000J0D01*
G01*
G37*
G36*
G01*
X87425000Y-82800000D02*
X87575000Y-82800000D01*
G75*
G02*
X87650000Y-82875000I0J-75000D01*
G01*
X87650000Y-84275000D01*
G75*
G02*
X87575000Y-84350000I-75000J0D01*
G01*
X87425000Y-84350000D01*
G75*
G02*
X87350000Y-84275000I0J75000D01*
G01*
X87350000Y-82875000D01*
G75*
G02*
X87425000Y-82800000I75000J0D01*
G01*
G37*
G36*
G01*
X87925000Y-82800000D02*
X88075000Y-82800000D01*
G75*
G02*
X88150000Y-82875000I0J-75000D01*
G01*
X88150000Y-84275000D01*
G75*
G02*
X88075000Y-84350000I-75000J0D01*
G01*
X87925000Y-84350000D01*
G75*
G02*
X87850000Y-84275000I0J75000D01*
G01*
X87850000Y-82875000D01*
G75*
G02*
X87925000Y-82800000I75000J0D01*
G01*
G37*
G36*
G01*
X88425000Y-82800000D02*
X88575000Y-82800000D01*
G75*
G02*
X88650000Y-82875000I0J-75000D01*
G01*
X88650000Y-84275000D01*
G75*
G02*
X88575000Y-84350000I-75000J0D01*
G01*
X88425000Y-84350000D01*
G75*
G02*
X88350000Y-84275000I0J75000D01*
G01*
X88350000Y-82875000D01*
G75*
G02*
X88425000Y-82800000I75000J0D01*
G01*
G37*
G36*
G01*
X88925000Y-82800000D02*
X89075000Y-82800000D01*
G75*
G02*
X89150000Y-82875000I0J-75000D01*
G01*
X89150000Y-84275000D01*
G75*
G02*
X89075000Y-84350000I-75000J0D01*
G01*
X88925000Y-84350000D01*
G75*
G02*
X88850000Y-84275000I0J75000D01*
G01*
X88850000Y-82875000D01*
G75*
G02*
X88925000Y-82800000I75000J0D01*
G01*
G37*
G36*
G01*
X89425000Y-82800000D02*
X89575000Y-82800000D01*
G75*
G02*
X89650000Y-82875000I0J-75000D01*
G01*
X89650000Y-84275000D01*
G75*
G02*
X89575000Y-84350000I-75000J0D01*
G01*
X89425000Y-84350000D01*
G75*
G02*
X89350000Y-84275000I0J75000D01*
G01*
X89350000Y-82875000D01*
G75*
G02*
X89425000Y-82800000I75000J0D01*
G01*
G37*
G36*
G01*
X89925000Y-82800000D02*
X90075000Y-82800000D01*
G75*
G02*
X90150000Y-82875000I0J-75000D01*
G01*
X90150000Y-84275000D01*
G75*
G02*
X90075000Y-84350000I-75000J0D01*
G01*
X89925000Y-84350000D01*
G75*
G02*
X89850000Y-84275000I0J75000D01*
G01*
X89850000Y-82875000D01*
G75*
G02*
X89925000Y-82800000I75000J0D01*
G01*
G37*
G36*
G01*
X90425000Y-82800000D02*
X90575000Y-82800000D01*
G75*
G02*
X90650000Y-82875000I0J-75000D01*
G01*
X90650000Y-84275000D01*
G75*
G02*
X90575000Y-84350000I-75000J0D01*
G01*
X90425000Y-84350000D01*
G75*
G02*
X90350000Y-84275000I0J75000D01*
G01*
X90350000Y-82875000D01*
G75*
G02*
X90425000Y-82800000I75000J0D01*
G01*
G37*
G36*
G01*
X90925000Y-82800000D02*
X91075000Y-82800000D01*
G75*
G02*
X91150000Y-82875000I0J-75000D01*
G01*
X91150000Y-84275000D01*
G75*
G02*
X91075000Y-84350000I-75000J0D01*
G01*
X90925000Y-84350000D01*
G75*
G02*
X90850000Y-84275000I0J75000D01*
G01*
X90850000Y-82875000D01*
G75*
G02*
X90925000Y-82800000I75000J0D01*
G01*
G37*
G36*
G01*
X91425000Y-82800000D02*
X91575000Y-82800000D01*
G75*
G02*
X91650000Y-82875000I0J-75000D01*
G01*
X91650000Y-84275000D01*
G75*
G02*
X91575000Y-84350000I-75000J0D01*
G01*
X91425000Y-84350000D01*
G75*
G02*
X91350000Y-84275000I0J75000D01*
G01*
X91350000Y-82875000D01*
G75*
G02*
X91425000Y-82800000I75000J0D01*
G01*
G37*
G36*
G01*
X91925000Y-82800000D02*
X92075000Y-82800000D01*
G75*
G02*
X92150000Y-82875000I0J-75000D01*
G01*
X92150000Y-84275000D01*
G75*
G02*
X92075000Y-84350000I-75000J0D01*
G01*
X91925000Y-84350000D01*
G75*
G02*
X91850000Y-84275000I0J75000D01*
G01*
X91850000Y-82875000D01*
G75*
G02*
X91925000Y-82800000I75000J0D01*
G01*
G37*
G36*
G01*
X92425000Y-82800000D02*
X92575000Y-82800000D01*
G75*
G02*
X92650000Y-82875000I0J-75000D01*
G01*
X92650000Y-84275000D01*
G75*
G02*
X92575000Y-84350000I-75000J0D01*
G01*
X92425000Y-84350000D01*
G75*
G02*
X92350000Y-84275000I0J75000D01*
G01*
X92350000Y-82875000D01*
G75*
G02*
X92425000Y-82800000I75000J0D01*
G01*
G37*
G36*
G01*
X92925000Y-82800000D02*
X93075000Y-82800000D01*
G75*
G02*
X93150000Y-82875000I0J-75000D01*
G01*
X93150000Y-84275000D01*
G75*
G02*
X93075000Y-84350000I-75000J0D01*
G01*
X92925000Y-84350000D01*
G75*
G02*
X92850000Y-84275000I0J75000D01*
G01*
X92850000Y-82875000D01*
G75*
G02*
X92925000Y-82800000I75000J0D01*
G01*
G37*
G36*
G01*
X84175000Y-81350000D02*
X84175000Y-81850000D01*
G75*
G02*
X83950000Y-82075000I-225000J0D01*
G01*
X83500000Y-82075000D01*
G75*
G02*
X83275000Y-81850000I0J225000D01*
G01*
X83275000Y-81350000D01*
G75*
G02*
X83500000Y-81125000I225000J0D01*
G01*
X83950000Y-81125000D01*
G75*
G02*
X84175000Y-81350000I0J-225000D01*
G01*
G37*
G36*
G01*
X85725000Y-81350000D02*
X85725000Y-81850000D01*
G75*
G02*
X85500000Y-82075000I-225000J0D01*
G01*
X85050000Y-82075000D01*
G75*
G02*
X84825000Y-81850000I0J225000D01*
G01*
X84825000Y-81350000D01*
G75*
G02*
X85050000Y-81125000I225000J0D01*
G01*
X85500000Y-81125000D01*
G75*
G02*
X85725000Y-81350000I0J-225000D01*
G01*
G37*
G36*
G01*
X96525000Y-84450000D02*
X96525000Y-83950000D01*
G75*
G02*
X96750000Y-83725000I225000J0D01*
G01*
X97200000Y-83725000D01*
G75*
G02*
X97425000Y-83950000I0J-225000D01*
G01*
X97425000Y-84450000D01*
G75*
G02*
X97200000Y-84675000I-225000J0D01*
G01*
X96750000Y-84675000D01*
G75*
G02*
X96525000Y-84450000I0J225000D01*
G01*
G37*
G36*
G01*
X94975000Y-84450000D02*
X94975000Y-83950000D01*
G75*
G02*
X95200000Y-83725000I225000J0D01*
G01*
X95650000Y-83725000D01*
G75*
G02*
X95875000Y-83950000I0J-225000D01*
G01*
X95875000Y-84450000D01*
G75*
G02*
X95650000Y-84675000I-225000J0D01*
G01*
X95200000Y-84675000D01*
G75*
G02*
X94975000Y-84450000I0J225000D01*
G01*
G37*
G36*
G01*
X81450000Y-94000000D02*
X80950000Y-94000000D01*
G75*
G02*
X80725000Y-93775000I0J225000D01*
G01*
X80725000Y-93325000D01*
G75*
G02*
X80950000Y-93100000I225000J0D01*
G01*
X81450000Y-93100000D01*
G75*
G02*
X81675000Y-93325000I0J-225000D01*
G01*
X81675000Y-93775000D01*
G75*
G02*
X81450000Y-94000000I-225000J0D01*
G01*
G37*
G36*
G01*
X81450000Y-95550000D02*
X80950000Y-95550000D01*
G75*
G02*
X80725000Y-95325000I0J225000D01*
G01*
X80725000Y-94875000D01*
G75*
G02*
X80950000Y-94650000I225000J0D01*
G01*
X81450000Y-94650000D01*
G75*
G02*
X81675000Y-94875000I0J-225000D01*
G01*
X81675000Y-95325000D01*
G75*
G02*
X81450000Y-95550000I-225000J0D01*
G01*
G37*
G36*
G01*
X83375000Y-79850000D02*
X83375000Y-80350000D01*
G75*
G02*
X83150000Y-80575000I-225000J0D01*
G01*
X82700000Y-80575000D01*
G75*
G02*
X82475000Y-80350000I0J225000D01*
G01*
X82475000Y-79850000D01*
G75*
G02*
X82700000Y-79625000I225000J0D01*
G01*
X83150000Y-79625000D01*
G75*
G02*
X83375000Y-79850000I0J-225000D01*
G01*
G37*
G36*
G01*
X84925000Y-79850000D02*
X84925000Y-80350000D01*
G75*
G02*
X84700000Y-80575000I-225000J0D01*
G01*
X84250000Y-80575000D01*
G75*
G02*
X84025000Y-80350000I0J225000D01*
G01*
X84025000Y-79850000D01*
G75*
G02*
X84250000Y-79625000I225000J0D01*
G01*
X84700000Y-79625000D01*
G75*
G02*
X84925000Y-79850000I0J-225000D01*
G01*
G37*
G36*
G01*
X95425000Y-97400000D02*
X95425000Y-96900000D01*
G75*
G02*
X95650000Y-96675000I225000J0D01*
G01*
X96100000Y-96675000D01*
G75*
G02*
X96325000Y-96900000I0J-225000D01*
G01*
X96325000Y-97400000D01*
G75*
G02*
X96100000Y-97625000I-225000J0D01*
G01*
X95650000Y-97625000D01*
G75*
G02*
X95425000Y-97400000I0J225000D01*
G01*
G37*
G36*
G01*
X93875000Y-97400000D02*
X93875000Y-96900000D01*
G75*
G02*
X94100000Y-96675000I225000J0D01*
G01*
X94550000Y-96675000D01*
G75*
G02*
X94775000Y-96900000I0J-225000D01*
G01*
X94775000Y-97400000D01*
G75*
G02*
X94550000Y-97625000I-225000J0D01*
G01*
X94100000Y-97625000D01*
G75*
G02*
X93875000Y-97400000I0J225000D01*
G01*
G37*
D11*
X128370000Y-42340000D03*
X128370000Y-39800000D03*
X125830000Y-42340000D03*
X125830000Y-39800000D03*
X123290000Y-42340000D03*
X123290000Y-39800000D03*
X120750000Y-42340000D03*
X120750000Y-39800000D03*
X118210000Y-42340000D03*
X118210000Y-39800000D03*
X115670000Y-42340000D03*
X115670000Y-39800000D03*
X113130000Y-42340000D03*
X113130000Y-39800000D03*
X110590000Y-42340000D03*
X110590000Y-39800000D03*
X108050000Y-42340000D03*
X108050000Y-39800000D03*
X105510000Y-42340000D03*
D12*
X105510000Y-39800000D03*
G36*
G01*
X94750000Y-95393750D02*
X94750000Y-95906250D01*
G75*
G02*
X94531250Y-96125000I-218750J0D01*
G01*
X94093750Y-96125000D01*
G75*
G02*
X93875000Y-95906250I0J218750D01*
G01*
X93875000Y-95393750D01*
G75*
G02*
X94093750Y-95175000I218750J0D01*
G01*
X94531250Y-95175000D01*
G75*
G02*
X94750000Y-95393750I0J-218750D01*
G01*
G37*
G36*
G01*
X96325000Y-95393750D02*
X96325000Y-95906250D01*
G75*
G02*
X96106250Y-96125000I-218750J0D01*
G01*
X95668750Y-96125000D01*
G75*
G02*
X95450000Y-95906250I0J218750D01*
G01*
X95450000Y-95393750D01*
G75*
G02*
X95668750Y-95175000I218750J0D01*
G01*
X96106250Y-95175000D01*
G75*
G02*
X96325000Y-95393750I0J-218750D01*
G01*
G37*
G36*
G01*
X81850000Y-81856250D02*
X81850000Y-81343750D01*
G75*
G02*
X82068750Y-81125000I218750J0D01*
G01*
X82506250Y-81125000D01*
G75*
G02*
X82725000Y-81343750I0J-218750D01*
G01*
X82725000Y-81856250D01*
G75*
G02*
X82506250Y-82075000I-218750J0D01*
G01*
X82068750Y-82075000D01*
G75*
G02*
X81850000Y-81856250I0J218750D01*
G01*
G37*
G36*
G01*
X80275000Y-81856250D02*
X80275000Y-81343750D01*
G75*
G02*
X80493750Y-81125000I218750J0D01*
G01*
X80931250Y-81125000D01*
G75*
G02*
X81150000Y-81343750I0J-218750D01*
G01*
X81150000Y-81856250D01*
G75*
G02*
X80931250Y-82075000I-218750J0D01*
G01*
X80493750Y-82075000D01*
G75*
G02*
X80275000Y-81856250I0J218750D01*
G01*
G37*
G36*
G01*
X98150000Y-80943750D02*
X98150000Y-81456250D01*
G75*
G02*
X97931250Y-81675000I-218750J0D01*
G01*
X97493750Y-81675000D01*
G75*
G02*
X97275000Y-81456250I0J218750D01*
G01*
X97275000Y-80943750D01*
G75*
G02*
X97493750Y-80725000I218750J0D01*
G01*
X97931250Y-80725000D01*
G75*
G02*
X98150000Y-80943750I0J-218750D01*
G01*
G37*
G36*
G01*
X99725000Y-80943750D02*
X99725000Y-81456250D01*
G75*
G02*
X99506250Y-81675000I-218750J0D01*
G01*
X99068750Y-81675000D01*
G75*
G02*
X98850000Y-81456250I0J218750D01*
G01*
X98850000Y-80943750D01*
G75*
G02*
X99068750Y-80725000I218750J0D01*
G01*
X99506250Y-80725000D01*
G75*
G02*
X99725000Y-80943750I0J-218750D01*
G01*
G37*
G36*
G01*
X127737500Y-54956250D02*
X127737500Y-54443750D01*
G75*
G02*
X127956250Y-54225000I218750J0D01*
G01*
X128393750Y-54225000D01*
G75*
G02*
X128612500Y-54443750I0J-218750D01*
G01*
X128612500Y-54956250D01*
G75*
G02*
X128393750Y-55175000I-218750J0D01*
G01*
X127956250Y-55175000D01*
G75*
G02*
X127737500Y-54956250I0J218750D01*
G01*
G37*
G36*
G01*
X126162500Y-54956250D02*
X126162500Y-54443750D01*
G75*
G02*
X126381250Y-54225000I218750J0D01*
G01*
X126818750Y-54225000D01*
G75*
G02*
X127037500Y-54443750I0J-218750D01*
G01*
X127037500Y-54956250D01*
G75*
G02*
X126818750Y-55175000I-218750J0D01*
G01*
X126381250Y-55175000D01*
G75*
G02*
X126162500Y-54956250I0J218750D01*
G01*
G37*
D20*
X126400000Y-52200000D03*
X123100000Y-52200000D03*
G36*
G01*
X101462500Y-93656250D02*
X101462500Y-93143750D01*
G75*
G02*
X101681250Y-92925000I218750J0D01*
G01*
X102118750Y-92925000D01*
G75*
G02*
X102337500Y-93143750I0J-218750D01*
G01*
X102337500Y-93656250D01*
G75*
G02*
X102118750Y-93875000I-218750J0D01*
G01*
X101681250Y-93875000D01*
G75*
G02*
X101462500Y-93656250I0J218750D01*
G01*
G37*
G36*
G01*
X99887500Y-93656250D02*
X99887500Y-93143750D01*
G75*
G02*
X100106250Y-92925000I218750J0D01*
G01*
X100543750Y-92925000D01*
G75*
G02*
X100762500Y-93143750I0J-218750D01*
G01*
X100762500Y-93656250D01*
G75*
G02*
X100543750Y-93875000I-218750J0D01*
G01*
X100106250Y-93875000D01*
G75*
G02*
X99887500Y-93656250I0J218750D01*
G01*
G37*
G36*
G01*
X101462500Y-95156250D02*
X101462500Y-94643750D01*
G75*
G02*
X101681250Y-94425000I218750J0D01*
G01*
X102118750Y-94425000D01*
G75*
G02*
X102337500Y-94643750I0J-218750D01*
G01*
X102337500Y-95156250D01*
G75*
G02*
X102118750Y-95375000I-218750J0D01*
G01*
X101681250Y-95375000D01*
G75*
G02*
X101462500Y-95156250I0J218750D01*
G01*
G37*
G36*
G01*
X99887500Y-95156250D02*
X99887500Y-94643750D01*
G75*
G02*
X100106250Y-94425000I218750J0D01*
G01*
X100543750Y-94425000D01*
G75*
G02*
X100762500Y-94643750I0J-218750D01*
G01*
X100762500Y-95156250D01*
G75*
G02*
X100543750Y-95375000I-218750J0D01*
G01*
X100106250Y-95375000D01*
G75*
G02*
X99887500Y-95156250I0J218750D01*
G01*
G37*
G36*
G01*
X101462500Y-96656250D02*
X101462500Y-96143750D01*
G75*
G02*
X101681250Y-95925000I218750J0D01*
G01*
X102118750Y-95925000D01*
G75*
G02*
X102337500Y-96143750I0J-218750D01*
G01*
X102337500Y-96656250D01*
G75*
G02*
X102118750Y-96875000I-218750J0D01*
G01*
X101681250Y-96875000D01*
G75*
G02*
X101462500Y-96656250I0J218750D01*
G01*
G37*
G36*
G01*
X99887500Y-96656250D02*
X99887500Y-96143750D01*
G75*
G02*
X100106250Y-95925000I218750J0D01*
G01*
X100543750Y-95925000D01*
G75*
G02*
X100762500Y-96143750I0J-218750D01*
G01*
X100762500Y-96656250D01*
G75*
G02*
X100543750Y-96875000I-218750J0D01*
G01*
X100106250Y-96875000D01*
G75*
G02*
X99887500Y-96656250I0J218750D01*
G01*
G37*
G36*
G01*
X101462500Y-98156250D02*
X101462500Y-97643750D01*
G75*
G02*
X101681250Y-97425000I218750J0D01*
G01*
X102118750Y-97425000D01*
G75*
G02*
X102337500Y-97643750I0J-218750D01*
G01*
X102337500Y-98156250D01*
G75*
G02*
X102118750Y-98375000I-218750J0D01*
G01*
X101681250Y-98375000D01*
G75*
G02*
X101462500Y-98156250I0J218750D01*
G01*
G37*
G36*
G01*
X99887500Y-98156250D02*
X99887500Y-97643750D01*
G75*
G02*
X100106250Y-97425000I218750J0D01*
G01*
X100543750Y-97425000D01*
G75*
G02*
X100762500Y-97643750I0J-218750D01*
G01*
X100762500Y-98156250D01*
G75*
G02*
X100543750Y-98375000I-218750J0D01*
G01*
X100106250Y-98375000D01*
G75*
G02*
X99887500Y-98156250I0J218750D01*
G01*
G37*
D21*
X50103500Y-44908500D03*
X50103500Y-48208500D03*
D20*
X41790000Y-45940000D03*
X45090000Y-45940000D03*
D22*
X103645000Y-83210000D03*
X101445000Y-83210000D03*
X101445000Y-81510000D03*
X103645000Y-81510000D03*
D23*
X90042000Y-71161000D03*
X82422000Y-76241000D03*
X90042000Y-73701000D03*
X82422000Y-73701000D03*
X90042000Y-76241000D03*
X82422000Y-71161000D03*
X79618000Y-71158000D03*
X71998000Y-76238000D03*
X79618000Y-73698000D03*
X71998000Y-73698000D03*
X79618000Y-76238000D03*
X71998000Y-71158000D03*
G36*
G01*
X109384000Y-54214000D02*
X109084000Y-54214000D01*
G75*
G02*
X108934000Y-54064000I0J150000D01*
G01*
X108934000Y-52414000D01*
G75*
G02*
X109084000Y-52264000I150000J0D01*
G01*
X109384000Y-52264000D01*
G75*
G02*
X109534000Y-52414000I0J-150000D01*
G01*
X109534000Y-54064000D01*
G75*
G02*
X109384000Y-54214000I-150000J0D01*
G01*
G37*
G36*
G01*
X110654000Y-54214000D02*
X110354000Y-54214000D01*
G75*
G02*
X110204000Y-54064000I0J150000D01*
G01*
X110204000Y-52414000D01*
G75*
G02*
X110354000Y-52264000I150000J0D01*
G01*
X110654000Y-52264000D01*
G75*
G02*
X110804000Y-52414000I0J-150000D01*
G01*
X110804000Y-54064000D01*
G75*
G02*
X110654000Y-54214000I-150000J0D01*
G01*
G37*
G36*
G01*
X111924000Y-54214000D02*
X111624000Y-54214000D01*
G75*
G02*
X111474000Y-54064000I0J150000D01*
G01*
X111474000Y-52414000D01*
G75*
G02*
X111624000Y-52264000I150000J0D01*
G01*
X111924000Y-52264000D01*
G75*
G02*
X112074000Y-52414000I0J-150000D01*
G01*
X112074000Y-54064000D01*
G75*
G02*
X111924000Y-54214000I-150000J0D01*
G01*
G37*
G36*
G01*
X113194000Y-54214000D02*
X112894000Y-54214000D01*
G75*
G02*
X112744000Y-54064000I0J150000D01*
G01*
X112744000Y-52414000D01*
G75*
G02*
X112894000Y-52264000I150000J0D01*
G01*
X113194000Y-52264000D01*
G75*
G02*
X113344000Y-52414000I0J-150000D01*
G01*
X113344000Y-54064000D01*
G75*
G02*
X113194000Y-54214000I-150000J0D01*
G01*
G37*
G36*
G01*
X113194000Y-59164000D02*
X112894000Y-59164000D01*
G75*
G02*
X112744000Y-59014000I0J150000D01*
G01*
X112744000Y-57364000D01*
G75*
G02*
X112894000Y-57214000I150000J0D01*
G01*
X113194000Y-57214000D01*
G75*
G02*
X113344000Y-57364000I0J-150000D01*
G01*
X113344000Y-59014000D01*
G75*
G02*
X113194000Y-59164000I-150000J0D01*
G01*
G37*
G36*
G01*
X111924000Y-59164000D02*
X111624000Y-59164000D01*
G75*
G02*
X111474000Y-59014000I0J150000D01*
G01*
X111474000Y-57364000D01*
G75*
G02*
X111624000Y-57214000I150000J0D01*
G01*
X111924000Y-57214000D01*
G75*
G02*
X112074000Y-57364000I0J-150000D01*
G01*
X112074000Y-59014000D01*
G75*
G02*
X111924000Y-59164000I-150000J0D01*
G01*
G37*
G36*
G01*
X110654000Y-59164000D02*
X110354000Y-59164000D01*
G75*
G02*
X110204000Y-59014000I0J150000D01*
G01*
X110204000Y-57364000D01*
G75*
G02*
X110354000Y-57214000I150000J0D01*
G01*
X110654000Y-57214000D01*
G75*
G02*
X110804000Y-57364000I0J-150000D01*
G01*
X110804000Y-59014000D01*
G75*
G02*
X110654000Y-59164000I-150000J0D01*
G01*
G37*
G36*
G01*
X109384000Y-59164000D02*
X109084000Y-59164000D01*
G75*
G02*
X108934000Y-59014000I0J150000D01*
G01*
X108934000Y-57364000D01*
G75*
G02*
X109084000Y-57214000I150000J0D01*
G01*
X109384000Y-57214000D01*
G75*
G02*
X109534000Y-57364000I0J-150000D01*
G01*
X109534000Y-59014000D01*
G75*
G02*
X109384000Y-59164000I-150000J0D01*
G01*
G37*
D13*
X52492500Y-51482500D03*
X51192500Y-51482500D03*
X51842500Y-49582500D03*
X51192500Y-49582500D03*
X52492500Y-49582500D03*
X47092500Y-49772500D03*
X45792500Y-49772500D03*
X46442500Y-47872500D03*
X45792500Y-47872500D03*
X47092500Y-47872500D03*
D23*
X100480000Y-61261000D03*
X92860000Y-66341000D03*
X100480000Y-63801000D03*
X92860000Y-63801000D03*
X100480000Y-66341000D03*
X92860000Y-61261000D03*
X100491000Y-71161000D03*
X92871000Y-76241000D03*
X100491000Y-73701000D03*
X92871000Y-73701000D03*
X100491000Y-76241000D03*
X92871000Y-71161000D03*
X69328000Y-71158000D03*
X61708000Y-76238000D03*
X69328000Y-73698000D03*
X61708000Y-73698000D03*
X69328000Y-76238000D03*
X61708000Y-71158000D03*
X90080000Y-61258000D03*
X82460000Y-66338000D03*
X90080000Y-63798000D03*
X82460000Y-63798000D03*
X90080000Y-66338000D03*
X82460000Y-61258000D03*
X79691000Y-61258000D03*
X72071000Y-66338000D03*
X79691000Y-63798000D03*
X72071000Y-63798000D03*
X79691000Y-66338000D03*
X72071000Y-61258000D03*
X69337000Y-61258000D03*
X61717000Y-66338000D03*
X69337000Y-63798000D03*
X61717000Y-63798000D03*
X69337000Y-66338000D03*
X61717000Y-61258000D03*
X58936000Y-61261000D03*
X51316000Y-66341000D03*
X58936000Y-63801000D03*
X51316000Y-63801000D03*
X58936000Y-66341000D03*
X51316000Y-61261000D03*
G36*
G01*
X68376000Y-95164000D02*
X68376000Y-94864000D01*
G75*
G02*
X68526000Y-94714000I150000J0D01*
G01*
X70176000Y-94714000D01*
G75*
G02*
X70326000Y-94864000I0J-150000D01*
G01*
X70326000Y-95164000D01*
G75*
G02*
X70176000Y-95314000I-150000J0D01*
G01*
X68526000Y-95314000D01*
G75*
G02*
X68376000Y-95164000I0J150000D01*
G01*
G37*
G36*
G01*
X68376000Y-96434000D02*
X68376000Y-96134000D01*
G75*
G02*
X68526000Y-95984000I150000J0D01*
G01*
X70176000Y-95984000D01*
G75*
G02*
X70326000Y-96134000I0J-150000D01*
G01*
X70326000Y-96434000D01*
G75*
G02*
X70176000Y-96584000I-150000J0D01*
G01*
X68526000Y-96584000D01*
G75*
G02*
X68376000Y-96434000I0J150000D01*
G01*
G37*
G36*
G01*
X68376000Y-97704000D02*
X68376000Y-97404000D01*
G75*
G02*
X68526000Y-97254000I150000J0D01*
G01*
X70176000Y-97254000D01*
G75*
G02*
X70326000Y-97404000I0J-150000D01*
G01*
X70326000Y-97704000D01*
G75*
G02*
X70176000Y-97854000I-150000J0D01*
G01*
X68526000Y-97854000D01*
G75*
G02*
X68376000Y-97704000I0J150000D01*
G01*
G37*
G36*
G01*
X68376000Y-98974000D02*
X68376000Y-98674000D01*
G75*
G02*
X68526000Y-98524000I150000J0D01*
G01*
X70176000Y-98524000D01*
G75*
G02*
X70326000Y-98674000I0J-150000D01*
G01*
X70326000Y-98974000D01*
G75*
G02*
X70176000Y-99124000I-150000J0D01*
G01*
X68526000Y-99124000D01*
G75*
G02*
X68376000Y-98974000I0J150000D01*
G01*
G37*
G36*
G01*
X63426000Y-98974000D02*
X63426000Y-98674000D01*
G75*
G02*
X63576000Y-98524000I150000J0D01*
G01*
X65226000Y-98524000D01*
G75*
G02*
X65376000Y-98674000I0J-150000D01*
G01*
X65376000Y-98974000D01*
G75*
G02*
X65226000Y-99124000I-150000J0D01*
G01*
X63576000Y-99124000D01*
G75*
G02*
X63426000Y-98974000I0J150000D01*
G01*
G37*
G36*
G01*
X63426000Y-97704000D02*
X63426000Y-97404000D01*
G75*
G02*
X63576000Y-97254000I150000J0D01*
G01*
X65226000Y-97254000D01*
G75*
G02*
X65376000Y-97404000I0J-150000D01*
G01*
X65376000Y-97704000D01*
G75*
G02*
X65226000Y-97854000I-150000J0D01*
G01*
X63576000Y-97854000D01*
G75*
G02*
X63426000Y-97704000I0J150000D01*
G01*
G37*
G36*
G01*
X63426000Y-96434000D02*
X63426000Y-96134000D01*
G75*
G02*
X63576000Y-95984000I150000J0D01*
G01*
X65226000Y-95984000D01*
G75*
G02*
X65376000Y-96134000I0J-150000D01*
G01*
X65376000Y-96434000D01*
G75*
G02*
X65226000Y-96584000I-150000J0D01*
G01*
X63576000Y-96584000D01*
G75*
G02*
X63426000Y-96434000I0J150000D01*
G01*
G37*
G36*
G01*
X63426000Y-95164000D02*
X63426000Y-94864000D01*
G75*
G02*
X63576000Y-94714000I150000J0D01*
G01*
X65226000Y-94714000D01*
G75*
G02*
X65376000Y-94864000I0J-150000D01*
G01*
X65376000Y-95164000D01*
G75*
G02*
X65226000Y-95314000I-150000J0D01*
G01*
X63576000Y-95314000D01*
G75*
G02*
X63426000Y-95164000I0J150000D01*
G01*
G37*
G36*
G01*
X83037000Y-68978000D02*
X83037000Y-68428000D01*
G75*
G02*
X83237000Y-68228000I200000J0D01*
G01*
X83637000Y-68228000D01*
G75*
G02*
X83837000Y-68428000I0J-200000D01*
G01*
X83837000Y-68978000D01*
G75*
G02*
X83637000Y-69178000I-200000J0D01*
G01*
X83237000Y-69178000D01*
G75*
G02*
X83037000Y-68978000I0J200000D01*
G01*
G37*
G36*
G01*
X81387000Y-68978000D02*
X81387000Y-68428000D01*
G75*
G02*
X81587000Y-68228000I200000J0D01*
G01*
X81987000Y-68228000D01*
G75*
G02*
X82187000Y-68428000I0J-200000D01*
G01*
X82187000Y-68978000D01*
G75*
G02*
X81987000Y-69178000I-200000J0D01*
G01*
X81587000Y-69178000D01*
G75*
G02*
X81387000Y-68978000I0J200000D01*
G01*
G37*
G36*
G01*
X72613000Y-69068000D02*
X72613000Y-68518000D01*
G75*
G02*
X72813000Y-68318000I200000J0D01*
G01*
X73213000Y-68318000D01*
G75*
G02*
X73413000Y-68518000I0J-200000D01*
G01*
X73413000Y-69068000D01*
G75*
G02*
X73213000Y-69268000I-200000J0D01*
G01*
X72813000Y-69268000D01*
G75*
G02*
X72613000Y-69068000I0J200000D01*
G01*
G37*
G36*
G01*
X70963000Y-69068000D02*
X70963000Y-68518000D01*
G75*
G02*
X71163000Y-68318000I200000J0D01*
G01*
X71563000Y-68318000D01*
G75*
G02*
X71763000Y-68518000I0J-200000D01*
G01*
X71763000Y-69068000D01*
G75*
G02*
X71563000Y-69268000I-200000J0D01*
G01*
X71163000Y-69268000D01*
G75*
G02*
X70963000Y-69068000I0J200000D01*
G01*
G37*
G36*
G01*
X127850000Y-56475000D02*
X127850000Y-55925000D01*
G75*
G02*
X128050000Y-55725000I200000J0D01*
G01*
X128450000Y-55725000D01*
G75*
G02*
X128650000Y-55925000I0J-200000D01*
G01*
X128650000Y-56475000D01*
G75*
G02*
X128450000Y-56675000I-200000J0D01*
G01*
X128050000Y-56675000D01*
G75*
G02*
X127850000Y-56475000I0J200000D01*
G01*
G37*
G36*
G01*
X126200000Y-56475000D02*
X126200000Y-55925000D01*
G75*
G02*
X126400000Y-55725000I200000J0D01*
G01*
X126800000Y-55725000D01*
G75*
G02*
X127000000Y-55925000I0J-200000D01*
G01*
X127000000Y-56475000D01*
G75*
G02*
X126800000Y-56675000I-200000J0D01*
G01*
X126400000Y-56675000D01*
G75*
G02*
X126200000Y-56475000I0J200000D01*
G01*
G37*
G36*
G01*
X121325000Y-52800000D02*
X121875000Y-52800000D01*
G75*
G02*
X122075000Y-53000000I0J-200000D01*
G01*
X122075000Y-53400000D01*
G75*
G02*
X121875000Y-53600000I-200000J0D01*
G01*
X121325000Y-53600000D01*
G75*
G02*
X121125000Y-53400000I0J200000D01*
G01*
X121125000Y-53000000D01*
G75*
G02*
X121325000Y-52800000I200000J0D01*
G01*
G37*
G36*
G01*
X121325000Y-51150000D02*
X121875000Y-51150000D01*
G75*
G02*
X122075000Y-51350000I0J-200000D01*
G01*
X122075000Y-51750000D01*
G75*
G02*
X121875000Y-51950000I-200000J0D01*
G01*
X121325000Y-51950000D01*
G75*
G02*
X121125000Y-51750000I0J200000D01*
G01*
X121125000Y-51350000D01*
G75*
G02*
X121325000Y-51150000I200000J0D01*
G01*
G37*
G36*
G01*
X113315000Y-50655000D02*
X113865000Y-50655000D01*
G75*
G02*
X114065000Y-50855000I0J-200000D01*
G01*
X114065000Y-51255000D01*
G75*
G02*
X113865000Y-51455000I-200000J0D01*
G01*
X113315000Y-51455000D01*
G75*
G02*
X113115000Y-51255000I0J200000D01*
G01*
X113115000Y-50855000D01*
G75*
G02*
X113315000Y-50655000I200000J0D01*
G01*
G37*
G36*
G01*
X113315000Y-49005000D02*
X113865000Y-49005000D01*
G75*
G02*
X114065000Y-49205000I0J-200000D01*
G01*
X114065000Y-49605000D01*
G75*
G02*
X113865000Y-49805000I-200000J0D01*
G01*
X113315000Y-49805000D01*
G75*
G02*
X113115000Y-49605000I0J200000D01*
G01*
X113115000Y-49205000D01*
G75*
G02*
X113315000Y-49005000I200000J0D01*
G01*
G37*
G36*
G01*
X103879000Y-93125000D02*
X103879000Y-93675000D01*
G75*
G02*
X103679000Y-93875000I-200000J0D01*
G01*
X103279000Y-93875000D01*
G75*
G02*
X103079000Y-93675000I0J200000D01*
G01*
X103079000Y-93125000D01*
G75*
G02*
X103279000Y-92925000I200000J0D01*
G01*
X103679000Y-92925000D01*
G75*
G02*
X103879000Y-93125000I0J-200000D01*
G01*
G37*
G36*
G01*
X105529000Y-93125000D02*
X105529000Y-93675000D01*
G75*
G02*
X105329000Y-93875000I-200000J0D01*
G01*
X104929000Y-93875000D01*
G75*
G02*
X104729000Y-93675000I0J200000D01*
G01*
X104729000Y-93125000D01*
G75*
G02*
X104929000Y-92925000I200000J0D01*
G01*
X105329000Y-92925000D01*
G75*
G02*
X105529000Y-93125000I0J-200000D01*
G01*
G37*
G36*
G01*
X103879000Y-94625000D02*
X103879000Y-95175000D01*
G75*
G02*
X103679000Y-95375000I-200000J0D01*
G01*
X103279000Y-95375000D01*
G75*
G02*
X103079000Y-95175000I0J200000D01*
G01*
X103079000Y-94625000D01*
G75*
G02*
X103279000Y-94425000I200000J0D01*
G01*
X103679000Y-94425000D01*
G75*
G02*
X103879000Y-94625000I0J-200000D01*
G01*
G37*
G36*
G01*
X105529000Y-94625000D02*
X105529000Y-95175000D01*
G75*
G02*
X105329000Y-95375000I-200000J0D01*
G01*
X104929000Y-95375000D01*
G75*
G02*
X104729000Y-95175000I0J200000D01*
G01*
X104729000Y-94625000D01*
G75*
G02*
X104929000Y-94425000I200000J0D01*
G01*
X105329000Y-94425000D01*
G75*
G02*
X105529000Y-94625000I0J-200000D01*
G01*
G37*
G36*
G01*
X103879000Y-96125000D02*
X103879000Y-96675000D01*
G75*
G02*
X103679000Y-96875000I-200000J0D01*
G01*
X103279000Y-96875000D01*
G75*
G02*
X103079000Y-96675000I0J200000D01*
G01*
X103079000Y-96125000D01*
G75*
G02*
X103279000Y-95925000I200000J0D01*
G01*
X103679000Y-95925000D01*
G75*
G02*
X103879000Y-96125000I0J-200000D01*
G01*
G37*
G36*
G01*
X105529000Y-96125000D02*
X105529000Y-96675000D01*
G75*
G02*
X105329000Y-96875000I-200000J0D01*
G01*
X104929000Y-96875000D01*
G75*
G02*
X104729000Y-96675000I0J200000D01*
G01*
X104729000Y-96125000D01*
G75*
G02*
X104929000Y-95925000I200000J0D01*
G01*
X105329000Y-95925000D01*
G75*
G02*
X105529000Y-96125000I0J-200000D01*
G01*
G37*
G36*
G01*
X103879000Y-97625000D02*
X103879000Y-98175000D01*
G75*
G02*
X103679000Y-98375000I-200000J0D01*
G01*
X103279000Y-98375000D01*
G75*
G02*
X103079000Y-98175000I0J200000D01*
G01*
X103079000Y-97625000D01*
G75*
G02*
X103279000Y-97425000I200000J0D01*
G01*
X103679000Y-97425000D01*
G75*
G02*
X103879000Y-97625000I0J-200000D01*
G01*
G37*
G36*
G01*
X105529000Y-97625000D02*
X105529000Y-98175000D01*
G75*
G02*
X105329000Y-98375000I-200000J0D01*
G01*
X104929000Y-98375000D01*
G75*
G02*
X104729000Y-98175000I0J200000D01*
G01*
X104729000Y-97625000D01*
G75*
G02*
X104929000Y-97425000I200000J0D01*
G01*
X105329000Y-97425000D01*
G75*
G02*
X105529000Y-97625000I0J-200000D01*
G01*
G37*
G36*
G01*
X53218500Y-47853500D02*
X53768500Y-47853500D01*
G75*
G02*
X53968500Y-48053500I0J-200000D01*
G01*
X53968500Y-48453500D01*
G75*
G02*
X53768500Y-48653500I-200000J0D01*
G01*
X53218500Y-48653500D01*
G75*
G02*
X53018500Y-48453500I0J200000D01*
G01*
X53018500Y-48053500D01*
G75*
G02*
X53218500Y-47853500I200000J0D01*
G01*
G37*
G36*
G01*
X53218500Y-46203500D02*
X53768500Y-46203500D01*
G75*
G02*
X53968500Y-46403500I0J-200000D01*
G01*
X53968500Y-46803500D01*
G75*
G02*
X53768500Y-47003500I-200000J0D01*
G01*
X53218500Y-47003500D01*
G75*
G02*
X53018500Y-46803500I0J200000D01*
G01*
X53018500Y-46403500D01*
G75*
G02*
X53218500Y-46203500I200000J0D01*
G01*
G37*
G36*
G01*
X52308000Y-47003500D02*
X51758000Y-47003500D01*
G75*
G02*
X51558000Y-46803500I0J200000D01*
G01*
X51558000Y-46403500D01*
G75*
G02*
X51758000Y-46203500I200000J0D01*
G01*
X52308000Y-46203500D01*
G75*
G02*
X52508000Y-46403500I0J-200000D01*
G01*
X52508000Y-46803500D01*
G75*
G02*
X52308000Y-47003500I-200000J0D01*
G01*
G37*
G36*
G01*
X52308000Y-48653500D02*
X51758000Y-48653500D01*
G75*
G02*
X51558000Y-48453500I0J200000D01*
G01*
X51558000Y-48053500D01*
G75*
G02*
X51758000Y-47853500I200000J0D01*
G01*
X52308000Y-47853500D01*
G75*
G02*
X52508000Y-48053500I0J-200000D01*
G01*
X52508000Y-48453500D01*
G75*
G02*
X52308000Y-48653500I-200000J0D01*
G01*
G37*
G36*
G01*
X47818500Y-46143500D02*
X48368500Y-46143500D01*
G75*
G02*
X48568500Y-46343500I0J-200000D01*
G01*
X48568500Y-46743500D01*
G75*
G02*
X48368500Y-46943500I-200000J0D01*
G01*
X47818500Y-46943500D01*
G75*
G02*
X47618500Y-46743500I0J200000D01*
G01*
X47618500Y-46343500D01*
G75*
G02*
X47818500Y-46143500I200000J0D01*
G01*
G37*
G36*
G01*
X47818500Y-44493500D02*
X48368500Y-44493500D01*
G75*
G02*
X48568500Y-44693500I0J-200000D01*
G01*
X48568500Y-45093500D01*
G75*
G02*
X48368500Y-45293500I-200000J0D01*
G01*
X47818500Y-45293500D01*
G75*
G02*
X47618500Y-45093500I0J200000D01*
G01*
X47618500Y-44693500D01*
G75*
G02*
X47818500Y-44493500I200000J0D01*
G01*
G37*
G36*
G01*
X46908000Y-45293500D02*
X46358000Y-45293500D01*
G75*
G02*
X46158000Y-45093500I0J200000D01*
G01*
X46158000Y-44693500D01*
G75*
G02*
X46358000Y-44493500I200000J0D01*
G01*
X46908000Y-44493500D01*
G75*
G02*
X47108000Y-44693500I0J-200000D01*
G01*
X47108000Y-45093500D01*
G75*
G02*
X46908000Y-45293500I-200000J0D01*
G01*
G37*
G36*
G01*
X46908000Y-46943500D02*
X46358000Y-46943500D01*
G75*
G02*
X46158000Y-46743500I0J200000D01*
G01*
X46158000Y-46343500D01*
G75*
G02*
X46358000Y-46143500I200000J0D01*
G01*
X46908000Y-46143500D01*
G75*
G02*
X47108000Y-46343500I0J-200000D01*
G01*
X47108000Y-46743500D01*
G75*
G02*
X46908000Y-46943500I-200000J0D01*
G01*
G37*
G36*
G01*
X93475000Y-59078000D02*
X93475000Y-58528000D01*
G75*
G02*
X93675000Y-58328000I200000J0D01*
G01*
X94075000Y-58328000D01*
G75*
G02*
X94275000Y-58528000I0J-200000D01*
G01*
X94275000Y-59078000D01*
G75*
G02*
X94075000Y-59278000I-200000J0D01*
G01*
X93675000Y-59278000D01*
G75*
G02*
X93475000Y-59078000I0J200000D01*
G01*
G37*
G36*
G01*
X91825000Y-59078000D02*
X91825000Y-58528000D01*
G75*
G02*
X92025000Y-58328000I200000J0D01*
G01*
X92425000Y-58328000D01*
G75*
G02*
X92625000Y-58528000I0J-200000D01*
G01*
X92625000Y-59078000D01*
G75*
G02*
X92425000Y-59278000I-200000J0D01*
G01*
X92025000Y-59278000D01*
G75*
G02*
X91825000Y-59078000I0J200000D01*
G01*
G37*
G36*
G01*
X93486000Y-68978000D02*
X93486000Y-68428000D01*
G75*
G02*
X93686000Y-68228000I200000J0D01*
G01*
X94086000Y-68228000D01*
G75*
G02*
X94286000Y-68428000I0J-200000D01*
G01*
X94286000Y-68978000D01*
G75*
G02*
X94086000Y-69178000I-200000J0D01*
G01*
X93686000Y-69178000D01*
G75*
G02*
X93486000Y-68978000I0J200000D01*
G01*
G37*
G36*
G01*
X91836000Y-68978000D02*
X91836000Y-68428000D01*
G75*
G02*
X92036000Y-68228000I200000J0D01*
G01*
X92436000Y-68228000D01*
G75*
G02*
X92636000Y-68428000I0J-200000D01*
G01*
X92636000Y-68978000D01*
G75*
G02*
X92436000Y-69178000I-200000J0D01*
G01*
X92036000Y-69178000D01*
G75*
G02*
X91836000Y-68978000I0J200000D01*
G01*
G37*
G36*
G01*
X62323000Y-69068000D02*
X62323000Y-68518000D01*
G75*
G02*
X62523000Y-68318000I200000J0D01*
G01*
X62923000Y-68318000D01*
G75*
G02*
X63123000Y-68518000I0J-200000D01*
G01*
X63123000Y-69068000D01*
G75*
G02*
X62923000Y-69268000I-200000J0D01*
G01*
X62523000Y-69268000D01*
G75*
G02*
X62323000Y-69068000I0J200000D01*
G01*
G37*
G36*
G01*
X60673000Y-69068000D02*
X60673000Y-68518000D01*
G75*
G02*
X60873000Y-68318000I200000J0D01*
G01*
X61273000Y-68318000D01*
G75*
G02*
X61473000Y-68518000I0J-200000D01*
G01*
X61473000Y-69068000D01*
G75*
G02*
X61273000Y-69268000I-200000J0D01*
G01*
X60873000Y-69268000D01*
G75*
G02*
X60673000Y-69068000I0J200000D01*
G01*
G37*
G36*
G01*
X83075000Y-59168000D02*
X83075000Y-58618000D01*
G75*
G02*
X83275000Y-58418000I200000J0D01*
G01*
X83675000Y-58418000D01*
G75*
G02*
X83875000Y-58618000I0J-200000D01*
G01*
X83875000Y-59168000D01*
G75*
G02*
X83675000Y-59368000I-200000J0D01*
G01*
X83275000Y-59368000D01*
G75*
G02*
X83075000Y-59168000I0J200000D01*
G01*
G37*
G36*
G01*
X81425000Y-59168000D02*
X81425000Y-58618000D01*
G75*
G02*
X81625000Y-58418000I200000J0D01*
G01*
X82025000Y-58418000D01*
G75*
G02*
X82225000Y-58618000I0J-200000D01*
G01*
X82225000Y-59168000D01*
G75*
G02*
X82025000Y-59368000I-200000J0D01*
G01*
X81625000Y-59368000D01*
G75*
G02*
X81425000Y-59168000I0J200000D01*
G01*
G37*
G36*
G01*
X72686000Y-59175000D02*
X72686000Y-58625000D01*
G75*
G02*
X72886000Y-58425000I200000J0D01*
G01*
X73286000Y-58425000D01*
G75*
G02*
X73486000Y-58625000I0J-200000D01*
G01*
X73486000Y-59175000D01*
G75*
G02*
X73286000Y-59375000I-200000J0D01*
G01*
X72886000Y-59375000D01*
G75*
G02*
X72686000Y-59175000I0J200000D01*
G01*
G37*
G36*
G01*
X71036000Y-59175000D02*
X71036000Y-58625000D01*
G75*
G02*
X71236000Y-58425000I200000J0D01*
G01*
X71636000Y-58425000D01*
G75*
G02*
X71836000Y-58625000I0J-200000D01*
G01*
X71836000Y-59175000D01*
G75*
G02*
X71636000Y-59375000I-200000J0D01*
G01*
X71236000Y-59375000D01*
G75*
G02*
X71036000Y-59175000I0J200000D01*
G01*
G37*
G36*
G01*
X62345000Y-59195000D02*
X62345000Y-58645000D01*
G75*
G02*
X62545000Y-58445000I200000J0D01*
G01*
X62945000Y-58445000D01*
G75*
G02*
X63145000Y-58645000I0J-200000D01*
G01*
X63145000Y-59195000D01*
G75*
G02*
X62945000Y-59395000I-200000J0D01*
G01*
X62545000Y-59395000D01*
G75*
G02*
X62345000Y-59195000I0J200000D01*
G01*
G37*
G36*
G01*
X60695000Y-59195000D02*
X60695000Y-58645000D01*
G75*
G02*
X60895000Y-58445000I200000J0D01*
G01*
X61295000Y-58445000D01*
G75*
G02*
X61495000Y-58645000I0J-200000D01*
G01*
X61495000Y-59195000D01*
G75*
G02*
X61295000Y-59395000I-200000J0D01*
G01*
X60895000Y-59395000D01*
G75*
G02*
X60695000Y-59195000I0J200000D01*
G01*
G37*
G36*
G01*
X51931000Y-59078000D02*
X51931000Y-58528000D01*
G75*
G02*
X52131000Y-58328000I200000J0D01*
G01*
X52531000Y-58328000D01*
G75*
G02*
X52731000Y-58528000I0J-200000D01*
G01*
X52731000Y-59078000D01*
G75*
G02*
X52531000Y-59278000I-200000J0D01*
G01*
X52131000Y-59278000D01*
G75*
G02*
X51931000Y-59078000I0J200000D01*
G01*
G37*
G36*
G01*
X50281000Y-59078000D02*
X50281000Y-58528000D01*
G75*
G02*
X50481000Y-58328000I200000J0D01*
G01*
X50881000Y-58328000D01*
G75*
G02*
X51081000Y-58528000I0J-200000D01*
G01*
X51081000Y-59078000D01*
G75*
G02*
X50881000Y-59278000I-200000J0D01*
G01*
X50481000Y-59278000D01*
G75*
G02*
X50281000Y-59078000I0J200000D01*
G01*
G37*
G36*
G01*
X71635000Y-99295000D02*
X71085000Y-99295000D01*
G75*
G02*
X70885000Y-99095000I0J200000D01*
G01*
X70885000Y-98695000D01*
G75*
G02*
X71085000Y-98495000I200000J0D01*
G01*
X71635000Y-98495000D01*
G75*
G02*
X71835000Y-98695000I0J-200000D01*
G01*
X71835000Y-99095000D01*
G75*
G02*
X71635000Y-99295000I-200000J0D01*
G01*
G37*
G36*
G01*
X71635000Y-100945000D02*
X71085000Y-100945000D01*
G75*
G02*
X70885000Y-100745000I0J200000D01*
G01*
X70885000Y-100345000D01*
G75*
G02*
X71085000Y-100145000I200000J0D01*
G01*
X71635000Y-100145000D01*
G75*
G02*
X71835000Y-100345000I0J-200000D01*
G01*
X71835000Y-100745000D01*
G75*
G02*
X71635000Y-100945000I-200000J0D01*
G01*
G37*
G36*
G01*
X73355000Y-98085000D02*
X72805000Y-98085000D01*
G75*
G02*
X72605000Y-97885000I0J200000D01*
G01*
X72605000Y-97485000D01*
G75*
G02*
X72805000Y-97285000I200000J0D01*
G01*
X73355000Y-97285000D01*
G75*
G02*
X73555000Y-97485000I0J-200000D01*
G01*
X73555000Y-97885000D01*
G75*
G02*
X73355000Y-98085000I-200000J0D01*
G01*
G37*
G36*
G01*
X73355000Y-99735000D02*
X72805000Y-99735000D01*
G75*
G02*
X72605000Y-99535000I0J200000D01*
G01*
X72605000Y-99135000D01*
G75*
G02*
X72805000Y-98935000I200000J0D01*
G01*
X73355000Y-98935000D01*
G75*
G02*
X73555000Y-99135000I0J-200000D01*
G01*
X73555000Y-99535000D01*
G75*
G02*
X73355000Y-99735000I-200000J0D01*
G01*
G37*
G36*
G01*
X105765000Y-83055000D02*
X105765000Y-83605000D01*
G75*
G02*
X105565000Y-83805000I-200000J0D01*
G01*
X105165000Y-83805000D01*
G75*
G02*
X104965000Y-83605000I0J200000D01*
G01*
X104965000Y-83055000D01*
G75*
G02*
X105165000Y-82855000I200000J0D01*
G01*
X105565000Y-82855000D01*
G75*
G02*
X105765000Y-83055000I0J-200000D01*
G01*
G37*
G36*
G01*
X107415000Y-83055000D02*
X107415000Y-83605000D01*
G75*
G02*
X107215000Y-83805000I-200000J0D01*
G01*
X106815000Y-83805000D01*
G75*
G02*
X106615000Y-83605000I0J200000D01*
G01*
X106615000Y-83055000D01*
G75*
G02*
X106815000Y-82855000I200000J0D01*
G01*
X107215000Y-82855000D01*
G75*
G02*
X107415000Y-83055000I0J-200000D01*
G01*
G37*
G36*
G01*
X99405000Y-87285000D02*
X99405000Y-86735000D01*
G75*
G02*
X99605000Y-86535000I200000J0D01*
G01*
X100005000Y-86535000D01*
G75*
G02*
X100205000Y-86735000I0J-200000D01*
G01*
X100205000Y-87285000D01*
G75*
G02*
X100005000Y-87485000I-200000J0D01*
G01*
X99605000Y-87485000D01*
G75*
G02*
X99405000Y-87285000I0J200000D01*
G01*
G37*
G36*
G01*
X97755000Y-87285000D02*
X97755000Y-86735000D01*
G75*
G02*
X97955000Y-86535000I200000J0D01*
G01*
X98355000Y-86535000D01*
G75*
G02*
X98555000Y-86735000I0J-200000D01*
G01*
X98555000Y-87285000D01*
G75*
G02*
X98355000Y-87485000I-200000J0D01*
G01*
X97955000Y-87485000D01*
G75*
G02*
X97755000Y-87285000I0J200000D01*
G01*
G37*
D24*
X127700000Y-48700000D03*
X123600000Y-48700000D03*
D11*
X113640000Y-46500000D03*
D12*
X111100000Y-46500000D03*
D11*
X101480000Y-105190000D03*
X101480000Y-102650000D03*
X98940000Y-105190000D03*
X98940000Y-102650000D03*
X96400000Y-105190000D03*
X96400000Y-102650000D03*
X93860000Y-105190000D03*
X93860000Y-102650000D03*
X91320000Y-105190000D03*
X91320000Y-102650000D03*
X88780000Y-105190000D03*
X88780000Y-102650000D03*
X86240000Y-105190000D03*
X86240000Y-102650000D03*
X83700000Y-105190000D03*
X83700000Y-102650000D03*
X81160000Y-105190000D03*
X81160000Y-102650000D03*
X78620000Y-105190000D03*
D12*
X78620000Y-102650000D03*
D25*
X118656000Y-103669000D03*
X114256000Y-103669000D03*
D26*
X118056000Y-101069000D03*
X117256000Y-101069000D03*
X116456000Y-101069000D03*
X115656000Y-101069000D03*
X114856000Y-101069000D03*
D27*
X120856000Y-101069000D03*
X112056000Y-101069000D03*
X120856000Y-106569000D03*
X112056000Y-106569000D03*
G36*
G01*
X71773750Y-87110000D02*
X72286250Y-87110000D01*
G75*
G02*
X72505000Y-87328750I0J-218750D01*
G01*
X72505000Y-87766250D01*
G75*
G02*
X72286250Y-87985000I-218750J0D01*
G01*
X71773750Y-87985000D01*
G75*
G02*
X71555000Y-87766250I0J218750D01*
G01*
X71555000Y-87328750D01*
G75*
G02*
X71773750Y-87110000I218750J0D01*
G01*
G37*
G36*
G01*
X71773750Y-85535000D02*
X72286250Y-85535000D01*
G75*
G02*
X72505000Y-85753750I0J-218750D01*
G01*
X72505000Y-86191250D01*
G75*
G02*
X72286250Y-86410000I-218750J0D01*
G01*
X71773750Y-86410000D01*
G75*
G02*
X71555000Y-86191250I0J218750D01*
G01*
X71555000Y-85753750D01*
G75*
G02*
X71773750Y-85535000I218750J0D01*
G01*
G37*
G36*
G01*
X116756250Y-53150000D02*
X116243750Y-53150000D01*
G75*
G02*
X116025000Y-52931250I0J218750D01*
G01*
X116025000Y-52493750D01*
G75*
G02*
X116243750Y-52275000I218750J0D01*
G01*
X116756250Y-52275000D01*
G75*
G02*
X116975000Y-52493750I0J-218750D01*
G01*
X116975000Y-52931250D01*
G75*
G02*
X116756250Y-53150000I-218750J0D01*
G01*
G37*
G36*
G01*
X116756250Y-54725000D02*
X116243750Y-54725000D01*
G75*
G02*
X116025000Y-54506250I0J218750D01*
G01*
X116025000Y-54068750D01*
G75*
G02*
X116243750Y-53850000I218750J0D01*
G01*
X116756250Y-53850000D01*
G75*
G02*
X116975000Y-54068750I0J-218750D01*
G01*
X116975000Y-54506250D01*
G75*
G02*
X116756250Y-54725000I-218750J0D01*
G01*
G37*
G36*
G01*
X71930000Y-95983750D02*
X71930000Y-96496250D01*
G75*
G02*
X71711250Y-96715000I-218750J0D01*
G01*
X71273750Y-96715000D01*
G75*
G02*
X71055000Y-96496250I0J218750D01*
G01*
X71055000Y-95983750D01*
G75*
G02*
X71273750Y-95765000I218750J0D01*
G01*
X71711250Y-95765000D01*
G75*
G02*
X71930000Y-95983750I0J-218750D01*
G01*
G37*
G36*
G01*
X73505000Y-95983750D02*
X73505000Y-96496250D01*
G75*
G02*
X73286250Y-96715000I-218750J0D01*
G01*
X72848750Y-96715000D01*
G75*
G02*
X72630000Y-96496250I0J218750D01*
G01*
X72630000Y-95983750D01*
G75*
G02*
X72848750Y-95765000I218750J0D01*
G01*
X73286250Y-95765000D01*
G75*
G02*
X73505000Y-95983750I0J-218750D01*
G01*
G37*
G36*
G01*
X109550001Y-100550000D02*
X108649999Y-100550000D01*
G75*
G02*
X108400000Y-100300001I0J249999D01*
G01*
X108400000Y-99649999D01*
G75*
G02*
X108649999Y-99400000I249999J0D01*
G01*
X109550001Y-99400000D01*
G75*
G02*
X109800000Y-99649999I0J-249999D01*
G01*
X109800000Y-100300001D01*
G75*
G02*
X109550001Y-100550000I-249999J0D01*
G01*
G37*
G36*
G01*
X109550001Y-102600000D02*
X108649999Y-102600000D01*
G75*
G02*
X108400000Y-102350001I0J249999D01*
G01*
X108400000Y-101699999D01*
G75*
G02*
X108649999Y-101450000I249999J0D01*
G01*
X109550001Y-101450000D01*
G75*
G02*
X109800000Y-101699999I0J-249999D01*
G01*
X109800000Y-102350001D01*
G75*
G02*
X109550001Y-102600000I-249999J0D01*
G01*
G37*
G36*
G01*
X126625000Y-44749999D02*
X126625000Y-45650001D01*
G75*
G02*
X126375001Y-45900000I-249999J0D01*
G01*
X125724999Y-45900000D01*
G75*
G02*
X125475000Y-45650001I0J249999D01*
G01*
X125475000Y-44749999D01*
G75*
G02*
X125724999Y-44500000I249999J0D01*
G01*
X126375001Y-44500000D01*
G75*
G02*
X126625000Y-44749999I0J-249999D01*
G01*
G37*
G36*
G01*
X128675000Y-44749999D02*
X128675000Y-45650001D01*
G75*
G02*
X128425001Y-45900000I-249999J0D01*
G01*
X127774999Y-45900000D01*
G75*
G02*
X127525000Y-45650001I0J249999D01*
G01*
X127525000Y-44749999D01*
G75*
G02*
X127774999Y-44500000I249999J0D01*
G01*
X128425001Y-44500000D01*
G75*
G02*
X128675000Y-44749999I0J-249999D01*
G01*
G37*
G36*
G01*
X121830001Y-55490000D02*
X121029999Y-55490000D01*
G75*
G02*
X120780000Y-55240001I0J249999D01*
G01*
X120780000Y-54414999D01*
G75*
G02*
X121029999Y-54165000I249999J0D01*
G01*
X121830001Y-54165000D01*
G75*
G02*
X122080000Y-54414999I0J-249999D01*
G01*
X122080000Y-55240001D01*
G75*
G02*
X121830001Y-55490000I-249999J0D01*
G01*
G37*
G36*
G01*
X121830001Y-57415000D02*
X121029999Y-57415000D01*
G75*
G02*
X120780000Y-57165001I0J249999D01*
G01*
X120780000Y-56339999D01*
G75*
G02*
X121029999Y-56090000I249999J0D01*
G01*
X121830001Y-56090000D01*
G75*
G02*
X122080000Y-56339999I0J-249999D01*
G01*
X122080000Y-57165001D01*
G75*
G02*
X121830001Y-57415000I-249999J0D01*
G01*
G37*
D28*
X111050000Y-49000000D03*
X112000000Y-51000000D03*
X110100000Y-51000000D03*
G36*
G01*
X124425000Y-55950000D02*
X124425000Y-55450000D01*
G75*
G02*
X124650000Y-55225000I225000J0D01*
G01*
X125100000Y-55225000D01*
G75*
G02*
X125325000Y-55450000I0J-225000D01*
G01*
X125325000Y-55950000D01*
G75*
G02*
X125100000Y-56175000I-225000J0D01*
G01*
X124650000Y-56175000D01*
G75*
G02*
X124425000Y-55950000I0J225000D01*
G01*
G37*
G36*
G01*
X122875000Y-55950000D02*
X122875000Y-55450000D01*
G75*
G02*
X123100000Y-55225000I225000J0D01*
G01*
X123550000Y-55225000D01*
G75*
G02*
X123775000Y-55450000I0J-225000D01*
G01*
X123775000Y-55950000D01*
G75*
G02*
X123550000Y-56175000I-225000J0D01*
G01*
X123100000Y-56175000D01*
G75*
G02*
X122875000Y-55950000I0J225000D01*
G01*
G37*
G36*
G01*
X127750000Y-57950000D02*
X127750000Y-57450000D01*
G75*
G02*
X127975000Y-57225000I225000J0D01*
G01*
X128425000Y-57225000D01*
G75*
G02*
X128650000Y-57450000I0J-225000D01*
G01*
X128650000Y-57950000D01*
G75*
G02*
X128425000Y-58175000I-225000J0D01*
G01*
X127975000Y-58175000D01*
G75*
G02*
X127750000Y-57950000I0J225000D01*
G01*
G37*
G36*
G01*
X126200000Y-57950000D02*
X126200000Y-57450000D01*
G75*
G02*
X126425000Y-57225000I225000J0D01*
G01*
X126875000Y-57225000D01*
G75*
G02*
X127100000Y-57450000I0J-225000D01*
G01*
X127100000Y-57950000D01*
G75*
G02*
X126875000Y-58175000I-225000J0D01*
G01*
X126425000Y-58175000D01*
G75*
G02*
X126200000Y-57950000I0J225000D01*
G01*
G37*
G36*
G01*
X124425000Y-54450000D02*
X124425000Y-53950000D01*
G75*
G02*
X124650000Y-53725000I225000J0D01*
G01*
X125100000Y-53725000D01*
G75*
G02*
X125325000Y-53950000I0J-225000D01*
G01*
X125325000Y-54450000D01*
G75*
G02*
X125100000Y-54675000I-225000J0D01*
G01*
X124650000Y-54675000D01*
G75*
G02*
X124425000Y-54450000I0J225000D01*
G01*
G37*
G36*
G01*
X122875000Y-54450000D02*
X122875000Y-53950000D01*
G75*
G02*
X123100000Y-53725000I225000J0D01*
G01*
X123550000Y-53725000D01*
G75*
G02*
X123775000Y-53950000I0J-225000D01*
G01*
X123775000Y-54450000D01*
G75*
G02*
X123550000Y-54675000I-225000J0D01*
G01*
X123100000Y-54675000D01*
G75*
G02*
X122875000Y-54450000I0J225000D01*
G01*
G37*
G36*
G01*
X127850000Y-52805000D02*
X128350000Y-52805000D01*
G75*
G02*
X128575000Y-53030000I0J-225000D01*
G01*
X128575000Y-53480000D01*
G75*
G02*
X128350000Y-53705000I-225000J0D01*
G01*
X127850000Y-53705000D01*
G75*
G02*
X127625000Y-53480000I0J225000D01*
G01*
X127625000Y-53030000D01*
G75*
G02*
X127850000Y-52805000I225000J0D01*
G01*
G37*
G36*
G01*
X127850000Y-51255000D02*
X128350000Y-51255000D01*
G75*
G02*
X128575000Y-51480000I0J-225000D01*
G01*
X128575000Y-51930000D01*
G75*
G02*
X128350000Y-52155000I-225000J0D01*
G01*
X127850000Y-52155000D01*
G75*
G02*
X127625000Y-51930000I0J225000D01*
G01*
X127625000Y-51480000D01*
G75*
G02*
X127850000Y-51255000I225000J0D01*
G01*
G37*
G36*
G01*
X74575000Y-86150000D02*
X74575000Y-86650000D01*
G75*
G02*
X74350000Y-86875000I-225000J0D01*
G01*
X73900000Y-86875000D01*
G75*
G02*
X73675000Y-86650000I0J225000D01*
G01*
X73675000Y-86150000D01*
G75*
G02*
X73900000Y-85925000I225000J0D01*
G01*
X74350000Y-85925000D01*
G75*
G02*
X74575000Y-86150000I0J-225000D01*
G01*
G37*
G36*
G01*
X76125000Y-86150000D02*
X76125000Y-86650000D01*
G75*
G02*
X75900000Y-86875000I-225000J0D01*
G01*
X75450000Y-86875000D01*
G75*
G02*
X75225000Y-86650000I0J225000D01*
G01*
X75225000Y-86150000D01*
G75*
G02*
X75450000Y-85925000I225000J0D01*
G01*
X75900000Y-85925000D01*
G75*
G02*
X76125000Y-86150000I0J-225000D01*
G01*
G37*
G36*
G01*
X74575000Y-84650000D02*
X74575000Y-85150000D01*
G75*
G02*
X74350000Y-85375000I-225000J0D01*
G01*
X73900000Y-85375000D01*
G75*
G02*
X73675000Y-85150000I0J225000D01*
G01*
X73675000Y-84650000D01*
G75*
G02*
X73900000Y-84425000I225000J0D01*
G01*
X74350000Y-84425000D01*
G75*
G02*
X74575000Y-84650000I0J-225000D01*
G01*
G37*
G36*
G01*
X76125000Y-84650000D02*
X76125000Y-85150000D01*
G75*
G02*
X75900000Y-85375000I-225000J0D01*
G01*
X75450000Y-85375000D01*
G75*
G02*
X75225000Y-85150000I0J225000D01*
G01*
X75225000Y-84650000D01*
G75*
G02*
X75450000Y-84425000I225000J0D01*
G01*
X75900000Y-84425000D01*
G75*
G02*
X76125000Y-84650000I0J-225000D01*
G01*
G37*
G36*
G01*
X114750000Y-53825000D02*
X115250000Y-53825000D01*
G75*
G02*
X115475000Y-54050000I0J-225000D01*
G01*
X115475000Y-54500000D01*
G75*
G02*
X115250000Y-54725000I-225000J0D01*
G01*
X114750000Y-54725000D01*
G75*
G02*
X114525000Y-54500000I0J225000D01*
G01*
X114525000Y-54050000D01*
G75*
G02*
X114750000Y-53825000I225000J0D01*
G01*
G37*
G36*
G01*
X114750000Y-52275000D02*
X115250000Y-52275000D01*
G75*
G02*
X115475000Y-52500000I0J-225000D01*
G01*
X115475000Y-52950000D01*
G75*
G02*
X115250000Y-53175000I-225000J0D01*
G01*
X114750000Y-53175000D01*
G75*
G02*
X114525000Y-52950000I0J225000D01*
G01*
X114525000Y-52500000D01*
G75*
G02*
X114750000Y-52275000I225000J0D01*
G01*
G37*
G36*
G01*
X52091000Y-53139000D02*
X52091000Y-52639000D01*
G75*
G02*
X52316000Y-52414000I225000J0D01*
G01*
X52766000Y-52414000D01*
G75*
G02*
X52991000Y-52639000I0J-225000D01*
G01*
X52991000Y-53139000D01*
G75*
G02*
X52766000Y-53364000I-225000J0D01*
G01*
X52316000Y-53364000D01*
G75*
G02*
X52091000Y-53139000I0J225000D01*
G01*
G37*
G36*
G01*
X50541000Y-53139000D02*
X50541000Y-52639000D01*
G75*
G02*
X50766000Y-52414000I225000J0D01*
G01*
X51216000Y-52414000D01*
G75*
G02*
X51441000Y-52639000I0J-225000D01*
G01*
X51441000Y-53139000D01*
G75*
G02*
X51216000Y-53364000I-225000J0D01*
G01*
X50766000Y-53364000D01*
G75*
G02*
X50541000Y-53139000I0J225000D01*
G01*
G37*
G36*
G01*
X49433500Y-50737500D02*
X49933500Y-50737500D01*
G75*
G02*
X50158500Y-50962500I0J-225000D01*
G01*
X50158500Y-51412500D01*
G75*
G02*
X49933500Y-51637500I-225000J0D01*
G01*
X49433500Y-51637500D01*
G75*
G02*
X49208500Y-51412500I0J225000D01*
G01*
X49208500Y-50962500D01*
G75*
G02*
X49433500Y-50737500I225000J0D01*
G01*
G37*
G36*
G01*
X49433500Y-49187500D02*
X49933500Y-49187500D01*
G75*
G02*
X50158500Y-49412500I0J-225000D01*
G01*
X50158500Y-49862500D01*
G75*
G02*
X49933500Y-50087500I-225000J0D01*
G01*
X49433500Y-50087500D01*
G75*
G02*
X49208500Y-49862500I0J225000D01*
G01*
X49208500Y-49412500D01*
G75*
G02*
X49433500Y-49187500I225000J0D01*
G01*
G37*
G36*
G01*
X46691000Y-51429000D02*
X46691000Y-50929000D01*
G75*
G02*
X46916000Y-50704000I225000J0D01*
G01*
X47366000Y-50704000D01*
G75*
G02*
X47591000Y-50929000I0J-225000D01*
G01*
X47591000Y-51429000D01*
G75*
G02*
X47366000Y-51654000I-225000J0D01*
G01*
X46916000Y-51654000D01*
G75*
G02*
X46691000Y-51429000I0J225000D01*
G01*
G37*
G36*
G01*
X45141000Y-51429000D02*
X45141000Y-50929000D01*
G75*
G02*
X45366000Y-50704000I225000J0D01*
G01*
X45816000Y-50704000D01*
G75*
G02*
X46041000Y-50929000I0J-225000D01*
G01*
X46041000Y-51429000D01*
G75*
G02*
X45816000Y-51654000I-225000J0D01*
G01*
X45366000Y-51654000D01*
G75*
G02*
X45141000Y-51429000I0J225000D01*
G01*
G37*
G36*
G01*
X44033500Y-49027500D02*
X44533500Y-49027500D01*
G75*
G02*
X44758500Y-49252500I0J-225000D01*
G01*
X44758500Y-49702500D01*
G75*
G02*
X44533500Y-49927500I-225000J0D01*
G01*
X44033500Y-49927500D01*
G75*
G02*
X43808500Y-49702500I0J225000D01*
G01*
X43808500Y-49252500D01*
G75*
G02*
X44033500Y-49027500I225000J0D01*
G01*
G37*
G36*
G01*
X44033500Y-47477500D02*
X44533500Y-47477500D01*
G75*
G02*
X44758500Y-47702500I0J-225000D01*
G01*
X44758500Y-48152500D01*
G75*
G02*
X44533500Y-48377500I-225000J0D01*
G01*
X44033500Y-48377500D01*
G75*
G02*
X43808500Y-48152500I0J225000D01*
G01*
X43808500Y-47702500D01*
G75*
G02*
X44033500Y-47477500I225000J0D01*
G01*
G37*
G36*
G01*
X72605000Y-94990000D02*
X72605000Y-94490000D01*
G75*
G02*
X72830000Y-94265000I225000J0D01*
G01*
X73280000Y-94265000D01*
G75*
G02*
X73505000Y-94490000I0J-225000D01*
G01*
X73505000Y-94990000D01*
G75*
G02*
X73280000Y-95215000I-225000J0D01*
G01*
X72830000Y-95215000D01*
G75*
G02*
X72605000Y-94990000I0J225000D01*
G01*
G37*
G36*
G01*
X71055000Y-94990000D02*
X71055000Y-94490000D01*
G75*
G02*
X71280000Y-94265000I225000J0D01*
G01*
X71730000Y-94265000D01*
G75*
G02*
X71955000Y-94490000I0J-225000D01*
G01*
X71955000Y-94990000D01*
G75*
G02*
X71730000Y-95215000I-225000J0D01*
G01*
X71280000Y-95215000D01*
G75*
G02*
X71055000Y-94990000I0J225000D01*
G01*
G37*
G36*
G01*
X102840000Y-84610000D02*
X102840000Y-85110000D01*
G75*
G02*
X102615000Y-85335000I-225000J0D01*
G01*
X102165000Y-85335000D01*
G75*
G02*
X101940000Y-85110000I0J225000D01*
G01*
X101940000Y-84610000D01*
G75*
G02*
X102165000Y-84385000I225000J0D01*
G01*
X102615000Y-84385000D01*
G75*
G02*
X102840000Y-84610000I0J-225000D01*
G01*
G37*
G36*
G01*
X104390000Y-84610000D02*
X104390000Y-85110000D01*
G75*
G02*
X104165000Y-85335000I-225000J0D01*
G01*
X103715000Y-85335000D01*
G75*
G02*
X103490000Y-85110000I0J225000D01*
G01*
X103490000Y-84610000D01*
G75*
G02*
X103715000Y-84385000I225000J0D01*
G01*
X104165000Y-84385000D01*
G75*
G02*
X104390000Y-84610000I0J-225000D01*
G01*
G37*
G36*
G01*
X105965000Y-81110000D02*
X105965000Y-81610000D01*
G75*
G02*
X105740000Y-81835000I-225000J0D01*
G01*
X105290000Y-81835000D01*
G75*
G02*
X105065000Y-81610000I0J225000D01*
G01*
X105065000Y-81110000D01*
G75*
G02*
X105290000Y-80885000I225000J0D01*
G01*
X105740000Y-80885000D01*
G75*
G02*
X105965000Y-81110000I0J-225000D01*
G01*
G37*
G36*
G01*
X107515000Y-81110000D02*
X107515000Y-81610000D01*
G75*
G02*
X107290000Y-81835000I-225000J0D01*
G01*
X106840000Y-81835000D01*
G75*
G02*
X106615000Y-81610000I0J225000D01*
G01*
X106615000Y-81110000D01*
G75*
G02*
X106840000Y-80885000I225000J0D01*
G01*
X107290000Y-80885000D01*
G75*
G02*
X107515000Y-81110000I0J-225000D01*
G01*
G37*
G36*
G01*
X58275000Y-107250000D02*
X58275000Y-107750000D01*
G75*
G02*
X58050000Y-107975000I-225000J0D01*
G01*
X57600000Y-107975000D01*
G75*
G02*
X57375000Y-107750000I0J225000D01*
G01*
X57375000Y-107250000D01*
G75*
G02*
X57600000Y-107025000I225000J0D01*
G01*
X58050000Y-107025000D01*
G75*
G02*
X58275000Y-107250000I0J-225000D01*
G01*
G37*
G36*
G01*
X59825000Y-107250000D02*
X59825000Y-107750000D01*
G75*
G02*
X59600000Y-107975000I-225000J0D01*
G01*
X59150000Y-107975000D01*
G75*
G02*
X58925000Y-107750000I0J225000D01*
G01*
X58925000Y-107250000D01*
G75*
G02*
X59150000Y-107025000I225000J0D01*
G01*
X59600000Y-107025000D01*
G75*
G02*
X59825000Y-107250000I0J-225000D01*
G01*
G37*
G36*
G01*
X96350000Y-81575000D02*
X95850000Y-81575000D01*
G75*
G02*
X95625000Y-81350000I0J225000D01*
G01*
X95625000Y-80900000D01*
G75*
G02*
X95850000Y-80675000I225000J0D01*
G01*
X96350000Y-80675000D01*
G75*
G02*
X96575000Y-80900000I0J-225000D01*
G01*
X96575000Y-81350000D01*
G75*
G02*
X96350000Y-81575000I-225000J0D01*
G01*
G37*
G36*
G01*
X96350000Y-83125000D02*
X95850000Y-83125000D01*
G75*
G02*
X95625000Y-82900000I0J225000D01*
G01*
X95625000Y-82450000D01*
G75*
G02*
X95850000Y-82225000I225000J0D01*
G01*
X96350000Y-82225000D01*
G75*
G02*
X96575000Y-82450000I0J-225000D01*
G01*
X96575000Y-82900000D01*
G75*
G02*
X96350000Y-83125000I-225000J0D01*
G01*
G37*
G36*
G01*
X81710000Y-84565000D02*
X81210000Y-84565000D01*
G75*
G02*
X80985000Y-84340000I0J225000D01*
G01*
X80985000Y-83890000D01*
G75*
G02*
X81210000Y-83665000I225000J0D01*
G01*
X81710000Y-83665000D01*
G75*
G02*
X81935000Y-83890000I0J-225000D01*
G01*
X81935000Y-84340000D01*
G75*
G02*
X81710000Y-84565000I-225000J0D01*
G01*
G37*
G36*
G01*
X81710000Y-86115000D02*
X81210000Y-86115000D01*
G75*
G02*
X80985000Y-85890000I0J225000D01*
G01*
X80985000Y-85440000D01*
G75*
G02*
X81210000Y-85215000I225000J0D01*
G01*
X81710000Y-85215000D01*
G75*
G02*
X81935000Y-85440000I0J-225000D01*
G01*
X81935000Y-85890000D01*
G75*
G02*
X81710000Y-86115000I-225000J0D01*
G01*
G37*
M02*
