%FSLAX45Y45*%
G04 Gerber Fmt 4.5, Leading zero omitted, Abs format (unit mm)*
G04 Created by KiCad (PCBNEW (5.1.10)-1) date 2022-03-07 12:44:51*
%MOMM*%
%LPD*%
G01*
G04 APERTURE LIST*
%TA.AperFunction,Profile*%
%ADD10C,0.050000*%
%TD*%
%ADD11C,0.200000*%
%ADD12C,0.300000*%
G04 APERTURE END LIST*
D10*
X14000000Y-3500000D02*
X4000000Y-3500000D01*
X14000000Y-11000000D02*
X14000000Y-3500000D01*
X4000000Y-11000000D02*
X14000000Y-11000000D01*
X4000000Y-3500000D02*
X4000000Y-11000000D01*
D11*
X11380600Y-10321900D02*
X11470600Y-10411900D01*
X11470600Y-10321900D02*
X11380600Y-10411900D01*
X11820600Y-10321900D02*
X11910600Y-10411900D01*
X11910600Y-10321900D02*
X11820600Y-10411900D01*
D12*
X4283928Y-11468214D02*
X4283928Y-11168214D01*
X4355357Y-11168214D01*
X4398214Y-11182500D01*
X4426786Y-11211071D01*
X4441071Y-11239643D01*
X4455357Y-11296786D01*
X4455357Y-11339643D01*
X4441071Y-11396786D01*
X4426786Y-11425357D01*
X4398214Y-11453929D01*
X4355357Y-11468214D01*
X4283928Y-11468214D01*
X4583928Y-11468214D02*
X4583928Y-11268214D01*
X4583928Y-11325357D02*
X4598214Y-11296786D01*
X4612500Y-11282500D01*
X4641071Y-11268214D01*
X4669643Y-11268214D01*
X4769643Y-11468214D02*
X4769643Y-11268214D01*
X4769643Y-11168214D02*
X4755357Y-11182500D01*
X4769643Y-11196786D01*
X4783928Y-11182500D01*
X4769643Y-11168214D01*
X4769643Y-11196786D01*
X4955357Y-11468214D02*
X4926786Y-11453929D01*
X4912500Y-11425357D01*
X4912500Y-11168214D01*
X5112500Y-11468214D02*
X5083928Y-11453929D01*
X5069643Y-11425357D01*
X5069643Y-11168214D01*
X5455357Y-11468214D02*
X5455357Y-11168214D01*
X5555357Y-11382500D01*
X5655357Y-11168214D01*
X5655357Y-11468214D01*
X5926786Y-11468214D02*
X5926786Y-11311071D01*
X5912500Y-11282500D01*
X5883928Y-11268214D01*
X5826786Y-11268214D01*
X5798214Y-11282500D01*
X5926786Y-11453929D02*
X5898214Y-11468214D01*
X5826786Y-11468214D01*
X5798214Y-11453929D01*
X5783928Y-11425357D01*
X5783928Y-11396786D01*
X5798214Y-11368214D01*
X5826786Y-11353929D01*
X5898214Y-11353929D01*
X5926786Y-11339643D01*
X6069643Y-11268214D02*
X6069643Y-11568214D01*
X6069643Y-11282500D02*
X6098214Y-11268214D01*
X6155357Y-11268214D01*
X6183928Y-11282500D01*
X6198214Y-11296786D01*
X6212500Y-11325357D01*
X6212500Y-11411071D01*
X6198214Y-11439643D01*
X6183928Y-11453929D01*
X6155357Y-11468214D01*
X6098214Y-11468214D01*
X6069643Y-11453929D01*
X6341071Y-11439643D02*
X6355357Y-11453929D01*
X6341071Y-11468214D01*
X6326786Y-11453929D01*
X6341071Y-11439643D01*
X6341071Y-11468214D01*
X6341071Y-11282500D02*
X6355357Y-11296786D01*
X6341071Y-11311071D01*
X6326786Y-11296786D01*
X6341071Y-11282500D01*
X6341071Y-11311071D01*
X3907500Y-11917500D02*
X3997500Y-12007500D01*
X3997500Y-11917500D02*
X3907500Y-12007500D01*
X4341071Y-11798214D02*
X4369643Y-11798214D01*
X4398214Y-11812500D01*
X4412500Y-11826786D01*
X4426786Y-11855357D01*
X4441071Y-11912500D01*
X4441071Y-11983929D01*
X4426786Y-12041071D01*
X4412500Y-12069643D01*
X4398214Y-12083929D01*
X4369643Y-12098214D01*
X4341071Y-12098214D01*
X4312500Y-12083929D01*
X4298214Y-12069643D01*
X4283928Y-12041071D01*
X4269643Y-11983929D01*
X4269643Y-11912500D01*
X4283928Y-11855357D01*
X4298214Y-11826786D01*
X4312500Y-11812500D01*
X4341071Y-11798214D01*
X4569643Y-12069643D02*
X4583928Y-12083929D01*
X4569643Y-12098214D01*
X4555357Y-12083929D01*
X4569643Y-12069643D01*
X4569643Y-12098214D01*
X4726786Y-12098214D02*
X4783928Y-12098214D01*
X4812500Y-12083929D01*
X4826786Y-12069643D01*
X4855357Y-12026786D01*
X4869643Y-11969643D01*
X4869643Y-11855357D01*
X4855357Y-11826786D01*
X4841071Y-11812500D01*
X4812500Y-11798214D01*
X4755357Y-11798214D01*
X4726786Y-11812500D01*
X4712500Y-11826786D01*
X4698214Y-11855357D01*
X4698214Y-11926786D01*
X4712500Y-11955357D01*
X4726786Y-11969643D01*
X4755357Y-11983929D01*
X4812500Y-11983929D01*
X4841071Y-11969643D01*
X4855357Y-11955357D01*
X4869643Y-11926786D01*
X5055357Y-11798214D02*
X5083928Y-11798214D01*
X5112500Y-11812500D01*
X5126786Y-11826786D01*
X5141071Y-11855357D01*
X5155357Y-11912500D01*
X5155357Y-11983929D01*
X5141071Y-12041071D01*
X5126786Y-12069643D01*
X5112500Y-12083929D01*
X5083928Y-12098214D01*
X5055357Y-12098214D01*
X5026786Y-12083929D01*
X5012500Y-12069643D01*
X4998214Y-12041071D01*
X4983928Y-11983929D01*
X4983928Y-11912500D01*
X4998214Y-11855357D01*
X5012500Y-11826786D01*
X5026786Y-11812500D01*
X5055357Y-11798214D01*
X5341071Y-11798214D02*
X5369643Y-11798214D01*
X5398214Y-11812500D01*
X5412500Y-11826786D01*
X5426786Y-11855357D01*
X5441071Y-11912500D01*
X5441071Y-11983929D01*
X5426786Y-12041071D01*
X5412500Y-12069643D01*
X5398214Y-12083929D01*
X5369643Y-12098214D01*
X5341071Y-12098214D01*
X5312500Y-12083929D01*
X5298214Y-12069643D01*
X5283928Y-12041071D01*
X5269643Y-11983929D01*
X5269643Y-11912500D01*
X5283928Y-11855357D01*
X5298214Y-11826786D01*
X5312500Y-11812500D01*
X5341071Y-11798214D01*
X5569643Y-12098214D02*
X5569643Y-11898214D01*
X5569643Y-11926786D02*
X5583928Y-11912500D01*
X5612500Y-11898214D01*
X5655357Y-11898214D01*
X5683928Y-11912500D01*
X5698214Y-11941071D01*
X5698214Y-12098214D01*
X5698214Y-11941071D02*
X5712500Y-11912500D01*
X5741071Y-11898214D01*
X5783928Y-11898214D01*
X5812500Y-11912500D01*
X5826786Y-11941071D01*
X5826786Y-12098214D01*
X5969643Y-12098214D02*
X5969643Y-11898214D01*
X5969643Y-11926786D02*
X5983928Y-11912500D01*
X6012500Y-11898214D01*
X6055357Y-11898214D01*
X6083928Y-11912500D01*
X6098214Y-11941071D01*
X6098214Y-12098214D01*
X6098214Y-11941071D02*
X6112500Y-11912500D01*
X6141071Y-11898214D01*
X6183928Y-11898214D01*
X6212500Y-11912500D01*
X6226786Y-11941071D01*
X6226786Y-12098214D01*
X6812500Y-11783929D02*
X6555357Y-12169643D01*
X7198214Y-11798214D02*
X7226786Y-11798214D01*
X7255357Y-11812500D01*
X7269643Y-11826786D01*
X7283928Y-11855357D01*
X7298214Y-11912500D01*
X7298214Y-11983929D01*
X7283928Y-12041071D01*
X7269643Y-12069643D01*
X7255357Y-12083929D01*
X7226786Y-12098214D01*
X7198214Y-12098214D01*
X7169643Y-12083929D01*
X7155357Y-12069643D01*
X7141071Y-12041071D01*
X7126786Y-11983929D01*
X7126786Y-11912500D01*
X7141071Y-11855357D01*
X7155357Y-11826786D01*
X7169643Y-11812500D01*
X7198214Y-11798214D01*
X7426786Y-12069643D02*
X7441071Y-12083929D01*
X7426786Y-12098214D01*
X7412500Y-12083929D01*
X7426786Y-12069643D01*
X7426786Y-12098214D01*
X7626786Y-11798214D02*
X7655357Y-11798214D01*
X7683928Y-11812500D01*
X7698214Y-11826786D01*
X7712500Y-11855357D01*
X7726786Y-11912500D01*
X7726786Y-11983929D01*
X7712500Y-12041071D01*
X7698214Y-12069643D01*
X7683928Y-12083929D01*
X7655357Y-12098214D01*
X7626786Y-12098214D01*
X7598214Y-12083929D01*
X7583928Y-12069643D01*
X7569643Y-12041071D01*
X7555357Y-11983929D01*
X7555357Y-11912500D01*
X7569643Y-11855357D01*
X7583928Y-11826786D01*
X7598214Y-11812500D01*
X7626786Y-11798214D01*
X7826786Y-11798214D02*
X8012500Y-11798214D01*
X7912500Y-11912500D01*
X7955357Y-11912500D01*
X7983928Y-11926786D01*
X7998214Y-11941071D01*
X8012500Y-11969643D01*
X8012500Y-12041071D01*
X7998214Y-12069643D01*
X7983928Y-12083929D01*
X7955357Y-12098214D01*
X7869643Y-12098214D01*
X7841071Y-12083929D01*
X7826786Y-12069643D01*
X8283928Y-11798214D02*
X8141071Y-11798214D01*
X8126786Y-11941071D01*
X8141071Y-11926786D01*
X8169643Y-11912500D01*
X8241071Y-11912500D01*
X8269643Y-11926786D01*
X8283928Y-11941071D01*
X8298214Y-11969643D01*
X8298214Y-12041071D01*
X8283928Y-12069643D01*
X8269643Y-12083929D01*
X8241071Y-12098214D01*
X8169643Y-12098214D01*
X8141071Y-12083929D01*
X8126786Y-12069643D01*
X8555357Y-11898214D02*
X8555357Y-12098214D01*
X8483928Y-11783929D02*
X8412500Y-11998214D01*
X8598214Y-11998214D01*
X8698214Y-11798214D02*
X8698214Y-11855357D01*
X8812500Y-11798214D02*
X8812500Y-11855357D01*
X9255357Y-12212500D02*
X9241071Y-12198214D01*
X9212500Y-12155357D01*
X9198214Y-12126786D01*
X9183928Y-12083929D01*
X9169643Y-12012500D01*
X9169643Y-11955357D01*
X9183928Y-11883929D01*
X9198214Y-11841071D01*
X9212500Y-11812500D01*
X9241071Y-11769643D01*
X9255357Y-11755357D01*
X9355357Y-11826786D02*
X9369643Y-11812500D01*
X9398214Y-11798214D01*
X9469643Y-11798214D01*
X9498214Y-11812500D01*
X9512500Y-11826786D01*
X9526786Y-11855357D01*
X9526786Y-11883929D01*
X9512500Y-11926786D01*
X9341071Y-12098214D01*
X9526786Y-12098214D01*
X9883928Y-12098214D02*
X9883928Y-11798214D01*
X10012500Y-12098214D02*
X10012500Y-11941071D01*
X9998214Y-11912500D01*
X9969643Y-11898214D01*
X9926786Y-11898214D01*
X9898214Y-11912500D01*
X9883928Y-11926786D01*
X10198214Y-12098214D02*
X10169643Y-12083929D01*
X10155357Y-12069643D01*
X10141071Y-12041071D01*
X10141071Y-11955357D01*
X10155357Y-11926786D01*
X10169643Y-11912500D01*
X10198214Y-11898214D01*
X10241071Y-11898214D01*
X10269643Y-11912500D01*
X10283928Y-11926786D01*
X10298214Y-11955357D01*
X10298214Y-12041071D01*
X10283928Y-12069643D01*
X10269643Y-12083929D01*
X10241071Y-12098214D01*
X10198214Y-12098214D01*
X10469643Y-12098214D02*
X10441071Y-12083929D01*
X10426786Y-12055357D01*
X10426786Y-11798214D01*
X10698214Y-12083929D02*
X10669643Y-12098214D01*
X10612500Y-12098214D01*
X10583928Y-12083929D01*
X10569643Y-12055357D01*
X10569643Y-11941071D01*
X10583928Y-11912500D01*
X10612500Y-11898214D01*
X10669643Y-11898214D01*
X10698214Y-11912500D01*
X10712500Y-11941071D01*
X10712500Y-11969643D01*
X10569643Y-11998214D01*
X10826786Y-12083929D02*
X10855357Y-12098214D01*
X10912500Y-12098214D01*
X10941071Y-12083929D01*
X10955357Y-12055357D01*
X10955357Y-12041071D01*
X10941071Y-12012500D01*
X10912500Y-11998214D01*
X10869643Y-11998214D01*
X10841071Y-11983929D01*
X10826786Y-11955357D01*
X10826786Y-11941071D01*
X10841071Y-11912500D01*
X10869643Y-11898214D01*
X10912500Y-11898214D01*
X10941071Y-11912500D01*
X11055357Y-12212500D02*
X11069643Y-12198214D01*
X11098214Y-12155357D01*
X11112500Y-12126786D01*
X11126786Y-12083929D01*
X11141071Y-12012500D01*
X11141071Y-11955357D01*
X11126786Y-11883929D01*
X11112500Y-11841071D01*
X11098214Y-11812500D01*
X11069643Y-11769643D01*
X11055357Y-11755357D01*
X11598214Y-12212500D02*
X11583928Y-12198214D01*
X11555357Y-12155357D01*
X11541071Y-12126786D01*
X11526786Y-12083929D01*
X11512500Y-12012500D01*
X11512500Y-11955357D01*
X11526786Y-11883929D01*
X11541071Y-11841071D01*
X11555357Y-11812500D01*
X11583928Y-11769643D01*
X11598214Y-11755357D01*
X11712500Y-11898214D02*
X11712500Y-12098214D01*
X11712500Y-11926786D02*
X11726786Y-11912500D01*
X11755357Y-11898214D01*
X11798214Y-11898214D01*
X11826786Y-11912500D01*
X11841071Y-11941071D01*
X11841071Y-12098214D01*
X12026786Y-12098214D02*
X11998214Y-12083929D01*
X11983928Y-12069643D01*
X11969643Y-12041071D01*
X11969643Y-11955357D01*
X11983928Y-11926786D01*
X11998214Y-11912500D01*
X12026786Y-11898214D01*
X12069643Y-11898214D01*
X12098214Y-11912500D01*
X12112500Y-11926786D01*
X12126786Y-11955357D01*
X12126786Y-12041071D01*
X12112500Y-12069643D01*
X12098214Y-12083929D01*
X12069643Y-12098214D01*
X12026786Y-12098214D01*
X12212500Y-11898214D02*
X12326786Y-11898214D01*
X12255357Y-11798214D02*
X12255357Y-12055357D01*
X12269643Y-12083929D01*
X12298214Y-12098214D01*
X12326786Y-12098214D01*
X12655357Y-11898214D02*
X12655357Y-12198214D01*
X12655357Y-11912500D02*
X12683928Y-11898214D01*
X12741071Y-11898214D01*
X12769643Y-11912500D01*
X12783928Y-11926786D01*
X12798214Y-11955357D01*
X12798214Y-12041071D01*
X12783928Y-12069643D01*
X12769643Y-12083929D01*
X12741071Y-12098214D01*
X12683928Y-12098214D01*
X12655357Y-12083929D01*
X12969643Y-12098214D02*
X12941071Y-12083929D01*
X12926786Y-12055357D01*
X12926786Y-11798214D01*
X13212500Y-12098214D02*
X13212500Y-11941071D01*
X13198214Y-11912500D01*
X13169643Y-11898214D01*
X13112500Y-11898214D01*
X13083928Y-11912500D01*
X13212500Y-12083929D02*
X13183928Y-12098214D01*
X13112500Y-12098214D01*
X13083928Y-12083929D01*
X13069643Y-12055357D01*
X13069643Y-12026786D01*
X13083928Y-11998214D01*
X13112500Y-11983929D01*
X13183928Y-11983929D01*
X13212500Y-11969643D01*
X13312500Y-11898214D02*
X13426786Y-11898214D01*
X13355357Y-11798214D02*
X13355357Y-12055357D01*
X13369643Y-12083929D01*
X13398214Y-12098214D01*
X13426786Y-12098214D01*
X13641071Y-12083929D02*
X13612500Y-12098214D01*
X13555357Y-12098214D01*
X13526786Y-12083929D01*
X13512500Y-12055357D01*
X13512500Y-11941071D01*
X13526786Y-11912500D01*
X13555357Y-11898214D01*
X13612500Y-11898214D01*
X13641071Y-11912500D01*
X13655357Y-11941071D01*
X13655357Y-11969643D01*
X13512500Y-11998214D01*
X13912500Y-12098214D02*
X13912500Y-11798214D01*
X13912500Y-12083929D02*
X13883928Y-12098214D01*
X13826786Y-12098214D01*
X13798214Y-12083929D01*
X13783928Y-12069643D01*
X13769643Y-12041071D01*
X13769643Y-11955357D01*
X13783928Y-11926786D01*
X13798214Y-11912500D01*
X13826786Y-11898214D01*
X13883928Y-11898214D01*
X13912500Y-11912500D01*
X14026786Y-12212500D02*
X14041071Y-12198214D01*
X14069643Y-12155357D01*
X14083928Y-12126786D01*
X14098214Y-12083929D01*
X14112500Y-12012500D01*
X14112500Y-11955357D01*
X14098214Y-11883929D01*
X14083928Y-11841071D01*
X14069643Y-11812500D01*
X14041071Y-11769643D01*
X14026786Y-11755357D01*
M02*
